<svg xmlns="http://www.w3.org/2000/svg" xmlns:xlink="http://www.w3.org/1999/xlink" width="1920" zoomAndPan="magnify" viewBox="0 0 1440 809.999993" height="1080" preserveAspectRatio="xMidYMid meet" version="1.0"><defs><g/><clipPath id="06f02c391d"><path d="M 119 23 L 385 23 L 385 289 L 119 289 Z M 119 23 " clip-rule="nonzero"/></clipPath><clipPath id="88cb2d79b2"><path d="M 355.613281 312.539062 L 96.144531 259.457031 L 149.230469 -0.0117188 L 408.699219 53.070312 Z M 355.613281 312.539062 " clip-rule="nonzero"/></clipPath><clipPath id="1b9f11dfbf"><path d="M 225.878906 286 C 297.53125 300.65625 367.496094 254.457031 382.15625 182.804688 C 396.816406 111.15625 350.613281 41.1875 278.964844 26.53125 C 207.3125 11.871094 137.347656 58.070312 122.6875 129.722656 C 108.027344 201.371094 154.230469 271.339844 225.878906 286 Z M 225.878906 286 " clip-rule="nonzero"/></clipPath><clipPath id="14b727230e"><path d="M 1159.613281 156.277344 L 1235.085938 156.277344 L 1235.085938 231.75 L 1159.613281 231.75 Z M 1159.613281 156.277344 " clip-rule="nonzero"/></clipPath><clipPath id="e513b4912f"><path d="M 1197.347656 156.277344 C 1176.507812 156.277344 1159.613281 173.171875 1159.613281 194.011719 C 1159.613281 214.855469 1176.507812 231.75 1197.347656 231.75 C 1218.191406 231.75 1235.085938 214.855469 1235.085938 194.011719 C 1235.085938 173.171875 1218.191406 156.277344 1197.347656 156.277344 Z M 1197.347656 156.277344 " clip-rule="nonzero"/></clipPath><clipPath id="f866a5280c"><path d="M 325.613281 214.046875 L 1185 214.046875 L 1185 651.820312 L 325.613281 651.820312 Z M 325.613281 214.046875 " clip-rule="nonzero"/></clipPath><clipPath id="8eb547fe41"><path d="M 1180.929688 651.558594 L 329.691406 651.558594 C 327.601562 651.558594 325.875 649.832031 325.875 647.742188 L 325.875 218.125 C 325.875 216.035156 327.601562 214.308594 329.691406 214.308594 L 1180.875 214.308594 C 1182.964844 214.308594 1184.691406 216.035156 1184.691406 218.125 L 1184.691406 647.691406 C 1184.742188 649.832031 1183.019531 651.558594 1180.929688 651.558594 Z M 1180.929688 651.558594 " clip-rule="nonzero"/></clipPath><clipPath id="f8520ceaec"><path d="M 324.570312 213.003906 L 1186.050781 213.003906 L 1186.050781 652.863281 L 324.570312 652.863281 Z M 324.570312 213.003906 " clip-rule="nonzero"/></clipPath><clipPath id="6528040fac"><path d="M 1180.929688 215.457031 C 1182.390625 215.457031 1183.59375 216.660156 1183.59375 218.125 L 1183.59375 647.742188 C 1183.59375 649.207031 1182.390625 650.410156 1180.929688 650.410156 L 329.691406 650.410156 C 328.226562 650.410156 327.027344 649.207031 327.027344 647.742188 L 327.027344 218.125 C 327.027344 216.660156 328.226562 215.457031 329.691406 215.457031 L 1180.929688 215.457031 M 1180.929688 213.003906 L 329.691406 213.003906 C 326.871094 213.003906 324.570312 215.300781 324.570312 218.125 L 324.570312 647.742188 C 324.570312 650.566406 326.871094 652.863281 329.691406 652.863281 L 1180.929688 652.863281 C 1183.75 652.863281 1186.050781 650.566406 1186.050781 647.742188 L 1186.050781 218.125 C 1186.050781 215.300781 1183.75 213.003906 1180.929688 213.003906 Z M 1180.929688 213.003906 " clip-rule="nonzero"/></clipPath><clipPath id="736fb7f62e"><path d="M 1044.824219 227.878906 L 1081.394531 227.878906 L 1081.394531 264.449219 L 1044.824219 264.449219 Z M 1044.824219 227.878906 " clip-rule="nonzero"/></clipPath><clipPath id="0209a7099d"><path d="M 1063.109375 227.878906 C 1053.011719 227.878906 1044.824219 236.066406 1044.824219 246.164062 C 1044.824219 256.261719 1053.011719 264.449219 1063.109375 264.449219 C 1073.207031 264.449219 1081.394531 256.261719 1081.394531 246.164062 C 1081.394531 236.066406 1073.207031 227.878906 1063.109375 227.878906 Z M 1063.109375 227.878906 " clip-rule="nonzero"/></clipPath><clipPath id="fef840c51d"><path d="M 1092.335938 227.878906 L 1128.90625 227.878906 L 1128.90625 264.449219 L 1092.335938 264.449219 Z M 1092.335938 227.878906 " clip-rule="nonzero"/></clipPath><clipPath id="f9c0c9095d"><path d="M 1110.621094 227.878906 C 1100.523438 227.878906 1092.335938 236.066406 1092.335938 246.164062 C 1092.335938 256.261719 1100.523438 264.449219 1110.621094 264.449219 C 1120.71875 264.449219 1128.90625 256.261719 1128.90625 246.164062 C 1128.90625 236.066406 1120.71875 227.878906 1110.621094 227.878906 Z M 1110.621094 227.878906 " clip-rule="nonzero"/></clipPath><clipPath id="d5725ef9dd"><path d="M 1139.761719 227.878906 L 1176.328125 227.878906 L 1176.328125 264.449219 L 1139.761719 264.449219 Z M 1139.761719 227.878906 " clip-rule="nonzero"/></clipPath><clipPath id="fe31d83611"><path d="M 1158.042969 227.878906 C 1147.945312 227.878906 1139.761719 236.066406 1139.761719 246.164062 C 1139.761719 256.261719 1147.945312 264.449219 1158.042969 264.449219 C 1168.140625 264.449219 1176.328125 256.261719 1176.328125 246.164062 C 1176.328125 236.066406 1168.140625 227.878906 1158.042969 227.878906 Z M 1158.042969 227.878906 " clip-rule="nonzero"/></clipPath><clipPath id="63dc271860"><path d="M 1186.050781 586.101562 L 1440 586.101562 L 1440 810 L 1186.050781 810 Z M 1186.050781 586.101562 " clip-rule="nonzero"/></clipPath><clipPath id="0249445e8c"><path d="M 1328.949219 586.101562 C 1250.027344 586.101562 1186.050781 650.078125 1186.050781 729 C 1186.050781 807.921875 1250.027344 871.898438 1328.949219 871.898438 C 1407.871094 871.898438 1471.847656 807.921875 1471.847656 729 C 1471.847656 650.078125 1407.871094 586.101562 1328.949219 586.101562 Z M 1328.949219 586.101562 " clip-rule="nonzero"/></clipPath><clipPath id="1721f9e5f4"><path d="M 408.707031 288.207031 L 497.207031 288.207031 L 497.207031 376.707031 L 408.707031 376.707031 Z M 408.707031 288.207031 " clip-rule="nonzero"/></clipPath><clipPath id="f39b6574a5"><path d="M 423 346 L 484 346 L 484 376.707031 L 423 376.707031 Z M 423 346 " clip-rule="nonzero"/></clipPath><clipPath id="9a46cf45ce"><path d="M 887.523438 433.875 L 1013.894531 433.875 L 1013.894531 497.058594 L 887.523438 497.058594 Z M 887.523438 433.875 " clip-rule="nonzero"/></clipPath><clipPath id="4902ae2ab0"><path d="M 982.300781 433.875 C 999.75 433.875 1013.894531 448.019531 1013.894531 465.46875 C 1013.894531 482.914062 999.75 497.058594 982.300781 497.058594 L 919.117188 497.058594 C 901.667969 497.058594 887.523438 482.914062 887.523438 465.46875 C 887.523438 448.019531 901.667969 433.875 919.117188 433.875 Z M 982.300781 433.875 " clip-rule="nonzero"/></clipPath><clipPath id="ed4c43a2de"><path d="M 736.441406 433.875 L 862.773438 433.875 L 862.773438 497.042969 L 736.441406 497.042969 Z M 736.441406 433.875 " clip-rule="nonzero"/></clipPath><clipPath id="380e7bf9b9"><path d="M 831.191406 433.875 C 848.636719 433.875 862.773438 448.015625 862.773438 465.457031 C 862.773438 482.902344 848.636719 497.042969 831.191406 497.042969 L 768.023438 497.042969 C 750.582031 497.042969 736.441406 482.902344 736.441406 465.457031 C 736.441406 448.015625 750.582031 433.875 768.023438 433.875 Z M 831.191406 433.875 " clip-rule="nonzero"/></clipPath><clipPath id="6d25bc043e"><path d="M 666.878906 332.59375 L 897.058594 332.59375 L 897.058594 374.023438 L 666.878906 374.023438 Z M 666.878906 332.59375 " clip-rule="nonzero"/></clipPath><clipPath id="9caab6140c"><path d="M 687.59375 332.59375 L 876.34375 332.59375 C 887.785156 332.59375 897.058594 341.867188 897.058594 353.308594 C 897.058594 364.75 887.785156 374.023438 876.34375 374.023438 L 687.59375 374.023438 C 676.152344 374.023438 666.878906 364.75 666.878906 353.308594 C 666.878906 341.867188 676.152344 332.59375 687.59375 332.59375 Z M 687.59375 332.59375 " clip-rule="nonzero"/></clipPath><clipPath id="feca401873"><path d="M 666.878906 332.59375 L 821.53125 332.59375 L 821.53125 374.023438 L 666.878906 374.023438 Z M 666.878906 332.59375 " clip-rule="nonzero"/></clipPath><clipPath id="6b3e0c32e9"><path d="M 687.59375 332.59375 L 800.382812 332.59375 C 811.824219 332.59375 821.101562 341.867188 821.101562 353.308594 C 821.101562 364.75 811.824219 374.023438 800.382812 374.023438 L 687.59375 374.023438 C 676.152344 374.023438 666.878906 364.75 666.878906 353.308594 C 666.878906 341.867188 676.152344 332.59375 687.59375 332.59375 Z M 687.59375 332.59375 " clip-rule="nonzero"/></clipPath><clipPath id="1025f1570a"><path d="M 585.523438 433.097656 L 711.859375 433.097656 L 711.859375 496.265625 L 585.523438 496.265625 Z M 585.523438 433.097656 " clip-rule="nonzero"/></clipPath><clipPath id="07da11963d"><path d="M 680.273438 433.097656 C 697.71875 433.097656 711.859375 447.238281 711.859375 464.679688 C 711.859375 482.125 697.71875 496.265625 680.273438 496.265625 L 617.109375 496.265625 C 599.664062 496.265625 585.523438 482.125 585.523438 464.679688 C 585.523438 447.238281 599.664062 433.097656 617.109375 433.097656 Z M 680.273438 433.097656 " clip-rule="nonzero"/></clipPath><clipPath id="fe9bb0f77d"><path d="M 93.257812 716.496094 L 187.007812 716.496094 L 187.007812 810 L 93.257812 810 Z M 93.257812 716.496094 " clip-rule="nonzero"/></clipPath><clipPath id="89c03931f3"><path d="M 0 716.496094 L 93.503906 716.496094 L 93.503906 810 L 0 810 Z M 0 716.496094 " clip-rule="nonzero"/></clipPath><clipPath id="d3e4f3828b"><path d="M 93.535156 622.992188 L 187.007812 622.992188 L 187.007812 716.464844 L 93.535156 716.464844 Z M 93.535156 622.992188 " clip-rule="nonzero"/></clipPath><clipPath id="c0bae4f2e7"><path d="M 0.0273438 622.992188 L 93.503906 622.992188 L 93.503906 716.464844 L 0.0273438 716.464844 Z M 0.0273438 622.992188 " clip-rule="nonzero"/></clipPath></defs><rect x="-144" width="1728" fill="#ffffff" y="-80.999999" height="971.999992" fill-opacity="1"/><rect x="-144" width="1728" fill="#ffffff" y="-80.999999" height="971.999992" fill-opacity="1"/><g clip-path="url(#06f02c391d)"><g clip-path="url(#88cb2d79b2)"><g clip-path="url(#1b9f11dfbf)"><path fill="#345ee9" d="M 355.613281 312.539062 L 96.144531 259.457031 L 149.230469 -0.0117188 L 408.699219 53.070312 Z M 355.613281 312.539062 " fill-opacity="1" fill-rule="nonzero"/></g></g></g><g clip-path="url(#14b727230e)"><g clip-path="url(#e513b4912f)"><path fill="#fa8068" d="M 1159.613281 156.277344 L 1235.085938 156.277344 L 1235.085938 231.75 L 1159.613281 231.75 Z M 1159.613281 156.277344 " fill-opacity="1" fill-rule="nonzero"/></g></g><g clip-path="url(#f866a5280c)"><g clip-path="url(#8eb547fe41)"><path fill="#ffffff" d="M 324.570312 213.003906 L 1186.050781 213.003906 L 1186.050781 652.863281 L 324.570312 652.863281 Z M 324.570312 213.003906 " fill-opacity="1" fill-rule="nonzero"/></g></g><g clip-path="url(#f8520ceaec)"><g clip-path="url(#6528040fac)"><path fill="#191919" d="M 324.570312 213.003906 L 1186.050781 213.003906 L 1186.050781 652.863281 L 324.570312 652.863281 Z M 324.570312 213.003906 " fill-opacity="1" fill-rule="nonzero"/></g></g><g clip-path="url(#736fb7f62e)"><g clip-path="url(#0209a7099d)"><path fill="#f5c853" d="M 1044.824219 227.878906 L 1081.394531 227.878906 L 1081.394531 264.449219 L 1044.824219 264.449219 Z M 1044.824219 227.878906 " fill-opacity="1" fill-rule="nonzero"/></g></g><g clip-path="url(#fef840c51d)"><g clip-path="url(#f9c0c9095d)"><path fill="#e27354" d="M 1092.335938 227.878906 L 1128.90625 227.878906 L 1128.90625 264.449219 L 1092.335938 264.449219 Z M 1092.335938 227.878906 " fill-opacity="1" fill-rule="nonzero"/></g></g><g clip-path="url(#d5725ef9dd)"><g clip-path="url(#fe31d83611)"><path fill="#345ee9" d="M 1139.761719 227.878906 L 1176.328125 227.878906 L 1176.328125 264.449219 L 1139.761719 264.449219 Z M 1139.761719 227.878906 " fill-opacity="1" fill-rule="nonzero"/></g></g><g clip-path="url(#63dc271860)"><g clip-path="url(#0249445e8c)"><path fill="#f5c853" d="M 1186.050781 586.101562 L 1471.847656 586.101562 L 1471.847656 871.898438 L 1186.050781 871.898438 Z M 1186.050781 586.101562 " fill-opacity="1" fill-rule="nonzero"/></g></g><g clip-path="url(#1721f9e5f4)"><path fill="#004aad" d="M 497.464844 299.136719 L 497.464844 366.03125 C 497.464844 372.050781 492.589844 376.929688 486.570312 376.929688 L 419.609375 376.929688 C 413.589844 376.929688 408.710938 372.050781 408.710938 366.03125 L 408.710938 299.136719 C 408.710938 293.121094 413.589844 288.242188 419.609375 288.242188 L 486.570312 288.242188 C 492.589844 288.242188 497.464844 293.121094 497.464844 299.136719 Z M 497.464844 299.136719 " fill-opacity="1" fill-rule="nonzero"/></g><path fill="#010202" d="M 475.964844 304.886719 C 474.3125 303.230469 471.796875 302.765625 469.117188 303.367188 C 465.582031 304.15625 461.90625 304.078125 458.460938 302.96875 C 456.175781 302.230469 453.609375 301.816406 450.902344 301.816406 C 441.242188 301.816406 433.40625 307.082031 433.40625 313.582031 C 433.40625 320.078125 432.039062 332.886719 441.703125 332.886719 C 446.257812 332.886719 452.449219 330.042969 457.722656 326.351562 C 460.113281 324.683594 462.867188 323.648438 465.734375 323.132812 C 468.292969 322.671875 471.035156 321.226562 473.351562 318.910156 C 477.949219 314.316406 479.117188 308.035156 475.964844 304.886719 Z M 475.964844 304.886719 " fill-opacity="1" fill-rule="nonzero"/><g clip-path="url(#f39b6574a5)"><path fill="#00c2cb" d="M 423 376.625 C 423 360.035156 436.574219 346.460938 453.167969 346.460938 C 469.757812 346.460938 483.332031 360.035156 483.332031 376.625 " fill-opacity="1" fill-rule="nonzero"/></g><path fill="#f08474" d="M 460.253906 337.636719 L 460.253906 347.136719 C 460.253906 351.328125 456.828125 354.757812 452.640625 354.757812 C 448.449219 354.757812 445.019531 351.328125 445.019531 347.136719 L 445.019531 337.636719 C 445.019531 333.445312 448.449219 330.019531 452.640625 330.019531 C 454.734375 330.019531 456.636719 330.878906 458.019531 332.257812 C 459.398438 333.636719 460.253906 335.542969 460.253906 337.636719 Z M 460.253906 337.636719 " fill-opacity="1" fill-rule="nonzero"/><path stroke-linecap="butt" transform="matrix(0.199009, 0, 0, 0.199009, 403.414714, 282.954087)" fill="none" stroke-linejoin="miter" d="M 285.611826 322.531575 C 285.611826 343.573385 268.397583 360.807256 247.355773 360.807256 C 226.294333 360.807256 209.080091 343.573385 209.080091 322.531575 " stroke="#ffffff" stroke-width="1" stroke-opacity="1" stroke-miterlimit="10"/><path fill="#010202" d="M 460.253906 337.636719 L 460.253906 345.539062 C 459.078125 345.910156 457.835938 346.109375 456.558594 346.109375 C 451.8125 346.109375 447.609375 343.394531 445.019531 339.222656 L 445.019531 337.636719 C 445.019531 333.445312 448.449219 330.019531 452.640625 330.019531 C 454.734375 330.019531 456.636719 330.878906 458.019531 332.257812 C 459.398438 333.636719 460.253906 335.542969 460.253906 337.636719 Z M 460.253906 337.636719 " fill-opacity="1" fill-rule="nonzero"/><path fill="#f08474" d="M 469.003906 328.136719 C 469.003906 329.230469 468.914062 330.3125 468.730469 331.386719 C 468.546875 332.460938 468.277344 333.503906 467.917969 334.511719 C 467.5625 335.523438 467.121094 336.484375 466.601562 337.394531 C 466.082031 338.304688 465.492188 339.144531 464.828125 339.921875 C 464.167969 340.695312 463.449219 341.386719 462.667969 341.992188 C 461.890625 342.601562 461.070312 343.113281 460.207031 343.535156 C 459.339844 343.953125 458.449219 344.269531 457.53125 344.480469 C 456.613281 344.695312 455.6875 344.800781 454.75 344.800781 C 453.816406 344.800781 452.886719 344.695312 451.96875 344.480469 C 451.050781 344.269531 450.160156 343.953125 449.296875 343.535156 C 448.433594 343.113281 447.609375 342.601562 446.832031 341.992188 C 446.054688 341.386719 445.335938 340.695312 444.671875 339.921875 C 444.011719 339.144531 443.421875 338.304688 442.898438 337.394531 C 442.378906 336.484375 441.941406 335.523438 441.582031 334.511719 C 441.226562 333.503906 440.953125 332.460938 440.773438 331.386719 C 440.589844 330.3125 440.496094 329.230469 440.496094 328.136719 C 440.496094 327.039062 440.589844 325.957031 440.773438 324.882812 C 440.953125 323.808594 441.226562 322.769531 441.582031 321.757812 C 441.941406 320.746094 442.378906 319.785156 442.898438 318.875 C 443.421875 317.964844 444.011719 317.125 444.671875 316.351562 C 445.335938 315.574219 446.054688 314.886719 446.832031 314.277344 C 447.609375 313.667969 448.433594 313.15625 449.296875 312.738281 C 450.160156 312.316406 451.050781 312 451.96875 311.789062 C 452.886719 311.574219 453.816406 311.46875 454.75 311.46875 C 455.6875 311.46875 456.613281 311.574219 457.53125 311.789062 C 458.449219 312 459.339844 312.316406 460.207031 312.738281 C 461.070312 313.15625 461.890625 313.667969 462.667969 314.277344 C 463.449219 314.886719 464.167969 315.574219 464.828125 316.351562 C 465.492188 317.125 466.082031 317.964844 466.601562 318.875 C 467.121094 319.785156 467.5625 320.746094 467.917969 321.757812 C 468.277344 322.769531 468.546875 323.808594 468.730469 324.882812 C 468.914062 325.957031 469.003906 327.039062 469.003906 328.136719 Z M 469.003906 328.136719 " fill-opacity="1" fill-rule="nonzero"/><path fill="#010202" d="M 442.960938 323.765625 C 442.960938 323.765625 453.183594 326.835938 458.011719 318.140625 C 462.839844 309.445312 462.839844 318.269531 466.816406 321.976562 C 470.792969 325.6875 471.078125 307.273438 450.910156 308.296875 C 430.746094 309.320312 432.449219 326.324219 436.851562 327.605469 C 441.253906 328.886719 442.960938 323.765625 442.960938 323.765625 Z M 442.960938 323.765625 " fill-opacity="1" fill-rule="nonzero"/><path fill="#f08474" d="M 445.777344 330.09375 C 445.777344 330.453125 445.738281 330.8125 445.664062 331.164062 C 445.589844 331.515625 445.476562 331.859375 445.328125 332.191406 C 445.183594 332.523438 445 332.839844 444.785156 333.140625 C 444.570312 333.4375 444.328125 333.714844 444.054688 333.96875 C 443.78125 334.222656 443.484375 334.449219 443.164062 334.652344 C 442.84375 334.851562 442.503906 335.019531 442.144531 335.15625 C 441.789062 335.292969 441.421875 335.398438 441.042969 335.46875 C 440.664062 335.539062 440.28125 335.574219 439.894531 335.574219 C 439.507812 335.574219 439.125 335.539062 438.746094 335.46875 C 438.367188 335.398438 438 335.292969 437.644531 335.15625 C 437.285156 335.019531 436.949219 334.851562 436.625 334.652344 C 436.304688 334.449219 436.007812 334.222656 435.734375 333.96875 C 435.460938 333.714844 435.21875 333.4375 435.003906 333.140625 C 434.789062 332.839844 434.609375 332.523438 434.460938 332.191406 C 434.3125 331.859375 434.199219 331.515625 434.125 331.164062 C 434.050781 330.8125 434.011719 330.453125 434.011719 330.09375 C 434.011719 329.734375 434.050781 329.378906 434.125 329.027344 C 434.199219 328.671875 434.3125 328.332031 434.460938 328 C 434.609375 327.667969 434.789062 327.351562 435.003906 327.050781 C 435.21875 326.753906 435.460938 326.476562 435.734375 326.222656 C 436.007812 325.96875 436.304688 325.738281 436.625 325.539062 C 436.949219 325.339844 437.285156 325.171875 437.644531 325.035156 C 438 324.894531 438.367188 324.792969 438.746094 324.722656 C 439.125 324.652344 439.507812 324.617188 439.894531 324.617188 C 440.28125 324.617188 440.664062 324.652344 441.042969 324.722656 C 441.421875 324.792969 441.789062 324.894531 442.144531 325.035156 C 442.503906 325.171875 442.84375 325.339844 443.164062 325.539062 C 443.484375 325.738281 443.78125 325.96875 444.054688 326.222656 C 444.328125 326.476562 444.570312 326.753906 444.785156 327.050781 C 445 327.351562 445.183594 327.667969 445.328125 328 C 445.476562 328.332031 445.589844 328.671875 445.664062 329.027344 C 445.738281 329.378906 445.777344 329.734375 445.777344 330.09375 Z M 445.777344 330.09375 " fill-opacity="1" fill-rule="nonzero"/><path fill="#010202" d="M 454.253906 329.039062 C 453.878906 329.039062 453.570312 328.730469 453.570312 328.355469 L 453.570312 325.980469 C 453.570312 325.605469 453.878906 325.296875 454.253906 325.296875 C 454.628906 325.296875 454.9375 325.605469 454.9375 325.980469 L 454.9375 328.355469 C 454.9375 328.730469 454.628906 329.039062 454.253906 329.039062 Z M 454.253906 329.039062 " fill-opacity="1" fill-rule="nonzero"/><path fill="#010202" d="M 462.367188 329.039062 C 461.992188 329.039062 461.683594 328.730469 461.683594 328.355469 L 461.683594 325.980469 C 461.683594 325.605469 461.992188 325.296875 462.367188 325.296875 C 462.742188 325.296875 463.050781 325.605469 463.050781 325.980469 L 463.050781 328.355469 C 463.050781 328.730469 462.742188 329.039062 462.367188 329.039062 Z M 462.367188 329.039062 " fill-opacity="1" fill-rule="nonzero"/><path stroke-linecap="round" transform="matrix(0.199009, 0, 0, 0.199009, 403.414714, 282.954087)" fill="none" stroke-linejoin="round" d="M 293.522133 198.930566 C 293.522133 198.930566 299.646242 195.986283 311.992603 203.523648 " stroke="#010202" stroke-width="2" stroke-opacity="1" stroke-miterlimit="10"/><path stroke-linecap="round" transform="matrix(0.199009, 0, 0, 0.199009, 403.414714, 282.954087)" fill="none" stroke-linejoin="round" d="M 240.171722 205.565017 C 240.171722 205.565017 243.390805 199.597937 257.837421 198.439852 " stroke="#010202" stroke-width="2" stroke-opacity="1" stroke-miterlimit="10"/><path stroke-linecap="round" transform="matrix(0.199009, 0, 0, 0.199009, 403.414714, 282.954087)" fill="none" stroke-linejoin="round" d="M 284.100427 209.981442 L 282.608657 212.395754 C 281.156144 214.692295 280.900973 217.538436 281.8824 220.050891 L 291.480764 244.566955 C 292.933277 248.276752 291.637792 252.51652 288.340195 254.754175 L 280.685058 259.994999 " stroke="#010202" stroke-width="2" stroke-opacity="1" stroke-miterlimit="10"/><path stroke-linecap="round" transform="matrix(0.199009, 0, 0, 0.199009, 403.414714, 282.954087)" fill="none" stroke-linejoin="round" d="M 262.764188 264.391796 C 262.764188 264.391796 274.030978 278.249555 293.149191 264.548824 " stroke="#000000" stroke-width="2" stroke-opacity="1" stroke-miterlimit="10"/><path stroke-linecap="round" transform="matrix(0.199009, 0, 0, 0.199009, 403.414714, 282.954087)" fill="none" stroke-linejoin="round" d="M 165.877642 224.388801 C 165.877642 224.388801 181.5216 220.345319 190.884421 234.73305 " stroke="#010202" stroke-width="2" stroke-opacity="1" stroke-miterlimit="10"/><path stroke-linecap="round" transform="matrix(0.199009, 0, 0, 0.199009, 403.414714, 282.954087)" fill="none" stroke-linejoin="round" d="M 173.532779 255.186004 C 173.532779 255.186004 172.786893 239.012074 188.803794 232.82908 " stroke="#010202" stroke-width="2" stroke-opacity="1" stroke-miterlimit="10"/><path stroke-linecap="round" transform="matrix(0.75, 0.000479194, -0.000479194, 0.75, 426.475377, 583.475727)" fill="none" stroke-linejoin="miter" d="M 1.50254 1.500155 L 781.065205 1.502073 " stroke="#100f0d" stroke-width="3" stroke-opacity="1" stroke-miterlimit="4"/><g clip-path="url(#9a46cf45ce)"><g clip-path="url(#4902ae2ab0)"><path fill="#f6f4e7" d="M 887.523438 433.875 L 1013.894531 433.875 L 1013.894531 497.058594 L 887.523438 497.058594 Z M 887.523438 433.875 " fill-opacity="1" fill-rule="nonzero"/></g></g><g clip-path="url(#ed4c43a2de)"><g clip-path="url(#380e7bf9b9)"><path fill="#f6f4e7" d="M 736.441406 433.875 L 862.773438 433.875 L 862.773438 497.042969 L 736.441406 497.042969 Z M 736.441406 433.875 " fill-opacity="1" fill-rule="nonzero"/></g></g><g clip-path="url(#6d25bc043e)"><g clip-path="url(#9caab6140c)"><path fill="#6ce5e8" d="M 666.878906 332.59375 L 897.058594 332.59375 L 897.058594 374.023438 L 666.878906 374.023438 Z M 666.878906 332.59375 " fill-opacity="1" fill-rule="nonzero"/></g></g><g clip-path="url(#feca401873)"><g clip-path="url(#6b3e0c32e9)"><path fill="#41b8d5" d="M 666.878906 332.59375 L 897.058594 332.59375 L 897.058594 374.023438 L 666.878906 374.023438 Z M 666.878906 332.59375 " fill-opacity="1" fill-rule="nonzero"/></g></g><g fill="#000000" fill-opacity="1"><g transform="translate(666.878421, 311.307924)"><g><path d="M 8.496094 -17.375 L 8.496094 -16.152344 L 4.726562 -16.152344 L 4.726562 -17.375 Z M 4.726562 -12.984375 L 4.726562 -14.304688 L 8.496094 -14.304688 L 8.496094 -12.984375 Z M 11.183594 -10.921875 L 11.183594 -19.414062 L 1.945312 -19.414062 L 1.945312 2.089844 L 4.726562 2.089844 L 4.726562 -10.921875 Z M 10.800781 -5.640625 L 10.800781 -7.441406 L 13.03125 -7.441406 L 13.03125 -5.640625 Z M 18.167969 -3.3125 L 18.167969 -5.640625 L 15.527344 -5.640625 L 15.527344 -7.441406 L 17.785156 -7.441406 L 17.785156 -9.695312 L 6.191406 -9.695312 L 6.191406 -7.441406 L 8.375 -7.441406 L 8.375 -5.640625 L 5.855469 -5.640625 L 5.855469 -3.3125 L 8.28125 -3.3125 C 8.039062 -2.089844 7.367188 -0.527344 5.832031 0.433594 C 6.382812 0.816406 7.246094 1.558594 7.65625 2.0625 C 9.695312 0.671875 10.488281 -1.65625 10.726562 -3.3125 L 13.03125 -3.3125 L 13.03125 1.632812 L 15.527344 1.632812 L 15.527344 -3.3125 Z M 15.480469 -12.9375 L 15.480469 -14.304688 L 19.367188 -14.304688 L 19.367188 -12.9375 Z M 19.367188 -17.375 L 19.367188 -16.152344 L 15.480469 -16.152344 L 15.480469 -17.375 Z M 22.175781 -19.414062 L 12.769531 -19.414062 L 12.769531 -10.871094 L 19.367188 -10.871094 L 19.367188 -1.273438 C 19.367188 -0.9375 19.246094 -0.792969 18.863281 -0.792969 C 18.503906 -0.769531 17.328125 -0.769531 16.246094 -0.816406 C 16.632812 -0.0703125 17.015625 1.222656 17.113281 2.015625 C 18.9375 2.015625 20.183594 1.945312 21.046875 1.464844 C 21.910156 1.007812 22.175781 0.214844 22.175781 -1.246094 Z M 22.175781 -19.414062 "/></g></g></g><g fill="#000000" fill-opacity="1"><g transform="translate(690.878465, 311.307924)"><g><path d="M 13.367188 -6.816406 L 10.414062 -6.816406 L 10.414062 -9.527344 L 13.367188 -9.527344 Z M 18.527344 -9.527344 L 18.527344 -10.296875 C 19.441406 -9.601562 20.425781 -9 21.480469 -8.496094 C 21.910156 -9.265625 22.777344 -10.390625 23.449219 -10.96875 C 22.078125 -11.519531 20.832031 -12.265625 19.726562 -13.152344 C 20.761719 -13.894531 21.910156 -14.855469 22.894531 -15.742188 L 20.808594 -17.230469 C 20.136719 -16.414062 19.078125 -15.457031 18.121094 -14.640625 C 17.734375 -15.046875 17.375 -15.457031 17.039062 -15.886719 C 18.023438 -16.609375 19.128906 -17.542969 20.113281 -18.433594 L 17.953125 -19.96875 C 17.398438 -19.296875 16.609375 -18.457031 15.816406 -17.734375 C 15.335938 -18.550781 14.953125 -19.414062 14.617188 -20.304688 L 12.046875 -19.585938 C 13.105469 -16.753906 14.542969 -14.257812 16.414062 -12.238281 L 7.726562 -12.238281 C 9.433594 -13.96875 10.800781 -16.105469 11.640625 -18.625 L 9.71875 -19.511719 L 9.214844 -19.414062 L 2.953125 -19.414062 L 2.953125 -16.96875 L 7.847656 -16.96875 C 7.414062 -16.199219 6.910156 -15.480469 6.335938 -14.808594 C 5.664062 -15.382812 4.753906 -16.078125 4.03125 -16.585938 L 2.230469 -15.097656 C 3.023438 -14.496094 3.984375 -13.679688 4.609375 -13.054688 C 3.382812 -12 2.015625 -11.160156 0.625 -10.585938 C 1.175781 -10.054688 1.96875 -9.070312 2.351562 -8.425781 C 3.457031 -8.953125 4.535156 -9.574219 5.542969 -10.320312 L 5.542969 -9.527344 L 7.558594 -9.527344 L 7.558594 -6.816406 L 2.425781 -6.816406 L 2.425781 -4.199219 L 7.175781 -4.199219 C 6.574219 -2.59375 5.136719 -1.105469 1.824219 -0.0976562 C 2.425781 0.433594 3.289062 1.535156 3.648438 2.183594 C 8.089844 0.695312 9.671875 -1.679688 10.199219 -4.199219 L 13.367188 -4.199219 L 13.367188 -1.585938 C 13.367188 1.078125 14.015625 1.921875 16.609375 1.921875 L 19.222656 1.921875 C 21.335938 1.921875 22.078125 0.960938 22.367188 -2.207031 C 21.550781 -2.375 20.398438 -2.855469 19.800781 -3.335938 C 19.703125 -1.078125 19.585938 -0.601562 18.960938 -0.601562 L 17.113281 -0.601562 C 16.441406 -0.601562 16.34375 -0.742188 16.34375 -1.609375 L 16.34375 -4.199219 L 21.457031 -4.199219 L 21.457031 -6.816406 L 16.34375 -6.816406 L 16.34375 -9.527344 Z M 18.527344 -9.527344 "/></g></g></g><g fill="#000000" fill-opacity="1"><g transform="translate(714.87851, 311.307924)"><g><path d="M 18.839844 -12.671875 C 18.265625 -10.726562 17.472656 -8.953125 16.535156 -7.34375 C 16.128906 -9.265625 15.792969 -11.519531 15.574219 -13.921875 L 22.992188 -13.921875 L 22.992188 -16.753906 L 20.496094 -16.753906 L 21.648438 -17.976562 C 20.808594 -18.769531 19.054688 -19.871094 17.734375 -20.542969 L 16.007812 -18.839844 C 16.992188 -18.238281 18.191406 -17.472656 19.078125 -16.753906 L 15.40625 -16.753906 C 15.359375 -17.929688 15.335938 -19.105469 15.359375 -20.304688 L 12.359375 -20.304688 C 12.359375 -19.105469 12.40625 -17.929688 12.457031 -16.753906 L 2.664062 -16.753906 L 2.664062 -9.742188 C 2.664062 -6.625 2.496094 -2.449219 0.671875 0.433594 C 1.320312 0.769531 2.59375 1.824219 3.097656 2.375 C 5.0625 -0.550781 5.566406 -5.230469 5.664062 -8.734375 L 8.785156 -8.734375 C 8.710938 -5.710938 8.617188 -4.558594 8.375 -4.222656 C 8.183594 -3.984375 7.992188 -3.9375 7.65625 -3.9375 C 7.273438 -3.9375 6.457031 -3.960938 5.59375 -4.03125 C 6.023438 -3.3125 6.335938 -2.207031 6.382812 -1.367188 C 7.488281 -1.34375 8.519531 -1.34375 9.144531 -1.441406 C 9.863281 -1.558594 10.34375 -1.777344 10.800781 -2.398438 C 11.351562 -3.097656 11.496094 -5.230469 11.566406 -10.273438 C 11.566406 -10.609375 11.59375 -11.351562 11.59375 -11.351562 L 5.664062 -11.351562 L 5.664062 -13.921875 L 12.625 -13.921875 C 12.9375 -10.320312 13.464844 -6.960938 14.28125 -4.246094 C 12.886719 -2.6875 11.230469 -1.367188 9.382812 -0.359375 C 9.984375 0.191406 11.015625 1.367188 11.449219 1.992188 C 12.9375 1.078125 14.28125 0 15.503906 -1.273438 C 16.558594 0.695312 17.878906 1.894531 19.558594 1.894531 C 21.792969 1.894531 22.753906 0.839844 23.207031 -3.601562 C 22.441406 -3.910156 21.433594 -4.535156 20.785156 -5.207031 C 20.664062 -2.207031 20.375 -1.007812 19.800781 -1.007812 C 19.03125 -1.007812 18.265625 -2.015625 17.566406 -3.742188 C 19.296875 -6.070312 20.710938 -8.855469 21.695312 -11.976562 Z M 18.839844 -12.671875 "/></g></g></g><g fill="#000000" fill-opacity="1"><g transform="translate(738.878554, 311.307924)"><g><path d="M 19.414062 -6.527344 C 18.382812 -5.710938 17.015625 -4.777344 15.742188 -4.03125 C 15 -4.777344 14.375 -5.59375 13.847656 -6.527344 Z M 20.257812 -6.527344 L 22.824219 -6.527344 L 22.824219 -9.046875 L 8.113281 -9.046875 L 8.113281 -10.296875 L 19.65625 -10.296875 L 19.65625 -12.503906 L 8.113281 -12.503906 L 8.113281 -13.703125 L 19.65625 -13.703125 L 19.65625 -15.910156 L 8.113281 -15.910156 L 8.113281 -17.183594 L 20.328125 -17.183594 L 20.328125 -19.511719 L 5.183594 -19.511719 L 5.183594 -9.046875 L 1.199219 -9.046875 L 1.199219 -6.527344 L 5.160156 -6.527344 L 5.160156 -1.03125 C 4.078125 -0.910156 3.097656 -0.769531 2.230469 -0.671875 L 2.878906 1.945312 C 5.785156 1.511719 9.742188 0.910156 13.414062 0.3125 L 13.296875 -2.207031 C 11.566406 -1.945312 9.792969 -1.679688 8.113281 -1.441406 L 8.113281 -6.527344 L 10.871094 -6.527344 C 12.863281 -1.992188 16.054688 0.863281 21.480469 2.113281 C 21.863281 1.34375 22.679688 0.167969 23.28125 -0.457031 C 21.070312 -0.863281 19.222656 -1.558594 17.6875 -2.519531 C 19.128906 -3.289062 20.734375 -4.246094 22.105469 -5.230469 Z M 20.257812 -6.527344 "/></g></g></g><g fill="#000000" fill-opacity="1"><g transform="translate(762.878599, 311.307924)"><g><path d="M 20.59375 -16.367188 C 20.136719 -17.257812 19.296875 -18.792969 18.695312 -19.65625 L 16.800781 -18.886719 C 17.398438 -18.023438 18.070312 -16.753906 18.550781 -15.792969 L 18.382812 -15.886719 C 17.855469 -15.71875 17.039062 -15.601562 16.296875 -15.601562 L 11.472656 -15.601562 L 11.542969 -15.71875 C 11.832031 -16.246094 12.457031 -17.328125 13.03125 -18.167969 L 9.503906 -19.320312 C 9.289062 -18.503906 8.808594 -17.398438 8.425781 -16.800781 C 7.246094 -14.734375 5.160156 -11.640625 0.9375 -9.097656 L 3.625 -7.078125 C 6 -8.6875 8.089844 -10.800781 9.671875 -12.886719 L 16.441406 -12.886719 C 16.054688 -11.113281 14.664062 -8.207031 13.03125 -6.359375 C 10.921875 -3.960938 8.257812 -1.871094 3.359375 -0.40625 L 6.191406 2.136719 C 10.703125 0.335938 13.585938 -1.847656 15.863281 -4.65625 C 18.046875 -7.320312 19.414062 -10.511719 20.0625 -12.671875 C 20.257812 -13.246094 20.59375 -13.921875 20.855469 -14.375 L 18.816406 -15.625 Z M 19.632812 -19.96875 C 20.304688 -19.054688 21.070312 -17.664062 21.550781 -16.65625 L 23.472656 -17.472656 C 23.039062 -18.3125 22.152344 -19.847656 21.527344 -20.734375 Z M 19.632812 -19.96875 "/></g></g></g><g fill="#000000" fill-opacity="1"><g transform="translate(786.878643, 311.307924)"><g><path d="M 19.558594 -12.769531 C 19.222656 -12.625 18.574219 -12.527344 17.808594 -12.527344 L 5.929688 -12.527344 C 5.183594 -12.527344 4.152344 -12.574219 3.144531 -12.671875 L 3.144531 -9.550781 C 4.152344 -9.648438 5.351562 -9.671875 5.929688 -9.671875 L 17.519531 -9.671875 C 17.089844 -8.328125 16.34375 -6.839844 15.046875 -5.519531 C 13.222656 -3.648438 10.34375 -2.0625 6.71875 -1.320312 L 9.121094 1.390625 C 12.191406 0.527344 15.265625 -1.105469 17.6875 -3.792969 C 19.488281 -5.785156 20.519531 -8.113281 21.238281 -10.441406 C 21.335938 -10.703125 21.527344 -11.136719 21.695312 -11.449219 Z M 5.351562 -15.3125 C 6.046875 -15.359375 7.078125 -15.382812 7.847656 -15.382812 L 17.039062 -15.382812 C 17.902344 -15.382812 19.03125 -15.359375 19.679688 -15.3125 L 19.679688 -18.40625 C 19.007812 -18.3125 17.832031 -18.289062 17.089844 -18.289062 L 7.847656 -18.289062 C 7.03125 -18.289062 6.023438 -18.3125 5.351562 -18.40625 Z M 5.351562 -15.3125 "/></g></g></g><g fill="#000000" fill-opacity="1"><g transform="translate(810.878688, 311.307924)"><g><path d="M 18.984375 -17.496094 C 18.335938 -17.328125 17.566406 -17.304688 17.089844 -17.304688 L 6 -17.304688 C 5.207031 -17.304688 3.839844 -17.425781 3.121094 -17.496094 L 3.121094 -14.113281 C 3.742188 -14.160156 4.894531 -14.207031 5.976562 -14.207031 L 17.160156 -14.207031 C 16.847656 -12.167969 15.9375 -9.433594 14.351562 -7.441406 C 12.40625 -5.015625 9.695312 -2.929688 4.945312 -1.824219 L 7.558594 1.054688 C 11.832031 -0.3125 15.023438 -2.6875 17.207031 -5.566406 C 19.199219 -8.230469 20.257812 -11.953125 20.808594 -14.304688 C 20.929688 -14.832031 21.121094 -15.503906 21.335938 -15.984375 Z M 18.984375 -17.496094 "/></g></g></g><path stroke-linecap="butt" transform="matrix(0.75, 0.000000000000000149, -0.000000000000000149, 0.75, 327.188954, 262.198483)" fill="none" stroke-linejoin="miter" d="M -0.00193835 3.000981 L 1145.149161 3.000981 " stroke="#545454" stroke-width="6" stroke-opacity="1" stroke-miterlimit="4"/><g fill="#000000" fill-opacity="1"><g transform="translate(351.949441, 562.46296)"><g><path d="M 17.351562 -8.113281 L 3.601562 -8.113281 L 3.601562 -5.398438 L 15.910156 -5.398438 C 15 -3.3125 13.777344 -0.742188 12.71875 1.320312 L 15.742188 2.160156 C 17.230469 -0.886719 18.960938 -4.632812 20.136719 -7.558594 L 17.855469 -8.230469 Z M 7.679688 -13.03125 C 9.40625 -14.566406 10.871094 -16.199219 11.902344 -17.6875 C 12.960938 -16.199219 14.519531 -14.566406 16.273438 -13.03125 Z M 10.34375 -20.472656 C 8.542969 -17.496094 4.679688 -13.632812 0.625 -11.398438 C 1.246094 -10.800781 2.0625 -9.792969 2.425781 -9.121094 C 3.984375 -10.054688 5.496094 -11.136719 6.863281 -12.3125 L 6.863281 -10.390625 L 17.039062 -10.390625 L 17.039062 -12.382812 C 18.503906 -11.160156 20.0625 -10.054688 21.574219 -9.167969 C 22.105469 -10.03125 22.726562 -10.945312 23.449219 -11.664062 C 19.703125 -13.414062 15.769531 -16.800781 13.199219 -20.472656 Z M 10.34375 -20.472656 "/></g></g></g><g fill="#000000" fill-opacity="1"><g transform="translate(375.949485, 562.46296)"><g><path d="M 5.375 -20.304688 C 4.367188 -18.742188 2.375 -16.753906 0.671875 -15.550781 C 1.105469 -15.046875 1.800781 -14.039062 2.160156 -13.464844 C 4.152344 -14.929688 6.382812 -17.257812 7.894531 -19.320312 Z M 5.808594 -15.191406 C 4.558594 -12.863281 2.472656 -10.535156 0.457031 -9.023438 C 0.910156 -8.425781 1.679688 -6.984375 1.945312 -6.359375 C 2.566406 -6.886719 3.191406 -7.464844 3.816406 -8.136719 L 3.816406 2.136719 L 6.480469 2.136719 L 6.480469 -11.351562 C 7.152344 -12.3125 7.777344 -13.296875 8.304688 -14.257812 Z M 12.816406 -5.785156 L 17.472656 -5.785156 C 16.847656 -4.894531 16.078125 -4.128906 15.167969 -3.433594 C 14.230469 -4.128906 13.414062 -4.894531 12.792969 -5.761719 Z M 19.414062 -8.015625 L 18.960938 -7.921875 L 14.617188 -7.921875 C 14.953125 -8.375 15.265625 -8.855469 15.550781 -9.335938 C 17.113281 -9.382812 18.742188 -9.433594 20.328125 -9.503906 C 20.664062 -8.929688 20.929688 -8.375 21.121094 -7.921875 L 23.519531 -9.265625 C 22.847656 -10.800781 21.265625 -12.960938 19.871094 -14.519531 L 17.664062 -13.296875 C 18.070312 -12.816406 18.480469 -12.3125 18.863281 -11.761719 L 14.566406 -11.6875 C 16.585938 -13.390625 18.71875 -15.433594 20.449219 -17.257812 L 17.929688 -18.648438 C 16.894531 -17.328125 15.527344 -15.816406 14.0625 -14.398438 C 13.679688 -14.785156 13.199219 -15.191406 12.695312 -15.601562 C 13.703125 -16.609375 14.878906 -17.902344 15.910156 -19.152344 L 13.441406 -20.425781 C 12.816406 -19.34375 11.808594 -18.023438 10.871094 -16.945312 C 10.414062 -17.257812 9.960938 -17.542969 9.550781 -17.808594 L 7.847656 -15.960938 C 9.289062 -15.023438 10.96875 -13.679688 12.070312 -12.550781 C 11.734375 -12.238281 11.375 -11.929688 11.039062 -11.640625 C 9.671875 -11.617188 8.425781 -11.617188 7.34375 -11.617188 L 7.585938 -9.097656 L 12.382812 -9.238281 C 11.039062 -7.414062 9.070312 -5.832031 7.03125 -4.800781 C 7.585938 -4.296875 8.496094 -3.238281 8.878906 -2.6875 C 9.601562 -3.121094 10.320312 -3.625 11.039062 -4.175781 C 11.59375 -3.40625 12.238281 -2.710938 12.9375 -2.089844 C 11.183594 -1.199219 9.167969 -0.574219 7.03125 -0.214844 C 7.535156 0.359375 8.136719 1.488281 8.398438 2.207031 C 10.871094 1.65625 13.199219 0.816406 15.191406 -0.359375 C 17.0625 0.816406 19.273438 1.65625 21.816406 2.160156 C 22.175781 1.414062 22.921875 0.3125 23.519531 -0.289062 C 21.289062 -0.625 19.273438 -1.222656 17.542969 -2.039062 C 19.105469 -3.40625 20.375 -5.113281 21.191406 -7.222656 Z M 19.414062 -8.015625 "/></g></g></g><g fill="#000000" fill-opacity="1"><g transform="translate(399.94953, 562.46296)"><g><path d="M 14.566406 -17.183594 C 13.726562 -18.023438 12.265625 -19.273438 11.398438 -19.921875 L 9.214844 -18.382812 C 10.152344 -17.6875 11.472656 -16.390625 12.3125 -15.550781 Z M 3.070312 -16.585938 C 3.550781 -15.960938 4.128906 -15.097656 4.464844 -14.496094 C 4.824219 -13.871094 5.160156 -13.199219 5.519531 -12.480469 C 4.800781 -12.167969 4.078125 -11.855469 3.382812 -11.59375 C 3 -11.398438 1.945312 -11.039062 1.03125 -10.824219 L 2.425781 -7.777344 C 3.433594 -8.230469 4.945312 -9.046875 6.648438 -9.886719 L 7.273438 -8.425781 C 8.496094 -5.59375 9.71875 -1.535156 10.464844 1.441406 L 13.753906 0.601562 C 12.9375 -2.0625 11.113281 -7.152344 10.007812 -9.742188 L 9.335938 -11.207031 C 11.878906 -12.382812 14.472656 -13.367188 16.320312 -13.367188 C 18.121094 -13.367188 19.152344 -12.382812 19.152344 -11.160156 C 19.152344 -9.457031 17.878906 -8.496094 16.054688 -8.496094 C 15.046875 -8.496094 13.847656 -8.832031 12.792969 -9.289062 L 12.71875 -6.3125 C 13.609375 -5.976562 15.097656 -5.640625 16.367188 -5.640625 C 20.015625 -5.640625 22.296875 -7.726562 22.296875 -11.0625 C 22.296875 -13.824219 20.089844 -16.054688 16.390625 -16.054688 C 13.96875 -16.054688 11.089844 -14.929688 8.207031 -13.65625 C 7.847656 -14.449219 7.464844 -15.214844 7.105469 -15.910156 C 6.839844 -16.34375 6.359375 -17.328125 6.144531 -17.761719 Z M 3.070312 -16.585938 "/></g></g></g><g fill="#000000" fill-opacity="1"><g transform="translate(423.949574, 562.46296)"><g><path d="M 3.527344 -10.199219 L 4.753906 -7.078125 C 6.792969 -7.945312 11.519531 -9.910156 14.28125 -9.910156 C 16.34375 -9.910156 17.6875 -8.664062 17.6875 -6.886719 C 17.6875 -3.648438 13.65625 -2.230469 8.257812 -2.089844 L 9.503906 0.863281 C 17.0625 0.40625 20.832031 -2.542969 20.832031 -6.839844 C 20.832031 -10.441406 18.3125 -12.671875 14.566406 -12.671875 C 11.6875 -12.671875 7.65625 -11.304688 6.046875 -10.824219 C 5.328125 -10.585938 4.222656 -10.320312 3.527344 -10.199219 Z M 3.527344 -10.199219 "/></g></g></g><g fill="#000000" fill-opacity="1"><g transform="translate(447.949619, 562.46296)"><g><path d="M 1.824219 -16.464844 L 2.113281 -13.199219 C 4.871094 -13.800781 9.886719 -14.328125 11.929688 -14.542969 C 10.34375 -13.34375 8.425781 -10.65625 8.425781 -7.222656 C 8.425781 -2.089844 13.128906 0.601562 18.121094 0.9375 L 19.222656 -2.351562 C 15.214844 -2.566406 11.542969 -3.960938 11.542969 -7.871094 C 11.542969 -10.679688 13.703125 -13.753906 16.558594 -14.519531 C 17.832031 -14.808594 19.871094 -14.832031 21.144531 -14.832031 L 21.121094 -17.902344 C 19.464844 -17.832031 16.847656 -17.6875 14.398438 -17.496094 C 10.054688 -17.113281 6.121094 -16.777344 4.152344 -16.585938 C 3.671875 -16.535156 2.761719 -16.488281 1.824219 -16.464844 Z M 1.824219 -16.464844 "/></g></g></g><g fill="#000000" fill-opacity="1"><g transform="translate(471.949663, 562.46296)"><g><path d="M 6.289062 -17.089844 L 2.640625 -17.136719 C 2.785156 -16.414062 2.808594 -15.40625 2.808594 -14.734375 C 2.808594 -13.273438 2.855469 -10.511719 3.070312 -8.328125 C 3.742188 -1.945312 6.023438 0.40625 8.617188 0.40625 C 10.535156 0.40625 12.023438 -1.054688 13.609375 -5.183594 L 11.207031 -8.0625 C 10.753906 -6.191406 9.816406 -3.40625 8.6875 -3.40625 C 7.199219 -3.40625 6.480469 -5.734375 6.144531 -9.167969 C 6 -10.871094 5.976562 -12.671875 6 -14.207031 C 6 -14.855469 6.121094 -16.246094 6.289062 -17.089844 Z M 18.167969 -16.585938 L 15.144531 -15.574219 C 17.734375 -12.648438 19.007812 -7.054688 19.367188 -3.238281 L 22.511719 -4.441406 C 22.246094 -8.089844 20.425781 -13.824219 18.167969 -16.585938 Z M 18.167969 -16.585938 "/></g></g></g><g fill="#000000" fill-opacity="1"><g transform="translate(495.949708, 562.46296)"><g><path d="M 4.585938 -6.742188 C 4.320312 -5.855469 4.007812 -4.585938 4.007812 -3.503906 C 4.007812 -0.214844 6.742188 1.296875 11.183594 1.296875 C 13.558594 1.296875 15.984375 1.054688 17.304688 0.839844 L 17.398438 -2.207031 C 15.71875 -1.871094 13.367188 -1.679688 11.113281 -1.679688 C 8.015625 -1.679688 6.960938 -2.6875 6.960938 -4.175781 C 6.960938 -4.753906 7.222656 -5.761719 7.535156 -6.480469 Z M 20.28125 -13.632812 C 19.222656 -13.222656 17.855469 -12.816406 16.03125 -12.457031 L 15.480469 -13.65625 L 15.023438 -14.6875 C 16.585938 -14.953125 17.878906 -15.289062 19.105469 -15.648438 L 18.601562 -18.3125 C 17.183594 -17.832031 15.648438 -17.472656 14.039062 -17.207031 C 13.726562 -18.046875 13.464844 -18.863281 13.296875 -19.585938 L 9.910156 -18.9375 C 10.320312 -18.289062 10.632812 -17.761719 11.0625 -16.894531 L 11.0625 -16.871094 C 8.953125 -16.753906 6.574219 -16.847656 3.863281 -17.136719 L 4.007812 -14.425781 C 6.886719 -14.136719 9.863281 -14.136719 12.191406 -14.328125 L 12.769531 -12.984375 L 13.175781 -12.046875 C 10.488281 -11.761719 7.246094 -11.761719 3.695312 -12.097656 L 3.816406 -9.359375 C 7.414062 -9.097656 11.28125 -9.167969 14.257812 -9.503906 L 15.335938 -7.03125 C 14.6875 -7.105469 13.753906 -7.175781 12.816406 -7.296875 L 12.550781 -5.015625 C 14.136719 -4.824219 16.414062 -4.464844 17.734375 -4.222656 L 19.152344 -6.023438 C 18.457031 -7.320312 17.785156 -8.710938 17.183594 -9.984375 C 18.574219 -10.273438 19.871094 -10.585938 20.855469 -10.945312 Z M 20.28125 -13.632812 "/></g></g></g><g fill="#000000" fill-opacity="1"><g transform="translate(519.949752, 562.46296)"><g><path d="M 12.792969 -9.097656 C 14.28125 -9.289062 15.71875 -9.359375 17.375 -9.359375 C 18.816406 -9.359375 20.28125 -9.214844 21.457031 -9.070312 L 21.527344 -11.929688 C 20.136719 -12.070312 18.695312 -12.144531 17.351562 -12.144531 C 15.816406 -12.144531 14.113281 -12.023438 12.792969 -11.902344 Z M 14.664062 -16.726562 C 13.367188 -16.414062 12.023438 -16.152344 10.679688 -15.9375 L 10.871094 -16.847656 C 10.992188 -17.375 11.207031 -18.433594 11.375 -19.078125 L 7.753906 -19.367188 C 7.800781 -18.816406 7.777344 -17.855469 7.65625 -16.96875 C 7.609375 -16.585938 7.535156 -16.128906 7.441406 -15.601562 C 6.71875 -15.550781 6.023438 -15.527344 5.328125 -15.527344 C 4.34375 -15.527344 3.550781 -15.574219 2.328125 -15.71875 L 2.398438 -12.742188 C 3.238281 -12.695312 4.128906 -12.648438 5.28125 -12.648438 C 5.761719 -12.648438 6.289062 -12.671875 6.839844 -12.695312 C 6.671875 -12.023438 6.503906 -11.351562 6.335938 -10.726562 C 5.449219 -7.390625 3.648438 -2.398438 2.230469 -0.0234375 L 5.566406 1.078125 C 6.863281 -1.703125 8.472656 -6.574219 9.335938 -9.910156 C 9.601562 -10.871094 9.839844 -11.929688 10.054688 -12.960938 C 11.640625 -13.152344 13.246094 -13.414062 14.664062 -13.726562 Z M 11.328125 -6.191406 C 11.136719 -5.257812 10.921875 -4.105469 10.921875 -3.023438 C 10.921875 -0.625 12.960938 0.769531 16.96875 0.769531 C 18.863281 0.769531 20.472656 0.601562 21.816406 0.433594 L 21.9375 -2.617188 C 20.230469 -2.304688 18.574219 -2.136719 16.992188 -2.136719 C 14.449219 -2.136719 13.847656 -2.902344 13.847656 -3.9375 C 13.847656 -4.464844 13.992188 -5.257812 14.183594 -5.929688 Z M 11.328125 -6.191406 "/></g></g></g><g fill="#000000" fill-opacity="1"><g transform="translate(543.949797, 562.46296)"><g><path d="M 6.289062 -17.089844 L 2.640625 -17.136719 C 2.785156 -16.414062 2.808594 -15.40625 2.808594 -14.734375 C 2.808594 -13.273438 2.855469 -10.511719 3.070312 -8.328125 C 3.742188 -1.945312 6.023438 0.40625 8.617188 0.40625 C 10.535156 0.40625 12.023438 -1.054688 13.609375 -5.183594 L 11.207031 -8.0625 C 10.753906 -6.191406 9.816406 -3.40625 8.6875 -3.40625 C 7.199219 -3.40625 6.480469 -5.734375 6.144531 -9.167969 C 6 -10.871094 5.976562 -12.671875 6 -14.207031 C 6 -14.855469 6.121094 -16.246094 6.289062 -17.089844 Z M 18.167969 -16.585938 L 15.144531 -15.574219 C 17.734375 -12.648438 19.007812 -7.054688 19.367188 -3.238281 L 22.511719 -4.441406 C 22.246094 -8.089844 20.425781 -13.824219 18.167969 -16.585938 Z M 18.167969 -16.585938 "/></g></g></g><g fill="#000000" fill-opacity="1"><g transform="translate(567.949841, 562.46296)"><g><path d="M 5.28125 -14.230469 C 7.222656 -14.089844 9.289062 -13.96875 11.785156 -13.96875 C 14.039062 -13.96875 16.992188 -14.136719 18.648438 -14.257812 L 18.648438 -17.449219 C 16.824219 -17.257812 14.113281 -17.113281 11.761719 -17.113281 C 9.265625 -17.113281 7.054688 -17.207031 5.28125 -17.398438 Z M 4.175781 -7.609375 C 3.984375 -6.71875 3.695312 -5.566406 3.695312 -4.175781 C 3.695312 -0.910156 6.433594 0.910156 11.878906 0.910156 C 15.214844 0.910156 18.070312 0.601562 20.136719 0.0976562 L 20.113281 -3.238281 C 18 -2.664062 14.976562 -2.304688 11.761719 -2.304688 C 8.328125 -2.304688 6.886719 -3.40625 6.886719 -4.921875 C 6.886719 -5.710938 7.078125 -6.457031 7.296875 -7.320312 Z M 4.175781 -7.609375 "/></g></g></g><g fill="#000000" fill-opacity="1"><g transform="translate(591.949886, 562.46296)"><g><path d="M 17.785156 -16.726562 C 17.183594 -16.222656 16.488281 -15.816406 15.601562 -15.289062 C 14.472656 -14.664062 12.40625 -13.609375 10.464844 -12.480469 C 9.503906 -14.304688 8.398438 -16.585938 7.488281 -19.054688 L 4.488281 -17.832031 C 5.566406 -15.3125 6.71875 -12.792969 7.824219 -10.753906 C 5.542969 -9.070312 3.886719 -7.128906 3.886719 -4.488281 C 3.886719 -0.40625 7.464844 0.910156 12.191406 0.910156 C 15.289062 0.910156 17.808594 0.671875 19.824219 0.335938 L 19.871094 -3.097656 C 17.761719 -2.617188 14.542969 -2.230469 12.097656 -2.230469 C 8.808594 -2.230469 7.152344 -3.144531 7.152344 -4.847656 C 7.152344 -6.503906 8.472656 -7.871094 10.464844 -9.167969 C 12.625 -10.558594 15.601562 -11.953125 17.089844 -12.695312 C 17.953125 -13.128906 18.71875 -13.535156 19.441406 -13.96875 Z M 17.785156 -16.726562 "/></g></g></g><path stroke-linecap="round" transform="matrix(0.75, 0, 0, 0.75, 426.475377, 608.042269)" fill="none" stroke-linejoin="miter" d="M 1.501581 1.500933 L 781.06412 1.500933 " stroke="#100f0d" stroke-width="3" stroke-opacity="1" stroke-miterlimit="4"/><g fill="#000000" fill-opacity="1"><g transform="translate(349.13246, 438.547294)"><g><path d="M 10.726562 -9.457031 C 11.640625 -9.742188 12.742188 -9.960938 13.992188 -9.984375 C 13.199219 -8.0625 12.144531 -6.625 10.992188 -5.472656 C 10.824219 -6.648438 10.726562 -7.945312 10.726562 -9.40625 Z M 6.191406 -2.6875 C 5.425781 -2.6875 5.089844 -3.097656 5.089844 -3.839844 C 5.089844 -5.183594 6.289062 -7.007812 8.0625 -8.207031 C 8.113281 -6.574219 8.304688 -4.945312 8.566406 -3.457031 C 7.679688 -2.953125 6.863281 -2.6875 6.191406 -2.6875 Z M 15 -13.824219 C 14.976562 -13.488281 14.878906 -12.886719 14.785156 -12.40625 L 14.375 -12.40625 C 13.199219 -12.40625 11.953125 -12.238281 10.824219 -11.976562 C 10.847656 -12.695312 10.921875 -13.414062 10.992188 -14.113281 C 13.921875 -14.257812 17.113281 -14.542969 19.441406 -14.976562 L 19.414062 -17.710938 C 16.800781 -17.089844 14.230469 -16.800781 11.351562 -16.703125 C 11.425781 -17.160156 11.496094 -17.59375 11.59375 -17.976562 C 11.664062 -18.335938 11.761719 -18.769531 11.929688 -19.246094 L 8.808594 -19.320312 C 8.832031 -18.910156 8.785156 -18.335938 8.734375 -17.902344 L 8.59375 -16.632812 L 7.679688 -16.632812 C 6.214844 -16.632812 4.128906 -16.824219 3.289062 -16.945312 L 3.382812 -14.183594 C 4.488281 -14.136719 6.335938 -14.039062 7.585938 -14.039062 L 8.351562 -14.039062 C 8.257812 -13.078125 8.183594 -12.070312 8.113281 -11.0625 C 4.800781 -9.503906 2.28125 -6.289062 2.28125 -3.265625 C 2.28125 -0.839844 3.742188 0.214844 5.496094 0.214844 C 6.742188 0.214844 8.015625 -0.167969 9.167969 -0.742188 C 9.265625 -0.40625 9.382812 -0.0703125 9.480469 0.214844 L 12.214844 -0.601562 C 12.023438 -1.175781 11.832031 -1.753906 11.664062 -2.375 C 13.464844 -3.863281 15.359375 -6.335938 16.679688 -9.574219 C 18.289062 -8.953125 19.128906 -7.679688 19.128906 -6.238281 C 19.128906 -3.910156 17.257812 -1.609375 12.671875 -1.105469 L 14.257812 1.390625 C 20.089844 0.527344 22.078125 -2.761719 22.078125 -6.097656 C 22.078125 -8.878906 20.257812 -11.015625 17.496094 -11.929688 C 17.640625 -12.382812 17.808594 -12.886719 17.929688 -13.152344 Z M 15 -13.824219 "/></g></g></g><g fill="#000000" fill-opacity="1"><g transform="translate(373.132504, 438.547294)"><g><path d="M 22.65625 -13.105469 C 21.457031 -13.96875 18.503906 -15.574219 16.800781 -16.320312 L 15.265625 -13.96875 C 16.894531 -13.246094 19.609375 -11.6875 20.976562 -10.585938 Z M 13.703125 -16.753906 C 12.769531 -16.464844 11.664062 -16.199219 10.511719 -16.007812 C 10.847656 -17.28125 11.136719 -18.480469 11.328125 -19.246094 L 8.039062 -19.585938 C 7.992188 -18.359375 7.726562 -16.921875 7.390625 -15.601562 C 6.671875 -15.550781 5.953125 -15.527344 5.257812 -15.527344 C 4.390625 -15.527344 3.121094 -15.574219 2.089844 -15.695312 L 2.304688 -12.910156 C 3.335938 -12.863281 4.296875 -12.839844 5.28125 -12.839844 C 5.6875 -12.839844 6.097656 -12.839844 6.503906 -12.863281 C 5.449219 -10.296875 3.574219 -6.792969 1.65625 -4.464844 L 4.558594 -3 C 6.480469 -5.710938 8.519531 -9.839844 9.648438 -13.175781 C 11.230469 -13.390625 12.695312 -13.703125 13.777344 -13.992188 Z M 14.28125 -3.527344 C 14.28125 -2.257812 13.753906 -1.320312 12.144531 -1.320312 C 10.847656 -1.320312 10.105469 -1.921875 10.105469 -2.808594 C 10.105469 -3.648438 10.992188 -4.222656 12.359375 -4.222656 C 13.03125 -4.222656 13.65625 -4.128906 14.28125 -3.984375 Z M 13.894531 -11.855469 C 13.96875 -10.414062 14.089844 -8.328125 14.160156 -6.550781 C 13.65625 -6.601562 13.105469 -6.648438 12.550781 -6.648438 C 9.238281 -6.648438 7.296875 -4.847656 7.296875 -2.519531 C 7.296875 0.0976562 9.625 1.414062 12.574219 1.414062 C 15.960938 1.414062 17.160156 -0.3125 17.160156 -2.519531 L 17.160156 -2.734375 C 18.457031 -1.945312 19.535156 -0.984375 20.375 -0.214844 L 21.960938 -2.761719 C 20.761719 -3.839844 19.078125 -5.039062 17.039062 -5.808594 C 16.96875 -6.984375 16.921875 -8.136719 16.894531 -8.808594 C 16.871094 -9.863281 16.824219 -10.847656 16.894531 -11.855469 Z M 13.894531 -11.855469 "/></g></g></g><g fill="#000000" fill-opacity="1"><g transform="translate(397.132549, 438.547294)"><g><path d="M 12.792969 -9.097656 C 14.28125 -9.289062 15.71875 -9.359375 17.375 -9.359375 C 18.816406 -9.359375 20.28125 -9.214844 21.457031 -9.070312 L 21.527344 -11.929688 C 20.136719 -12.070312 18.695312 -12.144531 17.351562 -12.144531 C 15.816406 -12.144531 14.113281 -12.023438 12.792969 -11.902344 Z M 14.664062 -16.726562 C 13.367188 -16.414062 12.023438 -16.152344 10.679688 -15.9375 L 10.871094 -16.847656 C 10.992188 -17.375 11.207031 -18.433594 11.375 -19.078125 L 7.753906 -19.367188 C 7.800781 -18.816406 7.777344 -17.855469 7.65625 -16.96875 C 7.609375 -16.585938 7.535156 -16.128906 7.441406 -15.601562 C 6.71875 -15.550781 6.023438 -15.527344 5.328125 -15.527344 C 4.34375 -15.527344 3.550781 -15.574219 2.328125 -15.71875 L 2.398438 -12.742188 C 3.238281 -12.695312 4.128906 -12.648438 5.28125 -12.648438 C 5.761719 -12.648438 6.289062 -12.671875 6.839844 -12.695312 C 6.671875 -12.023438 6.503906 -11.351562 6.335938 -10.726562 C 5.449219 -7.390625 3.648438 -2.398438 2.230469 -0.0234375 L 5.566406 1.078125 C 6.863281 -1.703125 8.472656 -6.574219 9.335938 -9.910156 C 9.601562 -10.871094 9.839844 -11.929688 10.054688 -12.960938 C 11.640625 -13.152344 13.246094 -13.414062 14.664062 -13.726562 Z M 11.328125 -6.191406 C 11.136719 -5.257812 10.921875 -4.105469 10.921875 -3.023438 C 10.921875 -0.625 12.960938 0.769531 16.96875 0.769531 C 18.863281 0.769531 20.472656 0.601562 21.816406 0.433594 L 21.9375 -2.617188 C 20.230469 -2.304688 18.574219 -2.136719 16.992188 -2.136719 C 14.449219 -2.136719 13.847656 -2.902344 13.847656 -3.9375 C 13.847656 -4.464844 13.992188 -5.257812 14.183594 -5.929688 Z M 11.328125 -6.191406 "/></g></g></g><g fill="#000000" fill-opacity="1"><g transform="translate(421.132593, 438.547294)"><g><path d="M 6.550781 -4.320312 C 5.664062 -4.320312 4.703125 -5.496094 4.703125 -7.894531 C 4.703125 -10.511719 6.792969 -13.96875 10.726562 -14.785156 C 10.441406 -12.816406 10.007812 -10.777344 9.457031 -9.023438 C 8.496094 -5.808594 7.535156 -4.320312 6.550781 -4.320312 Z M 13.078125 0.984375 C 19.078125 0.0703125 22.152344 -3.480469 22.152344 -8.472656 C 22.152344 -13.65625 18.433594 -17.761719 12.550781 -17.761719 C 6.382812 -17.761719 1.609375 -13.054688 1.609375 -7.585938 C 1.609375 -3.574219 3.839844 -0.671875 6.457031 -0.671875 C 9.046875 -0.671875 11.113281 -3.601562 12.527344 -8.398438 C 13.199219 -10.632812 13.609375 -12.839844 13.945312 -14.855469 C 17.136719 -14.304688 18.910156 -11.855469 18.910156 -8.566406 C 18.910156 -5.113281 16.558594 -2.929688 13.511719 -2.207031 C 12.886719 -2.0625 12.214844 -1.945312 11.304688 -1.824219 Z M 13.078125 0.984375 "/></g></g></g><g fill="#000000" fill-opacity="1"><g transform="translate(445.132638, 438.547294)"><g><path d="M 18.046875 -17.734375 C 17.566406 -17.566406 16.609375 -17.425781 15.550781 -17.425781 L 7.105469 -17.425781 C 6.382812 -17.425781 4.921875 -17.496094 4.273438 -17.59375 L 4.273438 -14.183594 C 4.777344 -14.207031 6.097656 -14.351562 7.105469 -14.351562 L 15.238281 -14.351562 C 14.710938 -12.648438 13.246094 -10.273438 11.664062 -8.472656 C 9.40625 -5.953125 5.6875 -3.046875 1.824219 -1.585938 L 4.296875 1.007812 C 7.585938 -0.550781 10.777344 -3.046875 13.320312 -5.734375 C 15.574219 -3.550781 17.808594 -1.105469 19.367188 1.054688 L 22.105469 -1.320312 C 20.6875 -3.046875 17.785156 -6.121094 15.40625 -8.183594 C 17.015625 -10.34375 18.359375 -12.910156 19.175781 -14.785156 C 19.390625 -15.265625 19.824219 -16.007812 20.015625 -16.273438 Z M 18.046875 -17.734375 "/></g></g></g><g fill="#000000" fill-opacity="1"><g transform="translate(469.132683, 438.547294)"><g><path d="M 21.238281 -10.175781 C 20.617188 -9.984375 19.726562 -9.792969 18.792969 -9.601562 C 17.710938 -9.382812 15.742188 -9.070312 13.585938 -8.710938 L 12.839844 -12.527344 L 17.640625 -13.296875 C 18.359375 -13.390625 19.320312 -13.535156 19.847656 -13.585938 L 19.273438 -16.726562 C 18.695312 -16.558594 17.785156 -16.367188 17.015625 -16.222656 C 16.152344 -16.054688 14.328125 -15.769531 12.289062 -15.433594 C 12.097656 -16.511719 11.953125 -17.304688 11.902344 -17.640625 C 11.785156 -18.214844 11.710938 -19.03125 11.640625 -19.511719 L 8.257812 -18.960938 C 8.425781 -18.382812 8.59375 -17.808594 8.734375 -17.136719 C 8.808594 -16.753906 8.976562 -15.960938 9.167969 -14.953125 C 7.105469 -14.617188 5.257812 -14.351562 4.414062 -14.257812 C 3.671875 -14.160156 2.953125 -14.113281 2.183594 -14.089844 L 2.832031 -10.777344 C 3.550781 -10.96875 4.199219 -11.113281 5.039062 -11.28125 C 5.785156 -11.398438 7.632812 -11.710938 9.742188 -12.046875 L 10.464844 -8.207031 C 8.039062 -7.824219 5.808594 -7.464844 4.703125 -7.296875 C 3.9375 -7.199219 2.855469 -7.054688 2.207031 -7.03125 L 2.878906 -3.816406 C 3.433594 -3.960938 4.246094 -4.128906 5.28125 -4.320312 C 6.3125 -4.511719 8.566406 -4.894531 11.015625 -5.304688 C 11.398438 -3.289062 11.710938 -1.632812 11.832031 -0.9375 C 11.976562 -0.238281 12.046875 0.574219 12.167969 1.488281 L 15.625 0.863281 C 15.40625 0.0976562 15.167969 -0.769531 15 -1.488281 C 14.855469 -2.230469 14.519531 -3.839844 14.136719 -5.808594 C 16.246094 -6.144531 18.191406 -6.457031 19.34375 -6.648438 C 20.257812 -6.792969 21.238281 -6.960938 21.863281 -7.007812 Z M 21.238281 -10.175781 "/></g></g></g><g fill="#000000" fill-opacity="1"><g transform="translate(493.132727, 438.547294)"><g><path d="M 3.886719 1.054688 C 5.953125 -0.769531 7.441406 -3.121094 8.160156 -5.832031 C 8.808594 -8.257812 8.878906 -13.320312 8.878906 -16.152344 C 8.878906 -17.136719 9.023438 -18.214844 9.046875 -18.3125 L 5.519531 -18.3125 C 5.664062 -17.734375 5.734375 -17.089844 5.734375 -16.128906 C 5.734375 -13.222656 5.710938 -8.6875 5.039062 -6.625 C 4.367188 -4.585938 3.070312 -2.375 0.960938 -0.886719 Z M 14.0625 1.128906 C 14.375 0.886719 14.617188 0.671875 15.121094 0.40625 C 17.808594 -0.960938 21.265625 -3.550781 23.257812 -6.144531 L 21.40625 -8.785156 C 19.800781 -6.457031 17.425781 -4.558594 15.480469 -3.71875 L 15.480469 -16.273438 C 15.480469 -17.351562 15.625 -18.289062 15.648438 -18.359375 L 12.070312 -18.359375 C 12.097656 -18.289062 12.265625 -17.375 12.265625 -16.296875 L 12.265625 -2.304688 C 12.265625 -1.65625 12.167969 -0.984375 12.070312 -0.527344 Z M 14.0625 1.128906 "/></g></g></g><g fill="#000000" fill-opacity="1"><g transform="translate(917.525168, 471.806492)"><g><path d="M 14.632812 -4.464844 C 14.363281 -3.871094 14.003906 -3.328125 13.589844 -2.824219 C 13.445312 -3.3125 13.300781 -3.871094 13.175781 -4.464844 Z M 6.355469 -6.121094 C 5.921875 -6.875 5.058594 -8.261719 4.679688 -8.820312 L 4.679688 -9.59375 L 6.316406 -9.59375 L 6.316406 -11.503906 C 6.804688 -11.089844 7.308594 -10.585938 7.648438 -10.171875 C 7.289062 -9.59375 6.910156 -9.054688 6.570312 -8.585938 L 6.011719 -8.550781 L 6.300781 -6.964844 C 7.308594 -7.074219 8.425781 -7.21875 9.59375 -7.34375 C 9.628906 -7.144531 9.648438 -6.964844 9.664062 -6.804688 L 10.890625 -7.289062 C 10.945312 -6.894531 10.996094 -6.496094 11.035156 -6.121094 Z M 8.929688 -9.59375 C 9.035156 -9.34375 9.125 -9.070312 9.214844 -8.785156 L 8.242188 -8.710938 C 9.019531 -9.71875 9.863281 -10.980469 10.585938 -12.097656 C 10.621094 -10.65625 10.710938 -9.269531 10.835938 -7.957031 C 10.691406 -8.585938 10.421875 -9.359375 10.132812 -9.972656 Z M 12.582031 -8.839844 C 12.511719 -9.738281 12.457031 -10.65625 12.4375 -11.628906 C 12.960938 -11.179688 13.5 -10.636719 13.878906 -10.171875 C 13.570312 -9.703125 13.265625 -9.253906 12.976562 -8.875 Z M 12.886719 -6.121094 C 12.796875 -6.660156 12.726562 -7.21875 12.671875 -7.8125 L 12.78125 -7.308594 C 13.285156 -7.363281 13.804688 -7.433594 14.363281 -7.488281 L 13.554688 -6.785156 C 13.84375 -6.589844 14.148438 -6.355469 14.417969 -6.121094 Z M 14.742188 -4.464844 L 17.261719 -4.464844 L 17.261719 -6.121094 L 15.894531 -6.121094 L 16.234375 -6.425781 C 15.949219 -6.769531 15.390625 -7.21875 14.867188 -7.558594 L 16.199219 -7.738281 C 16.273438 -7.488281 16.308594 -7.234375 16.34375 -7.039062 L 17.621094 -7.578125 C 17.515625 -8.28125 17.101562 -9.394531 16.6875 -10.242188 L 15.480469 -9.808594 C 15.589844 -9.574219 15.695312 -9.324219 15.785156 -9.070312 L 14.707031 -9 C 15.496094 -10.0625 16.363281 -11.375 17.082031 -12.511719 L 15.625 -13.230469 C 15.371094 -12.707031 15.046875 -12.097656 14.707031 -11.503906 C 14.5625 -11.644531 14.398438 -11.808594 14.238281 -11.96875 C 14.6875 -12.671875 15.210938 -13.644531 15.714844 -14.542969 L 14.113281 -15.15625 C 13.914062 -14.472656 13.570312 -13.570312 13.230469 -12.835938 L 12.941406 -13.050781 L 12.421875 -12.292969 C 12.402344 -13.246094 12.402344 -14.21875 12.421875 -15.226562 L 10.53125 -15.226562 C 10.53125 -14.347656 10.546875 -13.480469 10.566406 -12.636719 L 9.359375 -13.230469 C 9.109375 -12.691406 8.800781 -12.097656 8.441406 -11.484375 C 8.316406 -11.628906 8.152344 -11.789062 7.992188 -11.953125 C 8.425781 -12.671875 8.945312 -13.660156 9.449219 -14.527344 L 7.867188 -15.136719 C 7.667969 -14.472656 7.324219 -13.570312 6.984375 -12.816406 L 6.679688 -13.050781 L 5.886719 -11.878906 C 6.011719 -11.773438 6.15625 -11.664062 6.28125 -11.539062 L 4.679688 -11.539062 L 4.679688 -15.246094 L 2.773438 -15.246094 L 2.773438 -11.539062 L 0.847656 -11.539062 L 0.847656 -9.59375 L 2.628906 -9.59375 C 2.214844 -7.453125 1.367188 -4.949219 0.433594 -3.527344 C 0.71875 -3.042969 1.132812 -2.269531 1.332031 -1.710938 C 1.871094 -2.574219 2.359375 -3.78125 2.773438 -5.09375 L 2.773438 1.546875 L 4.679688 1.546875 L 4.679688 -6.371094 C 5.039062 -5.578125 5.398438 -4.753906 5.578125 -4.210938 L 6.300781 -5.273438 L 6.300781 -4.464844 L 7.414062 -4.464844 C 7.234375 -2.644531 6.785156 -0.9375 5.203125 0.125 C 5.632812 0.433594 6.175781 1.097656 6.40625 1.53125 C 7.6875 0.648438 8.386719 -0.558594 8.800781 -1.925781 C 9.359375 -1.492188 9.882812 -1.042969 10.1875 -0.703125 L 11.339844 -2.125 C 10.871094 -2.609375 9.988281 -3.257812 9.199219 -3.78125 C 9.234375 -3.996094 9.269531 -4.230469 9.289062 -4.464844 L 11.320312 -4.464844 C 11.539062 -3.3125 11.808594 -2.304688 12.148438 -1.441406 C 11.285156 -0.773438 10.277344 -0.234375 9.144531 0.179688 C 9.503906 0.523438 10.027344 1.152344 10.261719 1.546875 C 11.230469 1.171875 12.148438 0.703125 12.976562 0.125 C 13.625 1.042969 14.4375 1.566406 15.445312 1.566406 C 16.847656 1.566406 17.351562 1.027344 17.675781 -1.007812 C 17.261719 -1.207031 16.6875 -1.566406 16.289062 -1.980469 C 16.199219 -0.558594 16.039062 -0.214844 15.589844 -0.214844 C 15.136719 -0.214844 14.742188 -0.503906 14.382812 -1.042969 C 15.210938 -1.855469 15.894531 -2.789062 16.414062 -3.835938 Z M 14.742188 -4.464844 "/></g></g></g><g fill="#000000" fill-opacity="1"><g transform="translate(935.52511, 471.806492)"><g><path d="M 14.957031 -7.164062 C 16.613281 -7.164062 17.171875 -7.828125 17.40625 -10.132812 C 16.828125 -10.261719 15.949219 -10.601562 15.515625 -10.925781 C 15.445312 -9.359375 15.316406 -9.089844 14.742188 -9.089844 L 12.78125 -9.089844 C 12.097656 -9.089844 11.988281 -9.160156 11.988281 -9.808594 L 11.988281 -10.871094 C 13.554688 -11.339844 15.246094 -11.914062 16.597656 -12.5625 L 15.226562 -14.113281 C 14.382812 -13.644531 13.195312 -13.085938 11.988281 -12.617188 L 11.988281 -15.191406 L 9.863281 -15.191406 L 9.863281 -9.773438 C 9.863281 -7.792969 10.367188 -7.164062 12.472656 -7.164062 Z M 3.636719 -3.4375 L 3.636719 -4.5 L 6.335938 -4.5 L 6.335938 -3.4375 Z M 6.335938 -7.019531 L 6.335938 -6.085938 L 3.636719 -6.085938 L 3.636719 -7.019531 Z M 8.441406 -8.785156 L 1.65625 -8.785156 L 1.65625 1.546875 L 3.636719 1.546875 L 3.636719 -1.855469 L 6.335938 -1.855469 L 6.335938 -0.648438 C 6.335938 -0.433594 6.265625 -0.378906 6.046875 -0.378906 C 5.8125 -0.359375 5.09375 -0.34375 4.464844 -0.378906 C 4.734375 0.125 5.039062 0.953125 5.148438 1.511719 C 6.226562 1.511719 7.054688 1.492188 7.667969 1.152344 C 8.261719 0.847656 8.441406 0.324219 8.441406 -0.613281 Z M 5.742188 -13.375 C 6.03125 -12.90625 6.316406 -12.402344 6.589844 -11.898438 L 4.195312 -11.789062 C 4.644531 -12.742188 5.128906 -13.824219 5.542969 -14.867188 L 3.3125 -15.316406 C 3.007812 -14.21875 2.503906 -12.835938 1.996094 -11.699219 C 1.492188 -11.683594 1.027344 -11.664062 0.59375 -11.664062 L 0.773438 -9.628906 C 2.609375 -9.738281 5.058594 -9.882812 7.433594 -10.042969 C 7.578125 -9.703125 7.6875 -9.378906 7.757812 -9.089844 L 9.71875 -9.882812 C 9.378906 -11.050781 8.425781 -12.761719 7.542969 -14.058594 Z M 12.796875 -0.433594 C 12.097656 -0.433594 11.96875 -0.523438 11.96875 -1.152344 L 11.96875 -2.59375 C 13.609375 -3.097656 15.390625 -3.742188 16.777344 -4.5 L 15.355469 -6.066406 C 14.488281 -5.488281 13.246094 -4.894531 11.96875 -4.375 L 11.96875 -6.804688 L 9.863281 -6.804688 L 9.863281 -1.152344 C 9.863281 0.828125 10.386719 1.441406 12.492188 1.441406 L 15.046875 1.441406 C 16.777344 1.441406 17.316406 0.738281 17.550781 -1.800781 C 16.992188 -1.945312 16.128906 -2.269531 15.679688 -2.59375 C 15.589844 -0.773438 15.460938 -0.433594 14.851562 -0.433594 Z M 12.796875 -0.433594 "/></g></g></g><g fill="#000000" fill-opacity="1"><g transform="translate(953.525052, 471.806492)"><g><path d="M 14.164062 -12.292969 L 9.324219 -12.292969 L 9.324219 -13.195312 L 14.164062 -13.195312 Z M 14.164062 -9.988281 L 9.324219 -9.988281 L 9.324219 -10.90625 L 14.164062 -10.90625 Z M 16.21875 -14.6875 L 7.363281 -14.6875 L 7.363281 -8.476562 L 16.21875 -8.476562 Z M 6.445312 -5.707031 L 6.15625 -7.632812 L 4.535156 -7.199219 L 4.535156 -9.863281 L 6.335938 -9.863281 L 6.335938 -11.84375 L 4.535156 -11.84375 L 4.535156 -15.246094 L 2.59375 -15.246094 L 2.59375 -11.84375 L 0.648438 -11.84375 L 0.648438 -9.863281 L 2.59375 -9.863281 L 2.59375 -6.679688 C 1.78125 -6.480469 1.0625 -6.28125 0.449219 -6.15625 L 0.9375 -4.085938 C 1.457031 -4.230469 1.996094 -4.390625 2.59375 -4.554688 L 2.59375 -0.953125 C 2.59375 -0.71875 2.503906 -0.648438 2.285156 -0.648438 C 2.070312 -0.628906 1.457031 -0.628906 0.792969 -0.648438 C 1.0625 -0.0898438 1.296875 0.792969 1.351562 1.3125 C 2.503906 1.332031 3.292969 1.261719 3.835938 0.898438 C 4.375 0.574219 4.535156 0.0546875 4.535156 -0.9375 L 4.535156 -5.128906 Z M 12.726562 -2.664062 L 16.164062 -2.664062 L 16.164062 -4.339844 L 12.726562 -4.339844 L 12.726562 -5.921875 L 17.117188 -5.921875 L 17.117188 -7.648438 L 6.480469 -7.648438 L 6.480469 -5.921875 L 10.710938 -5.921875 L 10.710938 -1.222656 C 10.0625 -1.636719 9.539062 -2.285156 9.144531 -3.328125 C 9.289062 -3.886719 9.394531 -4.5 9.484375 -5.148438 L 7.542969 -5.382812 C 7.273438 -2.933594 6.535156 -0.9375 5.039062 0.253906 C 5.472656 0.523438 6.28125 1.1875 6.605469 1.53125 C 7.398438 0.792969 8.027344 -0.160156 8.496094 -1.296875 C 9.71875 0.882812 11.539062 1.3125 13.894531 1.3125 L 17.027344 1.3125 C 17.101562 0.773438 17.351562 -0.125 17.605469 -0.558594 C 16.828125 -0.539062 14.597656 -0.539062 13.984375 -0.539062 C 13.535156 -0.539062 13.140625 -0.558594 12.726562 -0.59375 Z M 12.726562 -2.664062 "/></g></g></g><g fill="#000000" fill-opacity="1"><g transform="translate(971.524994, 471.806492)"><g><path d="M 7.164062 -9.269531 L 11.375 -9.269531 C 11.070312 -8.746094 10.65625 -8.28125 10.027344 -7.902344 C 8.875 -8.191406 7.722656 -8.441406 6.679688 -8.640625 Z M 17.171875 -2.484375 L 17.171875 -4.246094 L 10.007812 -4.246094 L 10.007812 -5.472656 L 8.335938 -5.472656 C 9.109375 -5.652344 9.773438 -5.867188 10.351562 -6.121094 C 12.113281 -5.617188 13.734375 -5.074219 14.8125 -4.609375 L 16.09375 -6.121094 C 15.085938 -6.496094 13.753906 -6.910156 12.292969 -7.324219 C 12.90625 -7.867188 13.355469 -8.515625 13.679688 -9.269531 L 16.847656 -9.269531 L 16.847656 -10.945312 L 8.441406 -10.945312 C 8.65625 -11.230469 8.855469 -11.519531 9.054688 -11.789062 L 7.414062 -12.277344 L 14.652344 -12.277344 L 14.652344 -11.285156 L 16.722656 -11.285156 L 16.722656 -14.039062 L 10.0625 -14.039062 L 10.0625 -15.226562 L 7.921875 -15.226562 L 7.921875 -14.039062 L 1.3125 -14.039062 L 1.3125 -11.285156 L 3.292969 -11.285156 L 3.292969 -12.277344 L 6.984375 -12.277344 C 6.695312 -11.863281 6.355469 -11.410156 6.011719 -10.945312 L 1.1875 -10.945312 L 1.1875 -9.269531 L 4.734375 -9.269531 C 4.230469 -8.65625 3.761719 -8.082031 3.328125 -7.613281 L 5.363281 -7.054688 L 5.597656 -7.324219 C 6.136719 -7.21875 6.714844 -7.074219 7.289062 -6.949219 C 5.902344 -6.640625 4.085938 -6.445312 1.65625 -6.316406 C 1.925781 -5.902344 2.269531 -5.164062 2.359375 -4.660156 C 4.609375 -4.824219 6.425781 -5.039062 7.882812 -5.363281 L 7.882812 -4.246094 L 0.882812 -4.246094 L 0.882812 -2.484375 L 6.371094 -2.484375 C 4.84375 -1.511719 2.59375 -0.71875 0.433594 -0.34375 C 0.882812 0.0703125 1.457031 0.863281 1.746094 1.386719 C 3.976562 0.847656 6.226562 -0.199219 7.882812 -1.546875 L 7.882812 1.546875 L 10.007812 1.546875 L 10.007812 -1.65625 C 11.71875 -0.269531 14.039062 0.828125 16.289062 1.367188 C 16.597656 0.828125 17.191406 0 17.65625 -0.449219 C 15.480469 -0.792969 13.230469 -1.546875 11.644531 -2.484375 Z M 17.171875 -2.484375 "/></g></g></g><g fill="#000000" fill-opacity="1"><g transform="translate(754.608376, 472.59194)"><g><path d="M 6.085938 -6.425781 C 6.40625 -6.820312 6.695312 -7.234375 6.984375 -7.648438 L 11.285156 -7.648438 C 11.554688 -7.21875 11.84375 -6.804688 12.148438 -6.425781 Z M 9.757812 -10.78125 C 9.917969 -10.332031 10.097656 -9.898438 10.296875 -9.46875 L 8.011719 -9.46875 C 8.207031 -9.898438 8.40625 -10.332031 8.566406 -10.78125 Z M 17.011719 -7.648438 L 17.011719 -9.46875 L 12.511719 -9.46875 C 12.257812 -9.882812 12.023438 -10.332031 11.824219 -10.78125 L 15.964844 -10.78125 L 15.964844 -12.5625 L 13.699219 -12.5625 C 14.058594 -13.140625 14.472656 -13.824219 14.886719 -14.527344 L 12.636719 -15.136719 C 12.382812 -14.363281 11.914062 -13.339844 11.554688 -12.5625 L 9.125 -12.5625 C 9.34375 -13.390625 9.503906 -14.21875 9.628906 -15.066406 L 7.433594 -15.246094 C 7.34375 -14.347656 7.183594 -13.445312 6.929688 -12.5625 L 5.488281 -12.5625 L 6.066406 -12.78125 C 5.886719 -13.429688 5.347656 -14.382812 4.824219 -15.085938 L 2.96875 -14.453125 C 3.347656 -13.894531 3.726562 -13.15625 3.960938 -12.5625 L 2.070312 -12.5625 L 2.070312 -10.78125 L 6.316406 -10.78125 C 6.121094 -10.332031 5.902344 -9.898438 5.652344 -9.46875 L 0.953125 -9.46875 L 0.953125 -7.648438 L 4.390625 -7.648438 C 3.382812 -6.480469 2.089844 -5.4375 0.449219 -4.589844 C 0.953125 -4.265625 1.601562 -3.492188 1.871094 -2.953125 C 3.007812 -3.582031 3.996094 -4.320312 4.84375 -5.113281 L 4.84375 -4.769531 L 10.53125 -4.769531 L 10.53125 -3.582031 L 4.121094 -3.582031 L 4.121094 -1.027344 C 4.121094 0.9375 4.949219 1.476562 7.828125 1.476562 L 12.292969 1.476562 C 14.671875 1.476562 15.316406 0.882812 15.625 -1.691406 C 15.046875 -1.800781 14.128906 -2.105469 13.644531 -2.449219 C 13.519531 -0.683594 13.355469 -0.433594 12.167969 -0.433594 L 7.9375 -0.433594 C 6.496094 -0.433594 6.246094 -0.523438 6.246094 -1.078125 L 6.246094 -1.925781 L 12.671875 -1.925781 L 12.671875 -5.832031 C 13.609375 -4.804688 14.722656 -3.976562 16.003906 -3.367188 C 16.324219 -3.925781 16.972656 -4.734375 17.425781 -5.164062 C 16.054688 -5.722656 14.851562 -6.589844 13.878906 -7.648438 Z M 17.011719 -7.648438 "/></g></g></g><g fill="#000000" fill-opacity="1"><g transform="translate(772.608318, 472.59194)"><g><path d="M 3.4375 -5.058594 C 3.238281 -4.390625 3.007812 -3.4375 3.007812 -2.628906 C 3.007812 -0.160156 5.058594 0.972656 8.386719 0.972656 C 10.171875 0.972656 11.988281 0.792969 12.976562 0.628906 L 13.050781 -1.65625 C 11.789062 -1.402344 10.027344 -1.261719 8.335938 -1.261719 C 6.011719 -1.261719 5.21875 -2.015625 5.21875 -3.132812 C 5.21875 -3.5625 5.417969 -4.320312 5.652344 -4.859375 Z M 15.210938 -10.222656 C 14.417969 -9.917969 13.390625 -9.613281 12.023438 -9.34375 L 11.609375 -10.242188 L 11.269531 -11.015625 C 12.4375 -11.214844 13.410156 -11.464844 14.328125 -11.734375 L 13.949219 -13.734375 C 12.886719 -13.375 11.734375 -13.105469 10.53125 -12.90625 C 10.296875 -13.535156 10.097656 -14.148438 9.972656 -14.6875 L 7.433594 -14.203125 C 7.738281 -13.714844 7.972656 -13.320312 8.296875 -12.671875 L 8.296875 -12.652344 C 6.714844 -12.5625 4.933594 -12.636719 2.898438 -12.851562 L 3.007812 -10.816406 C 5.164062 -10.601562 7.398438 -10.601562 9.144531 -10.746094 L 9.574219 -9.738281 L 9.882812 -9.035156 C 7.867188 -8.820312 5.4375 -8.820312 2.773438 -9.070312 L 2.863281 -7.019531 C 5.5625 -6.820312 8.460938 -6.875 10.691406 -7.128906 L 11.503906 -5.273438 C 11.015625 -5.328125 10.3125 -5.382812 9.613281 -5.472656 L 9.414062 -3.761719 C 10.601562 -3.617188 12.3125 -3.347656 13.300781 -3.167969 L 14.363281 -4.519531 C 13.84375 -5.488281 13.339844 -6.535156 12.886719 -7.488281 C 13.933594 -7.703125 14.902344 -7.9375 15.640625 -8.207031 Z M 15.210938 -10.222656 "/></g></g></g><g fill="#000000" fill-opacity="1"><g transform="translate(790.60826, 472.59194)"><g><path d="M 9.917969 -10.765625 C 9.359375 -7.324219 7.972656 -4.644531 5.453125 -3.148438 C 5.957031 -2.773438 6.785156 -1.945312 7.109375 -1.53125 C 9.070312 -2.898438 10.441406 -4.878906 11.339844 -7.453125 C 12.132812 -4.933594 13.445312 -2.863281 15.660156 -1.546875 C 16.054688 -2.070312 16.828125 -2.824219 17.335938 -3.1875 C 13.589844 -5.058594 12.511719 -9.394531 12.238281 -14.488281 L 7.289062 -14.488281 L 7.289062 -12.472656 L 10.421875 -12.472656 C 10.476562 -11.863281 10.546875 -11.25 10.621094 -10.65625 Z M 5.453125 -12.113281 C 4.84375 -12.960938 3.527344 -14.074219 2.449219 -14.832031 L 0.863281 -13.535156 C 1.925781 -12.742188 3.203125 -11.554688 3.761719 -10.691406 Z M 5.003906 -8.261719 L 0.847656 -8.261719 L 0.847656 -6.300781 L 2.914062 -6.300781 L 2.914062 -2.503906 C 2.125 -1.890625 1.222656 -1.296875 0.46875 -0.847656 L 1.511719 1.386719 C 2.484375 0.628906 3.277344 -0.0703125 4.066406 -0.773438 C 5.238281 0.628906 6.714844 1.132812 8.929688 1.222656 C 11.070312 1.3125 14.6875 1.277344 16.847656 1.171875 C 16.957031 0.558594 17.28125 -0.484375 17.515625 -0.988281 C 15.121094 -0.808594 11.070312 -0.757812 8.964844 -0.847656 C 7.09375 -0.917969 5.742188 -1.402344 5.003906 -2.609375 Z M 5.003906 -8.261719 "/></g></g></g><g fill="#000000" fill-opacity="1"><g transform="translate(808.608203, 472.59194)"><g><path d="M 4.699219 -3.4375 C 4.375 -2.988281 4.121094 -2.824219 3.761719 -2.824219 C 3.402344 -2.824219 3.097656 -3.167969 3.097656 -3.671875 C 3.097656 -4.789062 4.175781 -5.992188 6.15625 -6.300781 C 5.652344 -5.203125 5.148438 -4.105469 4.699219 -3.4375 Z M 17.191406 -4.859375 C 16.667969 -5.203125 16.019531 -5.632812 15.28125 -6.046875 C 15.460938 -7.054688 15.550781 -8.171875 15.625 -9.359375 L 13.285156 -9.628906 C 13.355469 -9.054688 13.339844 -8.371094 13.300781 -7.6875 C 13.285156 -7.488281 13.265625 -7.289062 13.246094 -7.074219 C 12.097656 -7.578125 10.800781 -8.011719 9.414062 -8.226562 C 10.042969 -9.738281 10.691406 -11.285156 11.160156 -12.042969 C 11.304688 -12.292969 11.503906 -12.527344 11.753906 -12.796875 L 10.332031 -13.914062 C 10.027344 -13.789062 9.558594 -13.679688 9.125 -13.644531 C 8.296875 -13.570312 6.390625 -13.5 5.382812 -13.5 C 4.984375 -13.5 4.375 -13.519531 3.90625 -13.570312 L 3.996094 -11.269531 C 4.445312 -11.339844 5.074219 -11.410156 5.453125 -11.429688 C 6.265625 -11.484375 7.792969 -11.539062 8.496094 -11.554688 C 8.082031 -10.710938 7.578125 -9.503906 7.074219 -8.351562 C 3.492188 -8.191406 0.988281 -6.066406 0.988281 -3.3125 C 0.988281 -1.511719 2.160156 -0.433594 3.726562 -0.433594 C 4.949219 -0.433594 5.796875 -0.917969 6.496094 -1.996094 C 7.128906 -2.988281 7.902344 -4.753906 8.566406 -6.28125 C 10.078125 -6.066406 11.484375 -5.527344 12.742188 -4.84375 C 12.148438 -3.222656 10.90625 -1.511719 8.207031 -0.359375 L 10.117188 1.1875 C 12.492188 -0.0546875 13.84375 -1.621094 14.632812 -3.636719 C 15.175781 -3.238281 15.695312 -2.808594 16.164062 -2.394531 Z M 17.191406 -4.859375 "/></g></g></g><g fill="#000000" fill-opacity="1"><g transform="translate(826.608145, 472.59194)"><g><path d="M 9.179688 -11.503906 L 9.179688 -15.210938 L 6.894531 -15.210938 L 6.894531 -11.503906 L 1.386719 -11.503906 L 1.386719 -9.304688 L 6.804688 -9.304688 C 6.496094 -6.15625 5.292969 -2.519531 0.828125 -0.0898438 C 1.351562 0.304688 2.160156 1.117188 2.503906 1.65625 C 7.558594 -1.207031 8.820312 -5.578125 9.109375 -9.304688 L 14.148438 -9.304688 C 13.859375 -3.960938 13.5 -1.601562 12.960938 -1.042969 C 12.707031 -0.808594 12.492188 -0.757812 12.113281 -0.757812 C 11.644531 -0.757812 10.585938 -0.757812 9.449219 -0.847656 C 9.863281 -0.234375 10.152344 0.71875 10.1875 1.367188 C 11.285156 1.421875 12.402344 1.421875 13.066406 1.332031 C 13.84375 1.222656 14.363281 1.027344 14.902344 0.324219 C 15.695312 -0.613281 16.054688 -3.3125 16.414062 -10.476562 C 16.453125 -10.765625 16.46875 -11.503906 16.46875 -11.503906 Z M 9.179688 -11.503906 "/></g></g></g><g clip-path="url(#1025f1570a)"><g clip-path="url(#07da11963d)"><path fill="#f6f4e7" d="M 585.523438 433.097656 L 711.859375 433.097656 L 711.859375 496.265625 L 585.523438 496.265625 Z M 585.523438 433.097656 " fill-opacity="1" fill-rule="nonzero"/></g></g><g fill="#000000" fill-opacity="1"><g transform="translate(615.949439, 471.806492)"><g><path d="M 4.140625 -5.488281 L 4.535156 -6.949219 C 4.933594 -8.335938 5.328125 -9.847656 5.671875 -11.304688 L 5.742188 -11.304688 C 6.136719 -9.863281 6.496094 -8.335938 6.910156 -6.949219 L 7.308594 -5.488281 Z M 8.820312 0 L 11.609375 0 L 7.324219 -13.320312 L 4.195312 -13.320312 L -0.0703125 0 L 2.628906 0 L 3.5625 -3.421875 L 7.882812 -3.421875 Z M 8.820312 0 "/></g></g></g><g fill="#000000" fill-opacity="1"><g transform="translate(627.487406, 471.806492)"><g><path d="M 1.636719 0 L 4.300781 0 L 4.300781 -4.734375 L 6.085938 -4.734375 C 8.945312 -4.734375 11.230469 -6.101562 11.230469 -9.144531 C 11.230469 -12.292969 8.964844 -13.320312 6.011719 -13.320312 L 1.636719 -13.320312 Z M 4.300781 -6.839844 L 4.300781 -11.214844 L 5.8125 -11.214844 C 7.648438 -11.214844 8.621094 -10.691406 8.621094 -9.144531 C 8.621094 -7.613281 7.738281 -6.839844 5.902344 -6.839844 Z M 4.300781 -6.839844 "/></g></g></g><g fill="#000000" fill-opacity="1"><g transform="translate(639.493368, 471.806492)"><g><path d="M 1.636719 0 L 4.300781 0 L 4.300781 -13.320312 L 1.636719 -13.320312 Z M 1.636719 0 "/></g></g></g><g fill="#000000" fill-opacity="1"><g transform="translate(645.433355, 471.806492)"><g><path d="M 6.949219 -14.6875 L 1.511719 -14.6875 L 1.511719 -13.066406 L 6.949219 -13.066406 Z M 7.632812 -12.277344 L 0.59375 -12.277344 L 0.59375 -10.585938 L 7.632812 -10.585938 Z M 6.984375 -7.308594 L 1.441406 -7.308594 L 1.441406 -5.707031 L 6.984375 -5.707031 Z M 13.859375 -5.597656 C 13.429688 -4.679688 12.871094 -3.871094 12.167969 -3.167969 C 11.449219 -3.886719 10.855469 -4.699219 10.421875 -5.597656 Z M 5.113281 -1.0625 L 3.203125 -1.0625 L 3.203125 -3.132812 L 5.113281 -3.132812 Z M 15.210938 -7.613281 L 14.851562 -7.523438 L 8.515625 -7.523438 C 10.386719 -8.800781 10.746094 -10.855469 10.746094 -12.546875 L 10.746094 -12.851562 L 12.761719 -12.851562 L 12.761719 -10.675781 C 12.761719 -8.890625 13.175781 -8.335938 14.617188 -8.335938 L 15.660156 -8.335938 C 16.867188 -8.335938 17.335938 -8.964844 17.515625 -11.195312 C 16.992188 -11.339844 16.164062 -11.644531 15.769531 -11.953125 C 15.75 -10.386719 15.679688 -10.152344 15.445312 -10.152344 L 14.992188 -10.152344 C 14.796875 -10.152344 14.761719 -10.207031 14.761719 -10.710938 L 14.761719 -14.742188 L 8.730469 -14.742188 L 8.730469 -12.601562 C 8.730469 -11.394531 8.53125 -9.972656 6.984375 -8.910156 L 6.984375 -9.773438 L 1.441406 -9.773438 L 1.441406 -8.136719 L 6.984375 -8.136719 L 6.984375 -8.820312 C 7.414062 -8.53125 8.171875 -7.882812 8.476562 -7.523438 L 7.867188 -7.523438 L 7.867188 -5.597656 L 10.367188 -5.597656 L 8.53125 -5.003906 C 9.089844 -3.835938 9.773438 -2.789062 10.601562 -1.890625 C 9.539062 -1.1875 8.316406 -0.683594 6.964844 -0.34375 L 6.964844 -4.824219 L 1.386719 -4.824219 L 1.386719 1.3125 L 3.203125 1.3125 L 3.203125 0.613281 L 6.964844 0.613281 L 6.964844 -0.304688 C 7.363281 0.179688 7.867188 1.027344 8.082031 1.546875 C 9.613281 1.078125 10.996094 0.433594 12.203125 -0.414062 C 13.339844 0.433594 14.652344 1.097656 16.164062 1.546875 C 16.46875 0.988281 17.082031 0.144531 17.550781 -0.304688 C 16.164062 -0.648438 14.902344 -1.171875 13.84375 -1.855469 C 15.085938 -3.203125 16.039062 -4.914062 16.613281 -7.09375 Z M 15.210938 -7.613281 "/></g></g></g><g fill="#000000" fill-opacity="1"><g transform="translate(663.433297, 471.806492)"><g><path d="M 7.273438 -14.6875 L 1.566406 -14.6875 L 1.566406 -13.066406 L 7.273438 -13.066406 Z M 7.957031 -12.277344 L 0.59375 -12.277344 L 0.59375 -10.585938 L 7.957031 -10.585938 Z M 5.308594 -3.132812 L 5.308594 -1.0625 L 3.257812 -1.0625 L 3.257812 -3.132812 Z M 7.183594 -4.824219 L 1.402344 -4.824219 L 1.402344 1.3125 L 3.257812 1.3125 L 3.257812 0.613281 L 7.183594 0.613281 Z M 1.457031 -5.707031 L 7.234375 -5.707031 L 7.234375 -7.308594 L 1.457031 -7.308594 Z M 1.457031 -8.136719 L 7.234375 -8.136719 L 7.234375 -9.773438 L 1.457031 -9.773438 Z M 17.566406 -9.234375 L 13.804688 -9.234375 L 13.804688 -15.175781 L 11.644531 -15.175781 L 11.644531 -9.234375 L 7.882812 -9.234375 L 7.882812 -7.109375 L 11.644531 -7.109375 L 11.644531 1.566406 L 13.804688 1.566406 L 13.804688 -7.109375 L 17.566406 -7.109375 Z M 17.566406 -9.234375 "/></g></g></g><g clip-path="url(#fe9bb0f77d)"><path fill="#1b6bda" d="M 93.503906 716.496094 L 187.007812 809.996094 L 93.503906 809.996094 " fill-opacity="1" fill-rule="nonzero"/></g><g clip-path="url(#89c03931f3)"><path fill="#f94d1f" d="M 0 716.496094 L 93.503906 809.996094 L 0 809.996094 " fill-opacity="1" fill-rule="nonzero"/></g><g clip-path="url(#d3e4f3828b)"><path fill="#fcc2d4" d="M 93.511719 622.992188 L 187.007812 716.488281 L 93.511719 716.488281 " fill-opacity="1" fill-rule="nonzero"/></g><g clip-path="url(#c0bae4f2e7)"><path fill="#fddb38" d="M 0.00390625 622.992188 L 93.503906 716.488281 L 0.00390625 716.488281 " fill-opacity="1" fill-rule="nonzero"/></g><path stroke-linecap="butt" transform="matrix(0.75, 0.000000000000000149, -0.000000000000000149, 0.75, 327.188954, 400.5)" fill="none" stroke-linejoin="miter" d="M -0.00193835 3 L 1145.149161 3 " stroke="#545454" stroke-width="6" stroke-opacity="1" stroke-miterlimit="4"/><path stroke-linecap="butt" transform="matrix(0.75, 0.000000000000000149, -0.000000000000000149, 0.75, 325.879531, 524.362962)" fill="none" stroke-linejoin="miter" d="M -0.000832504 3.000426 L 1145.150267 3.000426 " stroke="#545454" stroke-width="6" stroke-opacity="1" stroke-miterlimit="4"/></svg>