<svg xmlns="http://www.w3.org/2000/svg" xmlns:xlink="http://www.w3.org/1999/xlink" width="1920" zoomAndPan="magnify" viewBox="0 0 1440 809.999993" height="1080" preserveAspectRatio="xMidYMid meet" version="1.0"><defs><g/><clipPath id="9eedc81714"><path d="M 104 26 L 370 26 L 370 291 L 104 291 Z M 104 26 " clip-rule="nonzero"/></clipPath><clipPath id="2fcb12aba5"><path d="M 340.457031 314.730469 L 80.988281 261.648438 L 134.074219 2.179688 L 393.542969 55.261719 Z M 340.457031 314.730469 " clip-rule="nonzero"/></clipPath><clipPath id="29f07befc7"><path d="M 210.722656 288.1875 C 282.375 302.847656 352.34375 256.648438 367 184.996094 C 381.660156 113.347656 335.457031 43.378906 263.808594 28.71875 C 192.15625 14.0625 122.191406 60.261719 107.53125 131.914062 C 92.871094 203.5625 139.074219 273.53125 210.722656 288.1875 Z M 210.722656 288.1875 " clip-rule="nonzero"/></clipPath><clipPath id="c80b1c35b2"><path d="M 319.734375 211.070312 L 1087.957031 211.070312 L 1087.957031 599.679688 L 319.734375 599.679688 Z M 319.734375 211.070312 " clip-rule="nonzero"/></clipPath><clipPath id="0d397f851d"><path d="M 1084.339844 599.445312 L 323.355469 599.445312 C 321.5 599.445312 319.96875 597.914062 319.96875 596.058594 L 319.96875 214.691406 C 319.96875 212.835938 321.5 211.304688 323.355469 211.304688 L 1084.292969 211.304688 C 1086.148438 211.304688 1087.679688 212.835938 1087.679688 214.691406 L 1087.679688 596.011719 C 1087.726562 597.914062 1086.195312 599.445312 1084.339844 599.445312 Z M 1084.339844 599.445312 " clip-rule="nonzero"/></clipPath><clipPath id="b9430605fd"><path d="M 318.808594 210.144531 L 1088.886719 210.144531 L 1088.886719 600.605469 L 318.808594 600.605469 Z M 318.808594 210.144531 " clip-rule="nonzero"/></clipPath><clipPath id="22b29ccf3c"><path d="M 1084.339844 212.324219 C 1085.636719 212.324219 1086.703125 213.390625 1086.703125 214.691406 L 1086.703125 596.058594 C 1086.703125 597.359375 1085.636719 598.425781 1084.339844 598.425781 L 323.355469 598.425781 C 322.054688 598.425781 320.988281 597.359375 320.988281 596.058594 L 320.988281 214.691406 C 320.988281 213.390625 322.054688 212.324219 323.355469 212.324219 L 1084.339844 212.324219 M 1084.339844 210.144531 L 323.355469 210.144531 C 320.847656 210.144531 318.808594 212.183594 318.808594 214.691406 L 318.808594 596.058594 C 318.808594 598.566406 320.847656 600.605469 323.355469 600.605469 L 1084.339844 600.605469 C 1086.84375 600.605469 1088.886719 598.566406 1088.886719 596.058594 L 1088.886719 214.691406 C 1088.886719 212.183594 1086.84375 210.144531 1084.339844 210.144531 Z M 1084.339844 210.144531 " clip-rule="nonzero"/></clipPath><clipPath id="0bb0521ac2"><path d="M 858.46875 225.628906 L 895.035156 225.628906 L 895.035156 262.199219 L 858.46875 262.199219 Z M 858.46875 225.628906 " clip-rule="nonzero"/></clipPath><clipPath id="84bd959f69"><path d="M 876.75 225.628906 C 866.652344 225.628906 858.46875 233.816406 858.46875 243.914062 C 858.46875 254.011719 866.652344 262.199219 876.75 262.199219 C 886.847656 262.199219 895.035156 254.011719 895.035156 243.914062 C 895.035156 233.816406 886.847656 225.628906 876.75 225.628906 Z M 876.75 225.628906 " clip-rule="nonzero"/></clipPath><clipPath id="7532a24f76"><path d="M 905.980469 225.628906 L 942.546875 225.628906 L 942.546875 262.199219 L 905.980469 262.199219 Z M 905.980469 225.628906 " clip-rule="nonzero"/></clipPath><clipPath id="834fd6b63a"><path d="M 924.261719 225.628906 C 914.164062 225.628906 905.980469 233.816406 905.980469 243.914062 C 905.980469 254.011719 914.164062 262.199219 924.261719 262.199219 C 934.359375 262.199219 942.546875 254.011719 942.546875 243.914062 C 942.546875 233.816406 934.359375 225.628906 924.261719 225.628906 Z M 924.261719 225.628906 " clip-rule="nonzero"/></clipPath><clipPath id="da157493d1"><path d="M 953.402344 225.628906 L 989.96875 225.628906 L 989.96875 262.199219 L 953.402344 262.199219 Z M 953.402344 225.628906 " clip-rule="nonzero"/></clipPath><clipPath id="440ce3364b"><path d="M 971.6875 225.628906 C 961.589844 225.628906 953.402344 233.816406 953.402344 243.914062 C 953.402344 254.011719 961.589844 262.199219 971.6875 262.199219 C 981.785156 262.199219 989.96875 254.011719 989.96875 243.914062 C 989.96875 233.816406 981.785156 225.628906 971.6875 225.628906 Z M 971.6875 225.628906 " clip-rule="nonzero"/></clipPath><clipPath id="9d916720cf"><path d="M 1216.101562 585.355469 L 1440 585.355469 L 1440 810 L 1216.101562 810 Z M 1216.101562 585.355469 " clip-rule="nonzero"/></clipPath><clipPath id="c630154321"><path d="M 1359 585.355469 C 1280.078125 585.355469 1216.101562 649.332031 1216.101562 728.253906 C 1216.101562 807.175781 1280.078125 871.152344 1359 871.152344 C 1437.921875 871.152344 1501.898438 807.175781 1501.898438 728.253906 C 1501.898438 649.332031 1437.921875 585.355469 1359 585.355469 Z M 1359 585.355469 " clip-rule="nonzero"/></clipPath><clipPath id="075bb5fc08"><path d="M 1048.324219 158.464844 L 1123.796875 158.464844 L 1123.796875 233.941406 L 1048.324219 233.941406 Z M 1048.324219 158.464844 " clip-rule="nonzero"/></clipPath><clipPath id="c016eb85f8"><path d="M 1086.058594 158.464844 C 1065.21875 158.464844 1048.324219 175.363281 1048.324219 196.203125 C 1048.324219 217.042969 1065.21875 233.941406 1086.058594 233.941406 C 1106.898438 233.941406 1123.796875 217.042969 1123.796875 196.203125 C 1123.796875 175.363281 1106.898438 158.464844 1086.058594 158.464844 Z M 1086.058594 158.464844 " clip-rule="nonzero"/></clipPath><clipPath id="b866eefefd"><path d="M 344.460938 304.167969 L 408.960938 304.167969 L 408.960938 368.667969 L 344.460938 368.667969 Z M 344.460938 304.167969 " clip-rule="nonzero"/></clipPath><clipPath id="1ab22fec74"><path d="M 354 346 L 399 346 L 399 368.667969 L 354 368.667969 Z M 354 346 " clip-rule="nonzero"/></clipPath><clipPath id="8cef1d05dd"><path d="M 739.324219 429.75 L 819.527344 429.75 L 819.527344 469.851562 L 739.324219 469.851562 Z M 739.324219 429.75 " clip-rule="nonzero"/></clipPath><clipPath id="355ffcfeb5"><path d="M 799.476562 429.75 C 810.546875 429.75 819.527344 438.726562 819.527344 449.800781 C 819.527344 460.875 810.546875 469.851562 799.476562 469.851562 L 759.375 469.851562 C 748.300781 469.851562 739.324219 460.875 739.324219 449.800781 C 739.324219 438.726562 748.300781 429.75 759.375 429.75 Z M 799.476562 429.75 " clip-rule="nonzero"/></clipPath><clipPath id="bc827eb3d8"><path d="M 629.121094 426.464844 L 709.324219 426.464844 L 709.324219 466.566406 L 629.121094 466.566406 Z M 629.121094 426.464844 " clip-rule="nonzero"/></clipPath><clipPath id="18c1b60395"><path d="M 689.273438 426.464844 C 700.34375 426.464844 709.324219 435.441406 709.324219 446.515625 C 709.324219 457.589844 700.34375 466.566406 689.273438 466.566406 L 649.171875 466.566406 C 638.097656 466.566406 629.121094 457.589844 629.121094 446.515625 C 629.121094 435.441406 638.097656 426.464844 649.171875 426.464844 Z M 689.273438 426.464844 " clip-rule="nonzero"/></clipPath><clipPath id="27d814c550"><path d="M 408.707031 426.464844 L 488.910156 426.464844 L 488.910156 466.566406 L 408.707031 466.566406 Z M 408.707031 426.464844 " clip-rule="nonzero"/></clipPath><clipPath id="f336ee56ae"><path d="M 468.859375 426.464844 C 479.933594 426.464844 488.910156 435.441406 488.910156 446.515625 C 488.910156 457.589844 479.933594 466.566406 468.859375 466.566406 L 428.757812 466.566406 C 417.683594 466.566406 408.707031 457.589844 408.707031 446.515625 C 408.707031 435.441406 417.683594 426.464844 428.757812 426.464844 Z M 468.859375 426.464844 " clip-rule="nonzero"/></clipPath><clipPath id="429aa8d2ec"><path d="M 518.917969 426.464844 L 599.121094 426.464844 L 599.121094 466.566406 L 518.917969 466.566406 Z M 518.917969 426.464844 " clip-rule="nonzero"/></clipPath><clipPath id="ceca194084"><path d="M 579.070312 426.464844 C 590.140625 426.464844 599.121094 435.441406 599.121094 446.515625 C 599.121094 457.589844 590.140625 466.566406 579.070312 466.566406 L 538.96875 466.566406 C 527.894531 466.566406 518.917969 457.589844 518.917969 446.515625 C 518.917969 435.441406 527.894531 426.464844 538.96875 426.464844 Z M 579.070312 426.464844 " clip-rule="nonzero"/></clipPath><clipPath id="d83ff5b44c"><path d="M 599.121094 349.316406 L 808.574219 349.316406 L 808.574219 387.019531 L 599.121094 387.019531 Z M 599.121094 349.316406 " clip-rule="nonzero"/></clipPath><clipPath id="2c4feb253d"><path d="M 617.96875 349.316406 L 789.722656 349.316406 C 800.132812 349.316406 808.574219 357.757812 808.574219 368.167969 C 808.574219 378.582031 800.132812 387.019531 789.722656 387.019531 L 617.96875 387.019531 C 607.558594 387.019531 599.121094 378.582031 599.121094 368.167969 C 599.121094 357.757812 607.558594 349.316406 617.96875 349.316406 Z M 617.96875 349.316406 " clip-rule="nonzero"/></clipPath><clipPath id="928570bc55"><path d="M 599.121094 349.316406 L 739.847656 349.316406 L 739.847656 387.019531 L 599.121094 387.019531 Z M 599.121094 349.316406 " clip-rule="nonzero"/></clipPath><clipPath id="4eda37207c"><path d="M 617.96875 349.316406 L 720.601562 349.316406 C 731.015625 349.316406 739.453125 357.757812 739.453125 368.167969 C 739.453125 378.582031 731.015625 387.019531 720.601562 387.019531 L 617.96875 387.019531 C 607.558594 387.019531 599.121094 378.582031 599.121094 368.167969 C 599.121094 357.757812 607.558594 349.316406 617.96875 349.316406 Z M 617.96875 349.316406 " clip-rule="nonzero"/></clipPath></defs><rect x="-144" width="1728" fill="#ffffff" y="-80.999999" height="971.999992" fill-opacity="1"/><rect x="-144" width="1728" fill="#ffffff" y="-80.999999" height="971.999992" fill-opacity="1"/><g clip-path="url(#9eedc81714)"><g clip-path="url(#2fcb12aba5)"><g clip-path="url(#29f07befc7)"><path fill="#345ee9" d="M 340.457031 314.730469 L 80.988281 261.648438 L 134.074219 2.179688 L 393.542969 55.261719 Z M 340.457031 314.730469 " fill-opacity="1" fill-rule="nonzero"/></g></g></g><g clip-path="url(#c80b1c35b2)"><g clip-path="url(#0d397f851d)"><path fill="#ffffff" d="M 318.808594 210.144531 L 1088.886719 210.144531 L 1088.886719 600.605469 L 318.808594 600.605469 Z M 318.808594 210.144531 " fill-opacity="1" fill-rule="nonzero"/></g></g><g clip-path="url(#b9430605fd)"><g clip-path="url(#22b29ccf3c)"><path fill="#191919" d="M 318.808594 210.144531 L 1088.886719 210.144531 L 1088.886719 600.605469 L 318.808594 600.605469 Z M 318.808594 210.144531 " fill-opacity="1" fill-rule="nonzero"/></g></g><path stroke-linecap="butt" transform="matrix(0.75, 0, 0, 0.75, 320.217705, 262.198483)" fill="none" stroke-linejoin="miter" d="M 0.00139292 2.500981 L 930.673315 2.500981 " stroke="#000000" stroke-width="5" stroke-opacity="1" stroke-miterlimit="4"/><g clip-path="url(#0bb0521ac2)"><g clip-path="url(#84bd959f69)"><path fill="#f5c853" d="M 858.46875 225.628906 L 895.035156 225.628906 L 895.035156 262.199219 L 858.46875 262.199219 Z M 858.46875 225.628906 " fill-opacity="1" fill-rule="nonzero"/></g></g><g clip-path="url(#7532a24f76)"><g clip-path="url(#834fd6b63a)"><path fill="#e27354" d="M 905.980469 225.628906 L 942.546875 225.628906 L 942.546875 262.199219 L 905.980469 262.199219 Z M 905.980469 225.628906 " fill-opacity="1" fill-rule="nonzero"/></g></g><g clip-path="url(#da157493d1)"><g clip-path="url(#440ce3364b)"><path fill="#345ee9" d="M 953.402344 225.628906 L 989.96875 225.628906 L 989.96875 262.199219 L 953.402344 262.199219 Z M 953.402344 225.628906 " fill-opacity="1" fill-rule="nonzero"/></g></g><g clip-path="url(#9d916720cf)"><g clip-path="url(#c630154321)"><path fill="#f5c853" d="M 1216.101562 585.355469 L 1501.898438 585.355469 L 1501.898438 871.152344 L 1216.101562 871.152344 Z M 1216.101562 585.355469 " fill-opacity="1" fill-rule="nonzero"/></g></g><g clip-path="url(#075bb5fc08)"><g clip-path="url(#c016eb85f8)"><path fill="#fa8068" d="M 1048.324219 158.464844 L 1123.796875 158.464844 L 1123.796875 233.941406 L 1048.324219 233.941406 Z M 1048.324219 158.464844 " fill-opacity="1" fill-rule="nonzero"/></g></g><g clip-path="url(#b866eefefd)"><path fill="#004aad" d="M 408.703125 312.078125 L 408.703125 360.496094 C 408.703125 364.851562 405.171875 368.382812 400.816406 368.382812 L 352.351562 368.382812 C 347.996094 368.382812 344.464844 364.851562 344.464844 360.496094 L 344.464844 312.078125 C 344.464844 307.722656 347.996094 304.191406 352.351562 304.191406 L 400.816406 304.191406 C 405.171875 304.191406 408.703125 307.722656 408.703125 312.078125 Z M 408.703125 312.078125 " fill-opacity="1" fill-rule="nonzero"/></g><path fill="#010202" d="M 393.140625 316.238281 C 391.945312 315.042969 390.125 314.707031 388.183594 315.140625 C 385.625 315.710938 382.96875 315.65625 380.472656 314.851562 C 378.816406 314.316406 376.960938 314.019531 375.003906 314.019531 C 368.007812 314.019531 362.339844 317.832031 362.339844 322.535156 C 362.339844 327.234375 361.347656 336.507812 368.34375 336.507812 C 371.640625 336.507812 376.121094 334.445312 379.9375 331.777344 C 381.667969 330.566406 383.664062 329.820312 385.738281 329.445312 C 387.585938 329.113281 389.574219 328.066406 391.25 326.390625 C 394.578125 323.066406 395.421875 318.519531 393.140625 316.238281 Z M 393.140625 316.238281 " fill-opacity="1" fill-rule="nonzero"/><g clip-path="url(#1ab22fec74)"><path fill="#00c2cb" d="M 354.808594 368.164062 C 354.808594 356.15625 364.632812 346.332031 376.640625 346.332031 C 388.648438 346.332031 398.472656 356.15625 398.472656 368.164062 " fill-opacity="1" fill-rule="nonzero"/></g><path fill="#f08474" d="M 381.769531 339.945312 L 381.769531 346.820312 C 381.769531 349.855469 379.289062 352.335938 376.257812 352.335938 C 373.226562 352.335938 370.746094 349.855469 370.746094 346.820312 L 370.746094 339.945312 C 370.746094 336.910156 373.226562 334.429688 376.257812 334.429688 C 377.777344 334.429688 379.152344 335.050781 380.152344 336.050781 C 381.152344 337.050781 381.769531 338.429688 381.769531 339.945312 Z M 381.769531 339.945312 " fill-opacity="1" fill-rule="nonzero"/><path stroke-linecap="butt" transform="matrix(0.144041, 0, 0, 0.144041, 340.630448, 300.365484)" fill="none" stroke-linejoin="miter" d="M 285.607216 322.538786 C 285.607216 343.583175 268.386614 360.803777 247.342225 360.803777 C 226.297836 360.803777 209.077234 343.583175 209.077234 322.538786 " stroke="#ffffff" stroke-width="1" stroke-opacity="1" stroke-miterlimit="10"/><path fill="#010202" d="M 381.769531 339.945312 L 381.769531 345.664062 C 380.917969 345.933594 380.019531 346.074219 379.097656 346.074219 C 375.660156 346.074219 372.617188 344.113281 370.746094 341.09375 L 370.746094 339.945312 C 370.746094 336.910156 373.226562 334.429688 376.257812 334.429688 C 377.777344 334.429688 379.152344 335.050781 380.152344 336.050781 C 381.152344 337.050781 381.769531 338.429688 381.769531 339.945312 Z M 381.769531 339.945312 " fill-opacity="1" fill-rule="nonzero"/><path fill="#f08474" d="M 388.101562 333.066406 C 388.101562 333.859375 388.039062 334.644531 387.90625 335.421875 C 387.773438 336.199219 387.578125 336.953125 387.316406 337.683594 C 387.058594 338.414062 386.742188 339.109375 386.363281 339.769531 C 385.988281 340.425781 385.5625 341.035156 385.082031 341.597656 C 384.601562 342.15625 384.082031 342.65625 383.519531 343.097656 C 382.957031 343.539062 382.359375 343.910156 381.734375 344.210938 C 381.109375 344.515625 380.464844 344.746094 379.800781 344.898438 C 379.136719 345.054688 378.464844 345.128906 377.789062 345.128906 C 377.109375 345.128906 376.4375 345.054688 375.773438 344.898438 C 375.109375 344.746094 374.464844 344.515625 373.839844 344.210938 C 373.214844 343.910156 372.617188 343.539062 372.054688 343.097656 C 371.492188 342.65625 370.972656 342.15625 370.492188 341.597656 C 370.011719 341.035156 369.585938 340.425781 369.210938 339.769531 C 368.832031 339.109375 368.515625 338.414062 368.257812 337.683594 C 367.996094 336.953125 367.800781 336.199219 367.667969 335.421875 C 367.535156 334.644531 367.472656 333.859375 367.472656 333.066406 C 367.472656 332.273438 367.535156 331.492188 367.667969 330.714844 C 367.800781 329.9375 367.996094 329.183594 368.257812 328.449219 C 368.515625 327.71875 368.832031 327.023438 369.210938 326.363281 C 369.585938 325.707031 370.011719 325.097656 370.492188 324.535156 C 370.972656 323.976562 371.492188 323.476562 372.054688 323.035156 C 372.617188 322.597656 373.214844 322.226562 373.839844 321.921875 C 374.464844 321.617188 375.109375 321.390625 375.773438 321.234375 C 376.4375 321.082031 377.109375 321.003906 377.789062 321.003906 C 378.464844 321.003906 379.136719 321.082031 379.800781 321.234375 C 380.464844 321.390625 381.109375 321.617188 381.734375 321.921875 C 382.359375 322.226562 382.957031 322.597656 383.519531 323.035156 C 384.082031 323.476562 384.601562 323.976562 385.082031 324.535156 C 385.5625 325.097656 385.988281 325.707031 386.363281 326.363281 C 386.742188 327.023438 387.058594 327.71875 387.316406 328.449219 C 387.578125 329.183594 387.773438 329.9375 387.90625 330.714844 C 388.039062 331.492188 388.101562 332.273438 388.101562 333.066406 Z M 388.101562 333.066406 " fill-opacity="1" fill-rule="nonzero"/><path fill="#010202" d="M 369.253906 329.90625 C 369.253906 329.90625 376.652344 332.125 380.148438 325.832031 C 383.640625 319.539062 383.640625 325.925781 386.519531 328.609375 C 389.398438 331.296875 389.605469 317.96875 375.007812 318.707031 C 360.414062 319.449219 361.644531 331.757812 364.832031 332.683594 C 368.019531 333.609375 369.253906 329.90625 369.253906 329.90625 Z M 369.253906 329.90625 " fill-opacity="1" fill-rule="nonzero"/><path fill="#f08474" d="M 371.292969 334.484375 C 371.292969 334.746094 371.265625 335.003906 371.210938 335.257812 C 371.15625 335.515625 371.074219 335.761719 370.96875 336.003906 C 370.859375 336.242188 370.730469 336.472656 370.574219 336.6875 C 370.417969 336.90625 370.242188 337.105469 370.046875 337.289062 C 369.847656 337.472656 369.632812 337.636719 369.398438 337.78125 C 369.167969 337.925781 368.921875 338.050781 368.664062 338.148438 C 368.40625 338.25 368.140625 338.324219 367.863281 338.375 C 367.589844 338.425781 367.3125 338.453125 367.035156 338.453125 C 366.753906 338.453125 366.476562 338.425781 366.203125 338.375 C 365.929688 338.324219 365.664062 338.25 365.40625 338.148438 C 365.148438 338.050781 364.902344 337.925781 364.667969 337.78125 C 364.4375 337.636719 364.222656 337.472656 364.023438 337.289062 C 363.824219 337.105469 363.648438 336.90625 363.496094 336.6875 C 363.339844 336.472656 363.207031 336.242188 363.101562 336.003906 C 362.992188 335.761719 362.914062 335.515625 362.859375 335.257812 C 362.804688 335.003906 362.777344 334.746094 362.777344 334.484375 C 362.777344 334.226562 362.804688 333.96875 362.859375 333.710938 C 362.914062 333.457031 362.992188 333.207031 363.101562 332.96875 C 363.207031 332.726562 363.339844 332.5 363.496094 332.28125 C 363.648438 332.066406 363.824219 331.867188 364.023438 331.683594 C 364.222656 331.496094 364.4375 331.332031 364.667969 331.1875 C 364.902344 331.042969 365.148438 330.921875 365.40625 330.824219 C 365.664062 330.722656 365.929688 330.648438 366.203125 330.597656 C 366.476562 330.546875 366.753906 330.519531 367.035156 330.519531 C 367.3125 330.519531 367.589844 330.546875 367.863281 330.597656 C 368.140625 330.648438 368.40625 330.722656 368.664062 330.824219 C 368.921875 330.921875 369.167969 331.042969 369.398438 331.1875 C 369.632812 331.332031 369.847656 331.496094 370.046875 331.683594 C 370.242188 331.867188 370.417969 332.066406 370.574219 332.28125 C 370.730469 332.5 370.859375 332.726562 370.96875 332.96875 C 371.074219 333.207031 371.15625 333.457031 371.210938 333.710938 C 371.265625 333.96875 371.292969 334.226562 371.292969 334.484375 Z M 371.292969 334.484375 " fill-opacity="1" fill-rule="nonzero"/><path fill="#010202" d="M 377.425781 333.722656 C 377.15625 333.722656 376.929688 333.5 376.929688 333.226562 L 376.929688 331.507812 C 376.929688 331.234375 377.15625 331.011719 377.425781 331.011719 C 377.699219 331.011719 377.921875 331.234375 377.921875 331.507812 L 377.921875 333.226562 C 377.921875 333.5 377.699219 333.722656 377.425781 333.722656 Z M 377.425781 333.722656 " fill-opacity="1" fill-rule="nonzero"/><path fill="#010202" d="M 383.300781 333.722656 C 383.027344 333.722656 382.804688 333.5 382.804688 333.226562 L 382.804688 331.507812 C 382.804688 331.234375 383.027344 331.011719 383.300781 331.011719 C 383.570312 331.011719 383.796875 331.234375 383.796875 331.507812 L 383.796875 333.226562 C 383.796875 333.5 383.570312 333.722656 383.300781 333.722656 Z M 383.300781 333.722656 " fill-opacity="1" fill-rule="nonzero"/><path stroke-linecap="round" transform="matrix(0.144041, 0, 0, 0.144041, 340.630448, 300.365484)" fill="none" stroke-linejoin="round" d="M 293.525981 198.930118 C 293.525981 198.930118 299.627769 196.00126 311.99406 203.513239 " stroke="#010202" stroke-width="2" stroke-opacity="1" stroke-miterlimit="10"/><path stroke-linecap="round" transform="matrix(0.144041, 0, 0, 0.144041, 340.630448, 300.365484)" fill="none" stroke-linejoin="round" d="M 240.182793 205.547168 C 240.182793 205.547168 243.409961 199.580976 257.8373 198.441975 " stroke="#010202" stroke-width="2" stroke-opacity="1" stroke-miterlimit="10"/><path stroke-linecap="round" transform="matrix(0.144041, 0, 0, 0.144041, 340.630448, 300.365484)" fill="none" stroke-linejoin="round" d="M 284.115668 209.967575 L 282.597001 212.381171 C 281.159691 214.686291 280.8885 217.533792 281.891905 220.055865 L 291.492052 244.571493 C 292.929362 248.286804 291.627647 252.517377 288.346241 254.768259 L 280.698667 260.002237 " stroke="#010202" stroke-width="2" stroke-opacity="1" stroke-miterlimit="10"/><path stroke-linecap="round" transform="matrix(0.144041, 0, 0, 0.144041, 340.630448, 300.365484)" fill="none" stroke-linejoin="round" d="M 262.772969 264.395525 C 262.772969 264.395525 274.027378 278.253364 293.146314 264.53112 " stroke="#000000" stroke-width="2" stroke-opacity="1" stroke-miterlimit="10"/><path stroke-linecap="round" transform="matrix(0.144041, 0, 0, 0.144041, 340.630448, 300.365484)" fill="none" stroke-linejoin="round" d="M 165.876574 224.367795 C 165.876574 224.367795 181.52427 220.327055 190.880346 234.727275 " stroke="#010202" stroke-width="2" stroke-opacity="1" stroke-miterlimit="10"/><path stroke-linecap="round" transform="matrix(0.144041, 0, 0, 0.144041, 340.630448, 300.365484)" fill="none" stroke-linejoin="round" d="M 173.524148 255.175045 C 173.524148 255.175045 172.791934 239.012086 188.792178 232.828941 " stroke="#010202" stroke-width="2" stroke-opacity="1" stroke-miterlimit="10"/><path stroke-linecap="round" transform="matrix(0.75, 0, 0, 0.75, 359.172497, 405)" fill="none" stroke-linejoin="miter" d="M 0.499171 0.500001 L 736.296083 0.500001 " stroke="#100f0d" stroke-width="1" stroke-opacity="1" stroke-miterlimit="4"/><path stroke-linecap="round" transform="matrix(0.75, 0, 0, 0.75, 333.020409, 501.533731)" fill="none" stroke-linejoin="miter" d="M 0.49883 0.501901 L 736.295742 0.501901 " stroke="#100f0d" stroke-width="1" stroke-opacity="1" stroke-miterlimit="4"/><g clip-path="url(#8cef1d05dd)"><g clip-path="url(#355ffcfeb5)"><path fill="#d9d9d9" d="M 739.324219 429.75 L 819.527344 429.75 L 819.527344 469.851562 L 739.324219 469.851562 Z M 739.324219 429.75 " fill-opacity="1" fill-rule="nonzero"/></g></g><g clip-path="url(#bc827eb3d8)"><g clip-path="url(#18c1b60395)"><path fill="#d9d9d9" d="M 629.121094 426.464844 L 709.324219 426.464844 L 709.324219 466.566406 L 629.121094 466.566406 Z M 629.121094 426.464844 " fill-opacity="1" fill-rule="nonzero"/></g></g><g clip-path="url(#27d814c550)"><g clip-path="url(#f336ee56ae)"><path fill="#d9d9d9" d="M 408.707031 426.464844 L 488.910156 426.464844 L 488.910156 466.566406 L 408.707031 466.566406 Z M 408.707031 426.464844 " fill-opacity="1" fill-rule="nonzero"/></g></g><g clip-path="url(#429aa8d2ec)"><g clip-path="url(#ceca194084)"><path fill="#d9d9d9" d="M 518.917969 426.464844 L 599.121094 426.464844 L 599.121094 466.566406 L 518.917969 466.566406 Z M 518.917969 426.464844 " fill-opacity="1" fill-rule="nonzero"/></g></g><g clip-path="url(#d83ff5b44c)"><g clip-path="url(#2c4feb253d)"><path fill="#6ce5e8" d="M 599.121094 349.316406 L 808.574219 349.316406 L 808.574219 387.019531 L 599.121094 387.019531 Z M 599.121094 349.316406 " fill-opacity="1" fill-rule="nonzero"/></g></g><g clip-path="url(#928570bc55)"><g clip-path="url(#4eda37207c)"><path fill="#41b8d5" d="M 599.121094 349.316406 L 808.574219 349.316406 L 808.574219 387.019531 L 599.121094 387.019531 Z M 599.121094 349.316406 " fill-opacity="1" fill-rule="nonzero"/></g></g><path stroke-linecap="butt" transform="matrix(0.75, 0, 0, 0.75, 365.160984, 533.624585)" fill="none" stroke-linejoin="miter" d="M -0.00110347 3.000553 L 681.597889 3.000553 " stroke="#d9d9d9" stroke-width="6" stroke-opacity="1" stroke-miterlimit="4"/><g fill="#000000" fill-opacity="1"><g transform="translate(488.754889, 528.524513)"><g><path d="M 17.351562 -8.113281 L 3.601562 -8.113281 L 3.601562 -5.398438 L 15.910156 -5.398438 C 15 -3.3125 13.777344 -0.742188 12.71875 1.320312 L 15.742188 2.160156 C 17.230469 -0.886719 18.960938 -4.632812 20.136719 -7.558594 L 17.855469 -8.230469 Z M 7.679688 -13.03125 C 9.40625 -14.566406 10.871094 -16.199219 11.902344 -17.6875 C 12.960938 -16.199219 14.519531 -14.566406 16.273438 -13.03125 Z M 10.34375 -20.472656 C 8.542969 -17.496094 4.679688 -13.632812 0.625 -11.398438 C 1.246094 -10.800781 2.0625 -9.792969 2.425781 -9.121094 C 3.984375 -10.054688 5.496094 -11.136719 6.863281 -12.3125 L 6.863281 -10.390625 L 17.039062 -10.390625 L 17.039062 -12.382812 C 18.503906 -11.160156 20.0625 -10.054688 21.574219 -9.167969 C 22.105469 -10.03125 22.726562 -10.945312 23.449219 -11.664062 C 19.703125 -13.414062 15.769531 -16.800781 13.199219 -20.472656 Z M 10.34375 -20.472656 "/></g></g></g><g fill="#000000" fill-opacity="1"><g transform="translate(512.754933, 528.524513)"><g><path d="M 5.375 -20.304688 C 4.367188 -18.742188 2.375 -16.753906 0.671875 -15.550781 C 1.105469 -15.046875 1.800781 -14.039062 2.160156 -13.464844 C 4.152344 -14.929688 6.382812 -17.257812 7.894531 -19.320312 Z M 5.808594 -15.191406 C 4.558594 -12.863281 2.472656 -10.535156 0.457031 -9.023438 C 0.910156 -8.425781 1.679688 -6.984375 1.945312 -6.359375 C 2.566406 -6.886719 3.191406 -7.464844 3.816406 -8.136719 L 3.816406 2.136719 L 6.480469 2.136719 L 6.480469 -11.351562 C 7.152344 -12.3125 7.777344 -13.296875 8.304688 -14.257812 Z M 12.816406 -5.785156 L 17.472656 -5.785156 C 16.847656 -4.894531 16.078125 -4.128906 15.167969 -3.433594 C 14.230469 -4.128906 13.414062 -4.894531 12.792969 -5.761719 Z M 19.414062 -8.015625 L 18.960938 -7.921875 L 14.617188 -7.921875 C 14.953125 -8.375 15.265625 -8.855469 15.550781 -9.335938 C 17.113281 -9.382812 18.742188 -9.433594 20.328125 -9.503906 C 20.664062 -8.929688 20.929688 -8.375 21.121094 -7.921875 L 23.519531 -9.265625 C 22.847656 -10.800781 21.265625 -12.960938 19.871094 -14.519531 L 17.664062 -13.296875 C 18.070312 -12.816406 18.480469 -12.3125 18.863281 -11.761719 L 14.566406 -11.6875 C 16.585938 -13.390625 18.71875 -15.433594 20.449219 -17.257812 L 17.929688 -18.648438 C 16.894531 -17.328125 15.527344 -15.816406 14.0625 -14.398438 C 13.679688 -14.785156 13.199219 -15.191406 12.695312 -15.601562 C 13.703125 -16.609375 14.878906 -17.902344 15.910156 -19.152344 L 13.441406 -20.425781 C 12.816406 -19.34375 11.808594 -18.023438 10.871094 -16.945312 C 10.414062 -17.257812 9.960938 -17.542969 9.550781 -17.808594 L 7.847656 -15.960938 C 9.289062 -15.023438 10.96875 -13.679688 12.070312 -12.550781 C 11.734375 -12.238281 11.375 -11.929688 11.039062 -11.640625 C 9.671875 -11.617188 8.425781 -11.617188 7.34375 -11.617188 L 7.585938 -9.097656 L 12.382812 -9.238281 C 11.039062 -7.414062 9.070312 -5.832031 7.03125 -4.800781 C 7.585938 -4.296875 8.496094 -3.238281 8.878906 -2.6875 C 9.601562 -3.121094 10.320312 -3.625 11.039062 -4.175781 C 11.59375 -3.40625 12.238281 -2.710938 12.9375 -2.089844 C 11.183594 -1.199219 9.167969 -0.574219 7.03125 -0.214844 C 7.535156 0.359375 8.136719 1.488281 8.398438 2.207031 C 10.871094 1.65625 13.199219 0.816406 15.191406 -0.359375 C 17.0625 0.816406 19.273438 1.65625 21.816406 2.160156 C 22.175781 1.414062 22.921875 0.3125 23.519531 -0.289062 C 21.289062 -0.625 19.273438 -1.222656 17.542969 -2.039062 C 19.105469 -3.40625 20.375 -5.113281 21.191406 -7.222656 Z M 19.414062 -8.015625 "/></g></g></g><g fill="#000000" fill-opacity="1"><g transform="translate(536.754978, 528.524513)"><g><path d="M 14.566406 -17.183594 C 13.726562 -18.023438 12.265625 -19.273438 11.398438 -19.921875 L 9.214844 -18.382812 C 10.152344 -17.6875 11.472656 -16.390625 12.3125 -15.550781 Z M 3.070312 -16.585938 C 3.550781 -15.960938 4.128906 -15.097656 4.464844 -14.496094 C 4.824219 -13.871094 5.160156 -13.199219 5.519531 -12.480469 C 4.800781 -12.167969 4.078125 -11.855469 3.382812 -11.59375 C 3 -11.398438 1.945312 -11.039062 1.03125 -10.824219 L 2.425781 -7.777344 C 3.433594 -8.230469 4.945312 -9.046875 6.648438 -9.886719 L 7.273438 -8.425781 C 8.496094 -5.59375 9.71875 -1.535156 10.464844 1.441406 L 13.753906 0.601562 C 12.9375 -2.0625 11.113281 -7.152344 10.007812 -9.742188 L 9.335938 -11.207031 C 11.878906 -12.382812 14.472656 -13.367188 16.320312 -13.367188 C 18.121094 -13.367188 19.152344 -12.382812 19.152344 -11.160156 C 19.152344 -9.457031 17.878906 -8.496094 16.054688 -8.496094 C 15.046875 -8.496094 13.847656 -8.832031 12.792969 -9.289062 L 12.71875 -6.3125 C 13.609375 -5.976562 15.097656 -5.640625 16.367188 -5.640625 C 20.015625 -5.640625 22.296875 -7.726562 22.296875 -11.0625 C 22.296875 -13.824219 20.089844 -16.054688 16.390625 -16.054688 C 13.96875 -16.054688 11.089844 -14.929688 8.207031 -13.65625 C 7.847656 -14.449219 7.464844 -15.214844 7.105469 -15.910156 C 6.839844 -16.34375 6.359375 -17.328125 6.144531 -17.761719 Z M 3.070312 -16.585938 "/></g></g></g><g fill="#000000" fill-opacity="1"><g transform="translate(560.755022, 528.524513)"><g><path d="M 3.527344 -10.199219 L 4.753906 -7.078125 C 6.792969 -7.945312 11.519531 -9.910156 14.28125 -9.910156 C 16.34375 -9.910156 17.6875 -8.664062 17.6875 -6.886719 C 17.6875 -3.648438 13.65625 -2.230469 8.257812 -2.089844 L 9.503906 0.863281 C 17.0625 0.40625 20.832031 -2.542969 20.832031 -6.839844 C 20.832031 -10.441406 18.3125 -12.671875 14.566406 -12.671875 C 11.6875 -12.671875 7.65625 -11.304688 6.046875 -10.824219 C 5.328125 -10.585938 4.222656 -10.320312 3.527344 -10.199219 Z M 3.527344 -10.199219 "/></g></g></g><g fill="#000000" fill-opacity="1"><g transform="translate(584.755067, 528.524513)"><g><path d="M 1.824219 -16.464844 L 2.113281 -13.199219 C 4.871094 -13.800781 9.886719 -14.328125 11.929688 -14.542969 C 10.34375 -13.34375 8.425781 -10.65625 8.425781 -7.222656 C 8.425781 -2.089844 13.128906 0.601562 18.121094 0.9375 L 19.222656 -2.351562 C 15.214844 -2.566406 11.542969 -3.960938 11.542969 -7.871094 C 11.542969 -10.679688 13.703125 -13.753906 16.558594 -14.519531 C 17.832031 -14.808594 19.871094 -14.832031 21.144531 -14.832031 L 21.121094 -17.902344 C 19.464844 -17.832031 16.847656 -17.6875 14.398438 -17.496094 C 10.054688 -17.113281 6.121094 -16.777344 4.152344 -16.585938 C 3.671875 -16.535156 2.761719 -16.488281 1.824219 -16.464844 Z M 1.824219 -16.464844 "/></g></g></g><g fill="#000000" fill-opacity="1"><g transform="translate(608.755111, 528.524513)"><g><path d="M 6.289062 -17.089844 L 2.640625 -17.136719 C 2.785156 -16.414062 2.808594 -15.40625 2.808594 -14.734375 C 2.808594 -13.273438 2.855469 -10.511719 3.070312 -8.328125 C 3.742188 -1.945312 6.023438 0.40625 8.617188 0.40625 C 10.535156 0.40625 12.023438 -1.054688 13.609375 -5.183594 L 11.207031 -8.0625 C 10.753906 -6.191406 9.816406 -3.40625 8.6875 -3.40625 C 7.199219 -3.40625 6.480469 -5.734375 6.144531 -9.167969 C 6 -10.871094 5.976562 -12.671875 6 -14.207031 C 6 -14.855469 6.121094 -16.246094 6.289062 -17.089844 Z M 18.167969 -16.585938 L 15.144531 -15.574219 C 17.734375 -12.648438 19.007812 -7.054688 19.367188 -3.238281 L 22.511719 -4.441406 C 22.246094 -8.089844 20.425781 -13.824219 18.167969 -16.585938 Z M 18.167969 -16.585938 "/></g></g></g><g fill="#000000" fill-opacity="1"><g transform="translate(632.755156, 528.524513)"><g><path d="M 4.585938 -6.742188 C 4.320312 -5.855469 4.007812 -4.585938 4.007812 -3.503906 C 4.007812 -0.214844 6.742188 1.296875 11.183594 1.296875 C 13.558594 1.296875 15.984375 1.054688 17.304688 0.839844 L 17.398438 -2.207031 C 15.71875 -1.871094 13.367188 -1.679688 11.113281 -1.679688 C 8.015625 -1.679688 6.960938 -2.6875 6.960938 -4.175781 C 6.960938 -4.753906 7.222656 -5.761719 7.535156 -6.480469 Z M 20.28125 -13.632812 C 19.222656 -13.222656 17.855469 -12.816406 16.03125 -12.457031 L 15.480469 -13.65625 L 15.023438 -14.6875 C 16.585938 -14.953125 17.878906 -15.289062 19.105469 -15.648438 L 18.601562 -18.3125 C 17.183594 -17.832031 15.648438 -17.472656 14.039062 -17.207031 C 13.726562 -18.046875 13.464844 -18.863281 13.296875 -19.585938 L 9.910156 -18.9375 C 10.320312 -18.289062 10.632812 -17.761719 11.0625 -16.894531 L 11.0625 -16.871094 C 8.953125 -16.753906 6.574219 -16.847656 3.863281 -17.136719 L 4.007812 -14.425781 C 6.886719 -14.136719 9.863281 -14.136719 12.191406 -14.328125 L 12.769531 -12.984375 L 13.175781 -12.046875 C 10.488281 -11.761719 7.246094 -11.761719 3.695312 -12.097656 L 3.816406 -9.359375 C 7.414062 -9.097656 11.28125 -9.167969 14.257812 -9.503906 L 15.335938 -7.03125 C 14.6875 -7.105469 13.753906 -7.175781 12.816406 -7.296875 L 12.550781 -5.015625 C 14.136719 -4.824219 16.414062 -4.464844 17.734375 -4.222656 L 19.152344 -6.023438 C 18.457031 -7.320312 17.785156 -8.710938 17.183594 -9.984375 C 18.574219 -10.273438 19.871094 -10.585938 20.855469 -10.945312 Z M 20.28125 -13.632812 "/></g></g></g><g fill="#000000" fill-opacity="1"><g transform="translate(656.7552, 528.524513)"><g><path d="M 12.792969 -9.097656 C 14.28125 -9.289062 15.71875 -9.359375 17.375 -9.359375 C 18.816406 -9.359375 20.28125 -9.214844 21.457031 -9.070312 L 21.527344 -11.929688 C 20.136719 -12.070312 18.695312 -12.144531 17.351562 -12.144531 C 15.816406 -12.144531 14.113281 -12.023438 12.792969 -11.902344 Z M 14.664062 -16.726562 C 13.367188 -16.414062 12.023438 -16.152344 10.679688 -15.9375 L 10.871094 -16.847656 C 10.992188 -17.375 11.207031 -18.433594 11.375 -19.078125 L 7.753906 -19.367188 C 7.800781 -18.816406 7.777344 -17.855469 7.65625 -16.96875 C 7.609375 -16.585938 7.535156 -16.128906 7.441406 -15.601562 C 6.71875 -15.550781 6.023438 -15.527344 5.328125 -15.527344 C 4.34375 -15.527344 3.550781 -15.574219 2.328125 -15.71875 L 2.398438 -12.742188 C 3.238281 -12.695312 4.128906 -12.648438 5.28125 -12.648438 C 5.761719 -12.648438 6.289062 -12.671875 6.839844 -12.695312 C 6.671875 -12.023438 6.503906 -11.351562 6.335938 -10.726562 C 5.449219 -7.390625 3.648438 -2.398438 2.230469 -0.0234375 L 5.566406 1.078125 C 6.863281 -1.703125 8.472656 -6.574219 9.335938 -9.910156 C 9.601562 -10.871094 9.839844 -11.929688 10.054688 -12.960938 C 11.640625 -13.152344 13.246094 -13.414062 14.664062 -13.726562 Z M 11.328125 -6.191406 C 11.136719 -5.257812 10.921875 -4.105469 10.921875 -3.023438 C 10.921875 -0.625 12.960938 0.769531 16.96875 0.769531 C 18.863281 0.769531 20.472656 0.601562 21.816406 0.433594 L 21.9375 -2.617188 C 20.230469 -2.304688 18.574219 -2.136719 16.992188 -2.136719 C 14.449219 -2.136719 13.847656 -2.902344 13.847656 -3.9375 C 13.847656 -4.464844 13.992188 -5.257812 14.183594 -5.929688 Z M 11.328125 -6.191406 "/></g></g></g><g fill="#000000" fill-opacity="1"><g transform="translate(680.755245, 528.524513)"><g><path d="M 6.289062 -17.089844 L 2.640625 -17.136719 C 2.785156 -16.414062 2.808594 -15.40625 2.808594 -14.734375 C 2.808594 -13.273438 2.855469 -10.511719 3.070312 -8.328125 C 3.742188 -1.945312 6.023438 0.40625 8.617188 0.40625 C 10.535156 0.40625 12.023438 -1.054688 13.609375 -5.183594 L 11.207031 -8.0625 C 10.753906 -6.191406 9.816406 -3.40625 8.6875 -3.40625 C 7.199219 -3.40625 6.480469 -5.734375 6.144531 -9.167969 C 6 -10.871094 5.976562 -12.671875 6 -14.207031 C 6 -14.855469 6.121094 -16.246094 6.289062 -17.089844 Z M 18.167969 -16.585938 L 15.144531 -15.574219 C 17.734375 -12.648438 19.007812 -7.054688 19.367188 -3.238281 L 22.511719 -4.441406 C 22.246094 -8.089844 20.425781 -13.824219 18.167969 -16.585938 Z M 18.167969 -16.585938 "/></g></g></g><g fill="#000000" fill-opacity="1"><g transform="translate(704.755289, 528.524513)"><g><path d="M 5.28125 -14.230469 C 7.222656 -14.089844 9.289062 -13.96875 11.785156 -13.96875 C 14.039062 -13.96875 16.992188 -14.136719 18.648438 -14.257812 L 18.648438 -17.449219 C 16.824219 -17.257812 14.113281 -17.113281 11.761719 -17.113281 C 9.265625 -17.113281 7.054688 -17.207031 5.28125 -17.398438 Z M 4.175781 -7.609375 C 3.984375 -6.71875 3.695312 -5.566406 3.695312 -4.175781 C 3.695312 -0.910156 6.433594 0.910156 11.878906 0.910156 C 15.214844 0.910156 18.070312 0.601562 20.136719 0.0976562 L 20.113281 -3.238281 C 18 -2.664062 14.976562 -2.304688 11.761719 -2.304688 C 8.328125 -2.304688 6.886719 -3.40625 6.886719 -4.921875 C 6.886719 -5.710938 7.078125 -6.457031 7.296875 -7.320312 Z M 4.175781 -7.609375 "/></g></g></g><g fill="#000000" fill-opacity="1"><g transform="translate(728.755334, 528.524513)"><g><path d="M 17.785156 -16.726562 C 17.183594 -16.222656 16.488281 -15.816406 15.601562 -15.289062 C 14.472656 -14.664062 12.40625 -13.609375 10.464844 -12.480469 C 9.503906 -14.304688 8.398438 -16.585938 7.488281 -19.054688 L 4.488281 -17.832031 C 5.566406 -15.3125 6.71875 -12.792969 7.824219 -10.753906 C 5.542969 -9.070312 3.886719 -7.128906 3.886719 -4.488281 C 3.886719 -0.40625 7.464844 0.910156 12.191406 0.910156 C 15.289062 0.910156 17.808594 0.671875 19.824219 0.335938 L 19.871094 -3.097656 C 17.761719 -2.617188 14.542969 -2.230469 12.097656 -2.230469 C 8.808594 -2.230469 7.152344 -3.144531 7.152344 -4.847656 C 7.152344 -6.503906 8.472656 -7.871094 10.464844 -9.167969 C 12.625 -10.558594 15.601562 -11.953125 17.089844 -12.695312 C 17.953125 -13.128906 18.71875 -13.535156 19.441406 -13.96875 Z M 17.785156 -16.726562 "/></g></g></g><g fill="#000000" fill-opacity="1"><g transform="translate(640.840562, 321.868187)"><g><path d="M 6.371094 -13.03125 L 6.371094 -12.113281 L 3.546875 -12.113281 L 3.546875 -13.03125 Z M 3.546875 -9.738281 L 3.546875 -10.726562 L 6.371094 -10.726562 L 6.371094 -9.738281 Z M 8.386719 -8.191406 L 8.386719 -14.5625 L 1.457031 -14.5625 L 1.457031 1.566406 L 3.546875 1.566406 L 3.546875 -8.191406 Z M 8.101562 -4.230469 L 8.101562 -5.578125 L 9.773438 -5.578125 L 9.773438 -4.230469 Z M 13.625 -2.484375 L 13.625 -4.230469 L 11.644531 -4.230469 L 11.644531 -5.578125 L 13.339844 -5.578125 L 13.339844 -7.273438 L 4.644531 -7.273438 L 4.644531 -5.578125 L 6.28125 -5.578125 L 6.28125 -4.230469 L 4.390625 -4.230469 L 4.390625 -2.484375 L 6.210938 -2.484375 C 6.03125 -1.566406 5.527344 -0.394531 4.375 0.324219 C 4.789062 0.613281 5.4375 1.171875 5.742188 1.546875 C 7.273438 0.503906 7.867188 -1.242188 8.046875 -2.484375 L 9.773438 -2.484375 L 9.773438 1.222656 L 11.644531 1.222656 L 11.644531 -2.484375 Z M 11.609375 -9.703125 L 11.609375 -10.726562 L 14.527344 -10.726562 L 14.527344 -9.703125 Z M 14.527344 -13.03125 L 14.527344 -12.113281 L 11.609375 -12.113281 L 11.609375 -13.03125 Z M 16.632812 -14.5625 L 9.574219 -14.5625 L 9.574219 -8.152344 L 14.527344 -8.152344 L 14.527344 -0.953125 C 14.527344 -0.703125 14.4375 -0.59375 14.148438 -0.59375 C 13.878906 -0.574219 12.996094 -0.574219 12.1875 -0.613281 C 12.472656 -0.0546875 12.761719 0.917969 12.835938 1.511719 C 14.203125 1.511719 15.136719 1.457031 15.785156 1.097656 C 16.433594 0.757812 16.632812 0.160156 16.632812 -0.9375 Z M 16.632812 -14.5625 "/></g></g></g><g fill="#000000" fill-opacity="1"><g transform="translate(658.840505, 321.868187)"><g><path d="M 10.027344 -5.113281 L 7.8125 -5.113281 L 7.8125 -7.144531 L 10.027344 -7.144531 Z M 13.894531 -7.144531 L 13.894531 -7.722656 C 14.578125 -7.199219 15.316406 -6.75 16.109375 -6.371094 C 16.433594 -6.949219 17.082031 -7.792969 17.585938 -8.226562 C 16.558594 -8.640625 15.625 -9.199219 14.796875 -9.863281 C 15.570312 -10.421875 16.433594 -11.140625 17.171875 -11.808594 L 15.605469 -12.925781 C 15.101562 -12.3125 14.308594 -11.59375 13.589844 -10.980469 C 13.300781 -11.285156 13.03125 -11.59375 12.78125 -11.914062 C 13.519531 -12.457031 14.347656 -13.15625 15.085938 -13.824219 L 13.464844 -14.976562 C 13.050781 -14.472656 12.457031 -13.84375 11.863281 -13.300781 C 11.503906 -13.914062 11.214844 -14.5625 10.960938 -15.226562 L 9.035156 -14.6875 C 9.828125 -12.5625 10.90625 -10.691406 12.3125 -9.179688 L 5.796875 -9.179688 C 7.074219 -10.476562 8.101562 -12.078125 8.730469 -13.96875 L 7.289062 -14.632812 L 6.910156 -14.5625 L 2.214844 -14.5625 L 2.214844 -12.726562 L 5.886719 -12.726562 C 5.5625 -12.148438 5.183594 -11.609375 4.753906 -11.105469 C 4.246094 -11.539062 3.5625 -12.058594 3.023438 -12.4375 L 1.675781 -11.320312 C 2.269531 -10.871094 2.988281 -10.261719 3.457031 -9.792969 C 2.539062 -9 1.511719 -8.371094 0.46875 -7.9375 C 0.882812 -7.542969 1.476562 -6.804688 1.765625 -6.316406 C 2.59375 -6.714844 3.402344 -7.183594 4.15625 -7.738281 L 4.15625 -7.144531 L 5.671875 -7.144531 L 5.671875 -5.113281 L 1.816406 -5.113281 L 1.816406 -3.148438 L 5.382812 -3.148438 C 4.933594 -1.945312 3.851562 -0.828125 1.367188 -0.0703125 C 1.816406 0.324219 2.464844 1.152344 2.734375 1.636719 C 6.066406 0.523438 7.253906 -1.261719 7.648438 -3.148438 L 10.027344 -3.148438 L 10.027344 -1.1875 C 10.027344 0.808594 10.511719 1.441406 12.457031 1.441406 L 14.417969 1.441406 C 16.003906 1.441406 16.558594 0.71875 16.777344 -1.65625 C 16.164062 -1.78125 15.300781 -2.140625 14.851562 -2.503906 C 14.777344 -0.808594 14.6875 -0.449219 14.21875 -0.449219 L 12.835938 -0.449219 C 12.328125 -0.449219 12.257812 -0.558594 12.257812 -1.207031 L 12.257812 -3.148438 L 16.09375 -3.148438 L 16.09375 -5.113281 L 12.257812 -5.113281 L 12.257812 -7.144531 Z M 13.894531 -7.144531 "/></g></g></g><g fill="#000000" fill-opacity="1"><g transform="translate(676.840447, 321.868187)"><g><path d="M 14.128906 -9.503906 C 13.699219 -8.046875 13.105469 -6.714844 12.402344 -5.507812 C 12.097656 -6.949219 11.84375 -8.640625 11.683594 -10.441406 L 17.242188 -10.441406 L 17.242188 -12.5625 L 15.371094 -12.5625 L 16.234375 -13.480469 C 15.605469 -14.074219 14.292969 -14.902344 13.300781 -15.40625 L 12.007812 -14.128906 C 12.742188 -13.679688 13.644531 -13.105469 14.308594 -12.5625 L 11.554688 -12.5625 C 11.519531 -13.445312 11.503906 -14.328125 11.519531 -15.226562 L 9.269531 -15.226562 C 9.269531 -14.328125 9.304688 -13.445312 9.34375 -12.5625 L 1.996094 -12.5625 L 1.996094 -7.308594 C 1.996094 -4.96875 1.871094 -1.835938 0.503906 0.324219 C 0.988281 0.574219 1.945312 1.367188 2.320312 1.78125 C 3.796875 -0.414062 4.175781 -3.925781 4.246094 -6.550781 L 6.589844 -6.550781 C 6.535156 -4.285156 6.460938 -3.421875 6.28125 -3.167969 C 6.136719 -2.988281 5.992188 -2.953125 5.742188 -2.953125 C 5.453125 -2.953125 4.84375 -2.96875 4.195312 -3.023438 C 4.519531 -2.484375 4.753906 -1.65625 4.789062 -1.027344 C 5.617188 -1.007812 6.390625 -1.007812 6.859375 -1.078125 C 7.398438 -1.171875 7.757812 -1.332031 8.101562 -1.800781 C 8.515625 -2.320312 8.621094 -3.925781 8.675781 -7.703125 C 8.675781 -7.957031 8.695312 -8.515625 8.695312 -8.515625 L 4.246094 -8.515625 L 4.246094 -10.441406 L 9.46875 -10.441406 C 9.703125 -7.738281 10.097656 -5.21875 10.710938 -3.1875 C 9.664062 -2.015625 8.425781 -1.027344 7.039062 -0.269531 C 7.488281 0.144531 8.261719 1.027344 8.585938 1.492188 C 9.703125 0.808594 10.710938 0 11.628906 -0.953125 C 12.421875 0.523438 13.410156 1.421875 14.671875 1.421875 C 16.34375 1.421875 17.0625 0.628906 17.40625 -2.699219 C 16.828125 -2.933594 16.074219 -3.402344 15.589844 -3.90625 C 15.496094 -1.65625 15.28125 -0.757812 14.851562 -0.757812 C 14.273438 -0.757812 13.699219 -1.511719 13.175781 -2.808594 C 14.472656 -4.554688 15.535156 -6.640625 16.273438 -8.980469 Z M 14.128906 -9.503906 "/></g></g></g><g fill="#000000" fill-opacity="1"><g transform="translate(694.840389, 321.868187)"><g><path d="M 14.5625 -4.894531 C 13.789062 -4.285156 12.761719 -3.582031 11.808594 -3.023438 C 11.25 -3.582031 10.78125 -4.195312 10.386719 -4.894531 Z M 15.191406 -4.894531 L 17.117188 -4.894531 L 17.117188 -6.785156 L 6.085938 -6.785156 L 6.085938 -7.722656 L 14.742188 -7.722656 L 14.742188 -9.378906 L 6.085938 -9.378906 L 6.085938 -10.277344 L 14.742188 -10.277344 L 14.742188 -11.933594 L 6.085938 -11.933594 L 6.085938 -12.886719 L 15.246094 -12.886719 L 15.246094 -14.632812 L 3.886719 -14.632812 L 3.886719 -6.785156 L 0.898438 -6.785156 L 0.898438 -4.894531 L 3.871094 -4.894531 L 3.871094 -0.773438 C 3.058594 -0.683594 2.320312 -0.574219 1.675781 -0.503906 L 2.160156 1.457031 C 4.339844 1.132812 7.308594 0.683594 10.0625 0.234375 L 9.972656 -1.65625 C 8.675781 -1.457031 7.34375 -1.261719 6.085938 -1.078125 L 6.085938 -4.894531 L 8.152344 -4.894531 C 9.648438 -1.492188 12.042969 0.648438 16.109375 1.585938 C 16.398438 1.007812 17.011719 0.125 17.460938 -0.34375 C 15.804688 -0.648438 14.417969 -1.171875 13.265625 -1.890625 C 14.347656 -2.464844 15.550781 -3.1875 16.578125 -3.925781 Z M 15.191406 -4.894531 "/></g></g></g><g fill="#000000" fill-opacity="1"><g transform="translate(712.840331, 321.868187)"><g><path d="M 15.445312 -12.277344 C 15.101562 -12.941406 14.472656 -14.09375 14.023438 -14.742188 L 12.601562 -14.164062 C 13.050781 -13.519531 13.554688 -12.5625 13.914062 -11.84375 L 13.789062 -11.914062 C 13.390625 -11.789062 12.78125 -11.699219 12.222656 -11.699219 L 8.605469 -11.699219 L 8.65625 -11.789062 C 8.875 -12.1875 9.34375 -12.996094 9.773438 -13.625 L 7.128906 -14.488281 C 6.964844 -13.878906 6.605469 -13.050781 6.316406 -12.601562 C 5.4375 -11.050781 3.871094 -8.730469 0.703125 -6.820312 L 2.71875 -5.308594 C 4.5 -6.515625 6.066406 -8.101562 7.253906 -9.664062 L 12.328125 -9.664062 C 12.042969 -8.335938 10.996094 -6.15625 9.773438 -4.769531 C 8.191406 -2.96875 6.191406 -1.402344 2.519531 -0.304688 L 4.644531 1.601562 C 8.027344 0.253906 10.1875 -1.386719 11.898438 -3.492188 C 13.535156 -5.488281 14.5625 -7.882812 15.046875 -9.503906 C 15.191406 -9.9375 15.445312 -10.441406 15.640625 -10.78125 L 14.113281 -11.71875 Z M 14.722656 -14.976562 C 15.226562 -14.292969 15.804688 -13.246094 16.164062 -12.492188 L 17.605469 -13.105469 C 17.28125 -13.734375 16.613281 -14.886719 16.144531 -15.550781 Z M 14.722656 -14.976562 "/></g></g></g><g fill="#000000" fill-opacity="1"><g transform="translate(730.840273, 321.868187)"><g><path d="M 14.671875 -9.574219 C 14.417969 -9.46875 13.933594 -9.394531 13.355469 -9.394531 L 4.445312 -9.394531 C 3.886719 -9.394531 3.113281 -9.433594 2.359375 -9.503906 L 2.359375 -7.164062 C 3.113281 -7.234375 4.015625 -7.253906 4.445312 -7.253906 L 13.140625 -7.253906 C 12.816406 -6.246094 12.257812 -5.128906 11.285156 -4.140625 C 9.917969 -2.734375 7.757812 -1.546875 5.039062 -0.988281 L 6.839844 1.042969 C 9.144531 0.394531 11.449219 -0.828125 13.265625 -2.84375 C 14.617188 -4.339844 15.390625 -6.085938 15.929688 -7.828125 C 16.003906 -8.027344 16.144531 -8.351562 16.273438 -8.585938 Z M 4.015625 -11.484375 C 4.535156 -11.519531 5.308594 -11.539062 5.886719 -11.539062 L 12.78125 -11.539062 C 13.429688 -11.539062 14.273438 -11.519531 14.761719 -11.484375 L 14.761719 -13.804688 C 14.257812 -13.734375 13.375 -13.714844 12.816406 -13.714844 L 5.886719 -13.714844 C 5.273438 -13.714844 4.519531 -13.734375 4.015625 -13.804688 Z M 4.015625 -11.484375 "/></g></g></g><g fill="#000000" fill-opacity="1"><g transform="translate(748.840215, 321.868187)"><g><path d="M 14.238281 -13.121094 C 13.753906 -12.996094 13.175781 -12.976562 12.816406 -12.976562 L 4.5 -12.976562 C 3.90625 -12.976562 2.878906 -13.066406 2.339844 -13.121094 L 2.339844 -10.585938 C 2.808594 -10.621094 3.671875 -10.65625 4.480469 -10.65625 L 12.871094 -10.65625 C 12.636719 -9.125 11.953125 -7.074219 10.765625 -5.578125 C 9.304688 -3.761719 7.273438 -2.195312 3.707031 -1.367188 L 5.671875 0.792969 C 8.875 -0.234375 11.269531 -2.015625 12.90625 -4.175781 C 14.398438 -6.175781 15.191406 -8.964844 15.605469 -10.726562 C 15.695312 -11.125 15.839844 -11.628906 16.003906 -11.988281 Z M 14.238281 -13.121094 "/></g></g></g></svg>