<svg xmlns="http://www.w3.org/2000/svg" xmlns:xlink="http://www.w3.org/1999/xlink" width="500" zoomAndPan="magnify" viewBox="0 0 375 374.999991" height="500" preserveAspectRatio="xMidYMid meet" version="1.0"><defs><g/><clipPath id="06df188f4d"><path d="M 38.570312 37.5 L 337.5 37.5 L 337.5 131.875 L 38.570312 131.875 Z M 38.570312 37.5 " clip-rule="nonzero"/></clipPath><clipPath id="e9cbec902f"><path d="M 56.570312 37.5 L 319.5 37.5 C 324.273438 37.5 328.851562 39.394531 332.226562 42.773438 C 335.605469 46.148438 337.5 50.726562 337.5 55.5 L 337.5 113.875 C 337.5 118.648438 335.605469 123.226562 332.226562 126.601562 C 328.851562 129.980469 324.273438 131.875 319.5 131.875 L 56.570312 131.875 C 51.796875 131.875 47.21875 129.980469 43.84375 126.601562 C 40.464844 123.226562 38.570312 118.648438 38.570312 113.875 L 38.570312 55.5 C 38.570312 50.726562 40.464844 46.148438 43.84375 42.773438 C 47.21875 39.394531 51.796875 37.5 56.570312 37.5 Z M 56.570312 37.5 " clip-rule="nonzero"/></clipPath><clipPath id="2bc052a00c"><path d="M 38.574219 37.5 L 337.820312 37.5 L 337.820312 132 L 38.574219 132 Z M 38.574219 37.5 " clip-rule="nonzero"/></clipPath><clipPath id="644560ee29"><path d="M 56.570312 37.5 L 319.488281 37.5 C 324.261719 37.5 328.839844 39.394531 332.21875 42.773438 C 335.59375 46.148438 337.488281 50.726562 337.488281 55.5 L 337.488281 113.871094 C 337.488281 118.644531 335.59375 123.222656 332.21875 126.597656 C 328.839844 129.976562 324.261719 131.871094 319.488281 131.871094 L 56.570312 131.871094 C 51.796875 131.871094 47.21875 129.976562 43.84375 126.597656 C 40.46875 123.222656 38.574219 118.644531 38.574219 113.871094 L 38.574219 55.5 C 38.574219 50.726562 40.46875 46.148438 43.84375 42.773438 C 47.21875 39.394531 51.796875 37.5 56.570312 37.5 Z M 56.570312 37.5 " clip-rule="nonzero"/></clipPath><clipPath id="ef5141713e"><path d="M 87.75 195.242188 L 299 195.242188 L 299 351.242188 L 87.75 351.242188 Z M 87.75 195.242188 " clip-rule="nonzero"/></clipPath></defs><g clip-path="url(#06df188f4d)"><g clip-path="url(#e9cbec902f)"><path fill="#f2cdfc" d="M 38.570312 37.5 L 337.5 37.5 L 337.5 131.875 L 38.570312 131.875 Z M 38.570312 37.5 " fill-opacity="1" fill-rule="nonzero"/></g></g><g clip-path="url(#2bc052a00c)"><g clip-path="url(#644560ee29)"><path stroke-linecap="butt" transform="matrix(0.75, 0, 0, 0.75, 38.57267, 37.499998)" fill="none" stroke-linejoin="miter" d="M 23.996859 0.00000328333 L 374.554196 0.00000328333 C 380.91878 0.00000328333 387.022948 2.526045 391.528157 7.031254 C 396.028157 11.531255 398.554199 17.635422 398.554199 24.000006 L 398.554199 101.828141 C 398.554199 108.192726 396.028157 114.296893 391.528157 118.796894 C 387.022948 123.302103 380.91878 125.828145 374.554196 125.828145 L 23.996859 125.828145 C 17.632275 125.828145 11.528108 123.302103 7.028107 118.796894 C 2.528106 114.296893 0.0020644 108.192726 0.0020644 101.828141 L 0.0020644 24.000006 C 0.0020644 17.635422 2.528106 11.531255 7.028107 7.031254 C 11.528108 2.526045 17.632275 0.00000328333 23.996859 0.00000328333 Z M 23.996859 0.00000328333 " stroke="#3a3937" stroke-width="4" stroke-opacity="1" stroke-miterlimit="4"/></g></g><g fill="#000000" fill-opacity="1"><g transform="translate(99.299198, 107.562778)"><g><path d="M 7.9375 -13.5 C 9.6875 -10.988281 11.507812 -9.035156 13.40625 -7.640625 C 15.300781 -6.253906 17.765625 -5.5625 20.796875 -5.5625 C 22.242188 -5.5625 23.628906 -5.796875 24.953125 -6.265625 C 26.273438 -6.734375 27.363281 -7.414062 28.21875 -8.3125 C 29.070312 -9.207031 29.5 -10.273438 29.5 -11.515625 C 29.5 -13.648438 28.59375 -15.3125 26.78125 -16.5 C 24.96875 -17.695312 22.421875 -18.617188 19.140625 -19.265625 C 14.953125 -20.117188 11.617188 -21.597656 9.140625 -23.703125 C 6.671875 -25.816406 5.4375 -28.878906 5.4375 -32.890625 C 5.4375 -35.453125 6.148438 -37.671875 7.578125 -39.546875 C 9.015625 -41.429688 10.90625 -42.882812 13.25 -43.90625 C 15.59375 -44.925781 18.128906 -45.4375 20.859375 -45.4375 C 24.398438 -45.4375 27.453125 -44.753906 30.015625 -43.390625 C 32.578125 -42.023438 34.582031 -40.082031 36.03125 -37.5625 L 31.171875 -32.765625 C 30.015625 -34.679688 28.5625 -36.238281 26.8125 -37.4375 C 25.0625 -38.632812 23.015625 -39.234375 20.671875 -39.234375 C 18.328125 -39.234375 16.351562 -38.6875 14.75 -37.59375 C 13.15625 -36.507812 12.359375 -35.007812 12.359375 -33.09375 C 12.359375 -30.914062 13.195312 -29.320312 14.875 -28.3125 C 16.5625 -27.3125 18.789062 -26.515625 21.5625 -25.921875 C 24.082031 -25.410156 26.472656 -24.617188 28.734375 -23.546875 C 30.992188 -22.484375 32.835938 -21.109375 34.265625 -19.421875 C 35.703125 -17.734375 36.421875 -15.695312 36.421875 -13.3125 C 36.421875 -9.039062 34.96875 -5.644531 32.0625 -3.125 C 29.164062 -0.613281 25.175781 0.640625 20.09375 0.640625 C 16.632812 0.640625 13.488281 -0.0390625 10.65625 -1.40625 C 7.820312 -2.769531 5.335938 -4.988281 3.203125 -8.0625 Z M 7.9375 -13.5 "/></g></g></g><g fill="#000000" fill-opacity="1"><g transform="translate(139.232748, 107.562778)"><g><path d="M 15.359375 0 L 8.765625 0 L 8.765625 -27.203125 L 1.796875 -27.203125 L 1.796875 -33.59375 L 8.765625 -33.59375 L 8.765625 -42.171875 L 15.359375 -42.171875 L 15.359375 -33.59375 L 23.171875 -33.59375 L 23.171875 -27.203125 L 15.359375 -27.203125 Z M 15.359375 0 "/></g></g></g><g fill="#000000" fill-opacity="1"><g transform="translate(163.807239, 107.562778)"><g><path d="M 33.46875 -4.421875 L 33.40625 -4.421875 C 32.039062 -3.097656 30.160156 -1.921875 27.765625 -0.890625 C 25.378906 0.128906 22.882812 0.640625 20.28125 0.640625 C 16.789062 0.640625 13.710938 -0.09375 11.046875 -1.5625 C 8.378906 -3.039062 6.296875 -5.066406 4.796875 -7.640625 C 3.304688 -10.222656 2.5625 -13.160156 2.5625 -16.453125 C 2.5625 -20.203125 3.347656 -23.410156 4.921875 -26.078125 C 6.503906 -28.742188 8.597656 -30.789062 11.203125 -32.21875 C 13.804688 -33.65625 16.644531 -34.375 19.71875 -34.375 C 22.53125 -34.375 25.085938 -33.675781 27.390625 -32.28125 C 29.691406 -30.894531 31.523438 -28.984375 32.890625 -26.546875 C 34.253906 -24.117188 34.9375 -21.285156 34.9375 -18.046875 L 34.875 -15.234375 L 9.15625 -15.234375 C 9.539062 -12.203125 10.785156 -9.800781 12.890625 -8.03125 C 15.003906 -6.257812 17.679688 -5.375 20.921875 -5.375 C 23.273438 -5.375 25.175781 -5.8125 26.625 -6.6875 C 28.070312 -7.5625 29.265625 -8.40625 30.203125 -9.21875 Z M 19.71875 -28.28125 C 17.195312 -28.28125 14.992188 -27.691406 13.109375 -26.515625 C 11.234375 -25.347656 10 -23.335938 9.40625 -20.484375 L 28.21875 -20.484375 L 28.21875 -20.921875 C 28.09375 -22.378906 27.613281 -23.660156 26.78125 -24.765625 C 25.945312 -25.878906 24.910156 -26.742188 23.671875 -27.359375 C 22.441406 -27.972656 21.125 -28.28125 19.71875 -28.28125 Z M 19.71875 -28.28125 "/></g></g></g><g fill="#000000" fill-opacity="1"><g transform="translate(201.308943, 107.562778)"><g><path d="M 22.140625 -34.171875 C 25.128906 -34.171875 27.804688 -33.4375 30.171875 -31.96875 C 32.546875 -30.5 34.414062 -28.460938 35.78125 -25.859375 C 37.144531 -23.253906 37.828125 -20.242188 37.828125 -16.828125 C 37.828125 -13.460938 37.144531 -10.46875 35.78125 -7.84375 C 34.414062 -5.21875 32.554688 -3.15625 30.203125 -1.65625 C 27.859375 -0.164062 25.238281 0.578125 22.34375 0.578125 C 19.945312 0.578125 17.773438 0.0664062 15.828125 -0.953125 C 13.890625 -1.984375 12.367188 -3.160156 11.265625 -4.484375 L 11.265625 14.078125 L 4.609375 14.078125 L 4.609375 -33.65625 L 11.265625 -33.65625 L 11.265625 -28.734375 C 12.242188 -30.140625 13.710938 -31.394531 15.671875 -32.5 C 17.640625 -33.613281 19.796875 -34.171875 22.140625 -34.171875 Z M 21.25 -28.09375 C 19.238281 -28.09375 17.453125 -27.601562 15.890625 -26.625 C 14.335938 -25.644531 13.125 -24.3125 12.25 -22.625 C 11.375 -20.9375 10.9375 -19.003906 10.9375 -16.828125 C 10.9375 -14.691406 11.375 -12.769531 12.25 -11.0625 C 13.125 -9.363281 14.335938 -8.007812 15.890625 -7 C 17.453125 -6 19.238281 -5.5 21.25 -5.5 C 23.25 -5.5 25.015625 -6 26.546875 -7 C 28.085938 -8.007812 29.296875 -9.363281 30.171875 -11.0625 C 31.046875 -12.769531 31.484375 -14.691406 31.484375 -16.828125 C 31.484375 -19.003906 31.046875 -20.9375 30.171875 -22.625 C 29.296875 -24.3125 28.085938 -25.644531 26.546875 -26.625 C 25.015625 -27.601562 23.25 -28.09375 21.25 -28.09375 Z M 21.25 -28.09375 "/></g></g></g><g fill="#000000" fill-opacity="1"><g transform="translate(241.690459, 107.562778)"><g><path d="M 33.03125 -6.65625 L 33.03125 0 L 5.953125 0 L 3.84375 -5.25 L 17.53125 -20.671875 C 19.28125 -22.628906 20.878906 -24.585938 22.328125 -26.546875 C 23.785156 -28.515625 24.515625 -30.523438 24.515625 -32.578125 C 24.515625 -34.710938 23.894531 -36.320312 22.65625 -37.40625 C 21.414062 -38.5 19.796875 -39.046875 17.796875 -39.046875 C 16.804688 -39.046875 15.710938 -38.742188 14.515625 -38.140625 C 13.328125 -37.546875 12.195312 -36.609375 11.125 -35.328125 C 10.0625 -34.046875 9.210938 -32.359375 8.578125 -30.265625 L 3.265625 -33.59375 C 4.410156 -37.5625 6.398438 -40.523438 9.234375 -42.484375 C 12.078125 -44.453125 15.207031 -45.4375 18.625 -45.4375 C 21.050781 -45.4375 23.242188 -44.9375 25.203125 -43.9375 C 27.171875 -42.9375 28.726562 -41.515625 29.875 -39.671875 C 31.03125 -37.835938 31.609375 -35.644531 31.609375 -33.09375 C 31.609375 -30.144531 30.722656 -27.226562 28.953125 -24.34375 C 27.179688 -21.46875 25.019531 -18.625 22.46875 -15.8125 L 14.078125 -6.65625 Z M 33.03125 -6.65625 "/></g></g></g><path fill="#f6f4e7" d="M 297.441406 212.816406 L 297.441406 279.722656 C 297.441406 288.550781 290.28125 295.710938 281.453125 295.710938 L 271.890625 295.710938 L 276.824219 316.390625 L 238.332031 295.710938 L 173.296875 295.710938 C 164.46875 295.710938 157.3125 288.550781 157.3125 279.722656 L 157.3125 212.816406 C 157.3125 203.988281 164.46875 196.828125 173.296875 196.828125 L 281.453125 196.828125 C 290.28125 196.828125 297.441406 203.988281 297.441406 212.816406 Z M 297.441406 212.816406 " fill-opacity="1" fill-rule="nonzero"/><path fill="#f2cdfc" d="M 229.363281 245.953125 L 229.363281 312.863281 C 229.363281 321.691406 222.203125 328.847656 213.375 328.847656 L 148.34375 328.847656 L 109.851562 349.527344 L 114.78125 328.847656 L 105.21875 328.847656 C 96.390625 328.847656 89.234375 321.691406 89.234375 312.863281 L 89.234375 245.953125 C 89.234375 237.125 96.390625 229.96875 105.21875 229.96875 L 213.375 229.96875 C 222.203125 229.96875 229.363281 237.125 229.363281 245.953125 Z M 229.363281 245.953125 " fill-opacity="1" fill-rule="nonzero"/><g clip-path="url(#ef5141713e)"><path fill="#000000" d="M 281.453125 195.351562 L 173.296875 195.351562 C 163.667969 195.351562 155.835938 203.1875 155.835938 212.816406 L 155.835938 228.492188 L 105.21875 228.492188 C 95.589844 228.492188 87.757812 236.324219 87.757812 245.953125 L 87.757812 312.863281 C 87.757812 322.492188 95.589844 330.324219 105.21875 330.324219 L 112.910156 330.324219 L 108.414062 349.1875 C 108.277344 349.753906 108.488281 350.34375 108.949219 350.699219 C 109.214844 350.902344 109.53125 351.007812 109.851562 351.007812 C 110.089844 351.007812 110.332031 350.949219 110.550781 350.832031 L 148.714844 330.324219 L 213.375 330.324219 C 223.003906 330.324219 230.839844 322.492188 230.839844 312.863281 L 230.839844 297.1875 L 237.957031 297.1875 L 276.121094 317.691406 C 276.34375 317.808594 276.582031 317.867188 276.820312 317.867188 C 277.140625 317.867188 277.460938 317.765625 277.722656 317.558594 C 278.183594 317.207031 278.394531 316.613281 278.257812 316.046875 L 273.761719 297.1875 L 281.453125 297.1875 C 291.082031 297.1875 298.914062 289.355469 298.914062 279.726562 L 298.914062 212.816406 C 298.914062 203.1875 291.082031 195.351562 281.453125 195.351562 Z M 213.375 327.371094 L 148.34375 327.371094 C 148.097656 327.371094 147.859375 327.429688 147.644531 327.546875 L 112.050781 346.667969 L 116.21875 329.191406 C 116.324219 328.75 116.222656 328.289062 115.941406 327.933594 C 115.660156 327.578125 115.234375 327.371094 114.78125 327.371094 L 105.21875 327.371094 C 97.21875 327.371094 90.710938 320.863281 90.710938 312.863281 L 90.710938 245.953125 C 90.710938 237.953125 97.21875 231.445312 105.21875 231.445312 L 157.308594 231.445312 C 157.308594 231.445312 157.3125 231.445312 157.3125 231.445312 C 157.316406 231.445312 157.316406 231.445312 157.320312 231.445312 L 213.375 231.445312 C 221.375 231.445312 227.882812 237.953125 227.882812 245.953125 L 227.882812 258.046875 C 227.882812 258.046875 227.882812 258.050781 227.882812 258.050781 C 227.882812 258.050781 227.882812 258.054688 227.882812 258.054688 L 227.882812 276.777344 C 227.882812 276.78125 227.882812 276.78125 227.882812 276.78125 C 227.882812 276.785156 227.882812 276.785156 227.882812 276.785156 L 227.882812 295.707031 C 227.882812 295.707031 227.882812 295.710938 227.882812 295.710938 C 227.882812 295.710938 227.882812 295.714844 227.882812 295.714844 L 227.882812 312.863281 C 227.882812 320.863281 221.375 327.371094 213.375 327.371094 Z M 295.960938 279.726562 C 295.960938 287.726562 289.453125 294.234375 281.453125 294.234375 L 271.890625 294.234375 C 271.4375 294.234375 271.011719 294.441406 270.730469 294.792969 C 270.449219 295.148438 270.347656 295.613281 270.453125 296.054688 L 274.621094 313.53125 L 239.027344 294.410156 C 238.8125 294.292969 238.574219 294.234375 238.328125 294.234375 L 230.839844 294.234375 L 230.839844 278.261719 L 280.324219 278.261719 C 281.140625 278.261719 281.804688 277.597656 281.804688 276.78125 C 281.804688 275.96875 281.140625 275.304688 280.324219 275.304688 L 230.839844 275.304688 L 230.839844 259.527344 L 280.324219 259.527344 C 281.140625 259.527344 281.804688 258.867188 281.804688 258.050781 C 281.804688 257.234375 281.140625 256.574219 280.324219 256.574219 L 230.839844 256.574219 L 230.839844 245.953125 C 230.839844 244.160156 230.566406 242.425781 230.0625 240.796875 L 280.324219 240.796875 C 281.140625 240.796875 281.804688 240.136719 281.804688 239.320312 C 281.804688 238.503906 281.140625 237.84375 280.324219 237.84375 L 228.832031 237.84375 C 225.90625 232.289062 220.078125 228.492188 213.375 228.492188 L 158.789062 228.492188 L 158.789062 212.816406 C 158.789062 204.816406 165.296875 198.308594 173.296875 198.308594 L 281.453125 198.308594 C 289.453125 198.308594 295.960938 204.816406 295.960938 212.816406 Z M 281.804688 220.589844 C 281.804688 221.40625 281.140625 222.066406 280.324219 222.066406 L 174.425781 222.066406 C 173.609375 222.066406 172.949219 221.40625 172.949219 220.589844 C 172.949219 219.773438 173.609375 219.113281 174.425781 219.113281 L 280.324219 219.113281 C 281.140625 219.113281 281.804688 219.773438 281.804688 220.589844 Z M 213.726562 253.726562 C 213.726562 254.542969 213.0625 255.207031 212.246094 255.207031 L 106.347656 255.207031 C 105.53125 255.207031 104.871094 254.542969 104.871094 253.726562 C 104.871094 252.914062 105.53125 252.25 106.347656 252.25 L 212.246094 252.25 C 213.0625 252.25 213.726562 252.914062 213.726562 253.726562 Z M 213.726562 272.460938 C 213.726562 273.273438 213.0625 273.9375 212.246094 273.9375 L 106.347656 273.9375 C 105.53125 273.9375 104.871094 273.273438 104.871094 272.460938 C 104.871094 271.644531 105.53125 270.980469 106.347656 270.980469 L 212.246094 270.980469 C 213.0625 270.980469 213.726562 271.644531 213.726562 272.460938 Z M 213.726562 291.191406 C 213.726562 292.003906 213.0625 292.667969 212.246094 292.667969 L 106.347656 292.667969 C 105.53125 292.667969 104.871094 292.003906 104.871094 291.191406 C 104.871094 290.375 105.53125 289.710938 106.347656 289.710938 L 212.246094 289.710938 C 213.0625 289.710938 213.726562 290.375 213.726562 291.191406 Z M 213.726562 309.917969 C 213.726562 310.734375 213.0625 311.398438 212.246094 311.398438 L 106.347656 311.398438 C 105.53125 311.398438 104.871094 310.734375 104.871094 309.917969 C 104.871094 309.105469 105.53125 308.441406 106.347656 308.441406 L 212.246094 308.441406 C 213.0625 308.441406 213.726562 309.105469 213.726562 309.917969 Z M 213.726562 309.917969 " fill-opacity="1" fill-rule="nonzero"/></g></svg>