<svg xmlns="http://www.w3.org/2000/svg" xmlns:xlink="http://www.w3.org/1999/xlink" width="500" zoomAndPan="magnify" viewBox="0 0 375 374.999991" height="500" preserveAspectRatio="xMidYMid meet" version="1.0"><defs><g/><clipPath id="fd38b3698d"><path d="M 49.890625 31.757812 L 330.308594 31.757812 L 330.308594 115.570312 L 49.890625 115.570312 Z M 49.890625 31.757812 " clip-rule="nonzero"/></clipPath><clipPath id="0d1b4c2337"><path d="M 67.890625 31.757812 L 312.308594 31.757812 C 317.082031 31.757812 321.660156 33.652344 325.035156 37.03125 C 328.414062 40.40625 330.308594 44.984375 330.308594 49.757812 L 330.308594 97.570312 C 330.308594 102.34375 328.414062 106.921875 325.035156 110.296875 C 321.660156 113.671875 317.082031 115.570312 312.308594 115.570312 L 67.890625 115.570312 C 63.117188 115.570312 58.539062 113.671875 55.164062 110.296875 C 51.789062 106.921875 49.890625 102.34375 49.890625 97.570312 L 49.890625 49.757812 C 49.890625 44.984375 51.789062 40.40625 55.164062 37.03125 C 58.539062 33.652344 63.117188 31.757812 67.890625 31.757812 Z M 67.890625 31.757812 " clip-rule="nonzero"/></clipPath><clipPath id="5c69ceeacd"><path d="M 49.902344 31.757812 L 330.390625 31.757812 L 330.390625 115.757812 L 49.902344 115.757812 Z M 49.902344 31.757812 " clip-rule="nonzero"/></clipPath><clipPath id="50c6bb1105"><path d="M 67.902344 31.757812 L 312.289062 31.757812 C 317.0625 31.757812 321.636719 33.652344 325.011719 37.027344 C 328.390625 40.40625 330.285156 44.980469 330.285156 49.753906 L 330.285156 97.5625 C 330.285156 102.335938 328.390625 106.910156 325.011719 110.289062 C 321.636719 113.664062 317.0625 115.558594 312.289062 115.558594 L 67.902344 115.558594 C 63.128906 115.558594 58.550781 113.664062 55.175781 110.289062 C 51.800781 106.910156 49.902344 102.335938 49.902344 97.5625 L 49.902344 49.753906 C 49.902344 44.980469 51.800781 40.40625 55.175781 37.027344 C 58.550781 33.652344 63.128906 31.757812 67.902344 31.757812 Z M 67.902344 31.757812 " clip-rule="nonzero"/></clipPath><clipPath id="a627b729fc"><path d="M 113.164062 180.699219 L 275.914062 180.699219 L 275.914062 329.199219 L 113.164062 329.199219 Z M 113.164062 180.699219 " clip-rule="nonzero"/></clipPath></defs><g clip-path="url(#fd38b3698d)"><g clip-path="url(#0d1b4c2337)"><path fill="#295df6" d="M 49.890625 31.757812 L 330.308594 31.757812 L 330.308594 115.570312 L 49.890625 115.570312 Z M 49.890625 31.757812 " fill-opacity="1" fill-rule="nonzero"/></g></g><g clip-path="url(#5c69ceeacd)"><g clip-path="url(#50c6bb1105)"><path stroke-linecap="butt" transform="matrix(0.75, 0, 0, 0.75, 49.903616, 31.757803)" fill="none" stroke-linejoin="miter" d="M 23.998303 0.0000126206 L 349.847262 0.0000126206 C 356.211845 0.0000126206 362.310804 2.526054 366.810804 7.026054 C 371.316012 11.531263 373.842054 17.630221 373.842054 23.994804 L 373.842054 87.739596 C 373.842054 94.104179 371.316012 100.203138 366.810804 104.708346 C 362.310804 109.208346 356.211845 111.734388 349.847262 111.734388 L 23.998303 111.734388 C 17.63372 111.734388 11.529553 109.208346 7.029553 104.708346 C 2.529553 100.203138 -0.0016969 94.104179 -0.0016969 87.739596 L -0.0016969 23.994804 C -0.0016969 17.630221 2.529553 11.531263 7.029553 7.026054 C 11.529553 2.526054 17.63372 0.0000126206 23.998303 0.0000126206 Z M 23.998303 0.0000126206 " stroke="#3a3937" stroke-width="4" stroke-opacity="1" stroke-miterlimit="4"/></g></g><g fill="#ffffff" fill-opacity="1"><g transform="translate(107.410077, 92.917798)"><g><path d="M 7.9375 -13.5 C 9.6875 -10.988281 11.507812 -9.035156 13.40625 -7.640625 C 15.300781 -6.253906 17.765625 -5.5625 20.796875 -5.5625 C 22.242188 -5.5625 23.628906 -5.796875 24.953125 -6.265625 C 26.273438 -6.734375 27.363281 -7.414062 28.21875 -8.3125 C 29.070312 -9.207031 29.5 -10.273438 29.5 -11.515625 C 29.5 -13.648438 28.59375 -15.3125 26.78125 -16.5 C 24.96875 -17.695312 22.421875 -18.617188 19.140625 -19.265625 C 14.953125 -20.117188 11.617188 -21.597656 9.140625 -23.703125 C 6.671875 -25.816406 5.4375 -28.878906 5.4375 -32.890625 C 5.4375 -35.453125 6.148438 -37.671875 7.578125 -39.546875 C 9.015625 -41.429688 10.90625 -42.882812 13.25 -43.90625 C 15.59375 -44.925781 18.128906 -45.4375 20.859375 -45.4375 C 24.398438 -45.4375 27.453125 -44.753906 30.015625 -43.390625 C 32.578125 -42.023438 34.582031 -40.082031 36.03125 -37.5625 L 31.171875 -32.765625 C 30.015625 -34.679688 28.5625 -36.238281 26.8125 -37.4375 C 25.0625 -38.632812 23.015625 -39.234375 20.671875 -39.234375 C 18.328125 -39.234375 16.351562 -38.6875 14.75 -37.59375 C 13.15625 -36.507812 12.359375 -35.007812 12.359375 -33.09375 C 12.359375 -30.914062 13.195312 -29.320312 14.875 -28.3125 C 16.5625 -27.3125 18.789062 -26.515625 21.5625 -25.921875 C 24.082031 -25.410156 26.472656 -24.617188 28.734375 -23.546875 C 30.992188 -22.484375 32.835938 -21.109375 34.265625 -19.421875 C 35.703125 -17.734375 36.421875 -15.695312 36.421875 -13.3125 C 36.421875 -9.039062 34.96875 -5.644531 32.0625 -3.125 C 29.164062 -0.613281 25.175781 0.640625 20.09375 0.640625 C 16.632812 0.640625 13.488281 -0.0390625 10.65625 -1.40625 C 7.820312 -2.769531 5.335938 -4.988281 3.203125 -8.0625 Z M 7.9375 -13.5 "/></g></g></g><g fill="#ffffff" fill-opacity="1"><g transform="translate(147.343626, 92.917798)"><g><path d="M 15.359375 0 L 8.765625 0 L 8.765625 -27.203125 L 1.796875 -27.203125 L 1.796875 -33.59375 L 8.765625 -33.59375 L 8.765625 -42.171875 L 15.359375 -42.171875 L 15.359375 -33.59375 L 23.171875 -33.59375 L 23.171875 -27.203125 L 15.359375 -27.203125 Z M 15.359375 0 "/></g></g></g><g fill="#ffffff" fill-opacity="1"><g transform="translate(171.918118, 92.917798)"><g><path d="M 33.46875 -4.421875 L 33.40625 -4.421875 C 32.039062 -3.097656 30.160156 -1.921875 27.765625 -0.890625 C 25.378906 0.128906 22.882812 0.640625 20.28125 0.640625 C 16.789062 0.640625 13.710938 -0.09375 11.046875 -1.5625 C 8.378906 -3.039062 6.296875 -5.066406 4.796875 -7.640625 C 3.304688 -10.222656 2.5625 -13.160156 2.5625 -16.453125 C 2.5625 -20.203125 3.347656 -23.410156 4.921875 -26.078125 C 6.503906 -28.742188 8.597656 -30.789062 11.203125 -32.21875 C 13.804688 -33.65625 16.644531 -34.375 19.71875 -34.375 C 22.53125 -34.375 25.085938 -33.675781 27.390625 -32.28125 C 29.691406 -30.894531 31.523438 -28.984375 32.890625 -26.546875 C 34.253906 -24.117188 34.9375 -21.285156 34.9375 -18.046875 L 34.875 -15.234375 L 9.15625 -15.234375 C 9.539062 -12.203125 10.785156 -9.800781 12.890625 -8.03125 C 15.003906 -6.257812 17.679688 -5.375 20.921875 -5.375 C 23.273438 -5.375 25.175781 -5.8125 26.625 -6.6875 C 28.070312 -7.5625 29.265625 -8.40625 30.203125 -9.21875 Z M 19.71875 -28.28125 C 17.195312 -28.28125 14.992188 -27.691406 13.109375 -26.515625 C 11.234375 -25.347656 10 -23.335938 9.40625 -20.484375 L 28.21875 -20.484375 L 28.21875 -20.921875 C 28.09375 -22.378906 27.613281 -23.660156 26.78125 -24.765625 C 25.945312 -25.878906 24.910156 -26.742188 23.671875 -27.359375 C 22.441406 -27.972656 21.125 -28.28125 19.71875 -28.28125 Z M 19.71875 -28.28125 "/></g></g></g><g fill="#ffffff" fill-opacity="1"><g transform="translate(209.419821, 92.917798)"><g><path d="M 22.140625 -34.171875 C 25.128906 -34.171875 27.804688 -33.4375 30.171875 -31.96875 C 32.546875 -30.5 34.414062 -28.460938 35.78125 -25.859375 C 37.144531 -23.253906 37.828125 -20.242188 37.828125 -16.828125 C 37.828125 -13.460938 37.144531 -10.46875 35.78125 -7.84375 C 34.414062 -5.21875 32.554688 -3.15625 30.203125 -1.65625 C 27.859375 -0.164062 25.238281 0.578125 22.34375 0.578125 C 19.945312 0.578125 17.773438 0.0664062 15.828125 -0.953125 C 13.890625 -1.984375 12.367188 -3.160156 11.265625 -4.484375 L 11.265625 14.078125 L 4.609375 14.078125 L 4.609375 -33.65625 L 11.265625 -33.65625 L 11.265625 -28.734375 C 12.242188 -30.140625 13.710938 -31.394531 15.671875 -32.5 C 17.640625 -33.613281 19.796875 -34.171875 22.140625 -34.171875 Z M 21.25 -28.09375 C 19.238281 -28.09375 17.453125 -27.601562 15.890625 -26.625 C 14.335938 -25.644531 13.125 -24.3125 12.25 -22.625 C 11.375 -20.9375 10.9375 -19.003906 10.9375 -16.828125 C 10.9375 -14.691406 11.375 -12.769531 12.25 -11.0625 C 13.125 -9.363281 14.335938 -8.007812 15.890625 -7 C 17.453125 -6 19.238281 -5.5 21.25 -5.5 C 23.25 -5.5 25.015625 -6 26.546875 -7 C 28.085938 -8.007812 29.296875 -9.363281 30.171875 -11.0625 C 31.046875 -12.769531 31.484375 -14.691406 31.484375 -16.828125 C 31.484375 -19.003906 31.046875 -20.9375 30.171875 -22.625 C 29.296875 -24.3125 28.085938 -25.644531 26.546875 -26.625 C 25.015625 -27.601562 23.25 -28.09375 21.25 -28.09375 Z M 21.25 -28.09375 "/></g></g></g><g fill="#ffffff" fill-opacity="1"><g transform="translate(249.801337, 92.917798)"><g><path d="M 28.15625 0 L 6.78125 0 L 6.78125 -6.65625 L 13.890625 -6.65625 L 13.890625 -36.421875 L 7.421875 -33.03125 L 5.5625 -39.046875 L 17.53125 -45.4375 L 20.859375 -45.4375 L 20.859375 -6.65625 L 28.15625 -6.65625 Z M 28.15625 0 "/></g></g></g><path fill="#f6f4e7" d="M 262.089844 194.722656 L 262.089844 279.824219 L 127.097656 279.824219 L 127.097656 194.722656 Z M 217.921875 318.828125 C 217.578125 318.113281 217.347656 317.351562 217.238281 316.5625 L 213.878906 292.699219 L 175.308594 292.699219 L 171.949219 316.5625 C 171.839844 317.351562 171.609375 318.113281 171.265625 318.828125 L 168.726562 324.136719 C 167.835938 325.992188 169.191406 328.136719 171.246094 328.136719 L 217.941406 328.136719 C 219.996094 328.136719 221.351562 325.992188 220.460938 324.136719 Z M 197.289062 285.929688 C 197.289062 284.441406 196.082031 283.234375 194.59375 283.234375 C 193.105469 283.234375 191.898438 284.441406 191.898438 285.929688 C 191.898438 287.417969 193.105469 288.625 194.59375 288.625 C 196.082031 288.625 197.289062 287.417969 197.289062 285.929688 Z M 197.289062 285.929688 " fill-opacity="1" fill-rule="nonzero"/><path fill="#295df6" d="M 245.640625 223.792969 L 143.546875 223.792969 L 143.546875 213.460938 C 143.546875 211.554688 145.097656 210.007812 147 210.007812 L 242.1875 210.007812 C 244.089844 210.007812 245.640625 211.554688 245.640625 213.460938 Z M 274.894531 187.351562 L 274.894531 287.265625 C 274.894531 290.265625 272.460938 292.703125 269.457031 292.703125 L 119.726562 292.703125 C 116.726562 292.703125 114.292969 290.265625 114.292969 287.265625 L 114.292969 187.351562 C 114.292969 184.351562 116.726562 181.917969 119.726562 181.917969 L 269.457031 181.917969 C 272.460938 181.917969 274.894531 184.351562 274.894531 187.351562 Z M 262.089844 194.722656 L 127.097656 194.722656 L 127.097656 279.824219 L 262.089844 279.824219 Z M 242.703125 242.167969 L 246.613281 250.164062 C 246.886719 250.722656 247.65625 250.773438 248 250.261719 L 248.894531 248.9375 C 249.140625 248.570312 249.640625 248.472656 250.007812 248.71875 L 253.484375 251.058594 C 253.851562 251.308594 254.351562 251.210938 254.597656 250.839844 L 255.992188 248.769531 C 256.242188 248.402344 256.144531 247.902344 255.777344 247.65625 L 252.300781 245.316406 C 251.933594 245.066406 251.835938 244.566406 252.082031 244.199219 L 252.972656 242.875 C 253.316406 242.363281 252.976562 241.667969 252.363281 241.625 L 243.480469 241.015625 C 242.863281 240.972656 242.433594 241.613281 242.703125 242.167969 Z M 242.703125 242.167969 " fill-opacity="1" fill-rule="nonzero"/><g clip-path="url(#a627b729fc)"><path fill="#000000" d="M 147 265.074219 L 242.1875 265.074219 C 244.71875 265.074219 246.777344 263.011719 246.777344 260.480469 L 246.777344 251.671875 C 246.914062 251.710938 247.054688 251.742188 247.203125 251.75 C 247.898438 251.800781 248.554688 251.480469 248.945312 250.898438 L 249.652344 249.851562 L 252.847656 252.003906 C 253.179688 252.226562 253.554688 252.335938 253.929688 252.335938 C 254.554688 252.335938 255.167969 252.035156 255.542969 251.476562 L 256.9375 249.40625 C 257.539062 248.515625 257.300781 247.308594 256.410156 246.710938 L 253.214844 244.558594 L 253.917969 243.511719 C 254.308594 242.929688 254.359375 242.207031 254.050781 241.574219 C 253.742188 240.945312 253.140625 240.539062 252.441406 240.488281 L 246.777344 240.097656 L 246.777344 213.460938 C 246.777344 210.925781 244.71875 208.867188 242.1875 208.867188 L 147 208.867188 C 144.46875 208.867188 142.410156 210.925781 142.410156 213.460938 L 142.410156 260.480469 C 142.410156 263.011719 144.46875 265.074219 147 265.074219 Z M 251.703125 242.722656 L 251.136719 243.5625 C 250.847656 243.992188 250.742188 244.511719 250.839844 245.019531 C 250.941406 245.53125 251.234375 245.96875 251.664062 246.261719 L 254.859375 248.410156 L 253.839844 249.925781 L 250.644531 247.773438 C 250.3125 247.550781 249.933594 247.445312 249.5625 247.445312 C 248.9375 247.445312 248.324219 247.746094 247.949219 248.300781 L 247.382812 249.140625 L 243.984375 242.191406 Z M 144.6875 213.460938 C 144.6875 212.183594 145.726562 211.144531 147.003906 211.144531 L 242.1875 211.144531 C 243.460938 211.144531 244.5 212.183594 244.5 213.460938 L 244.5 222.652344 L 144.6875 222.652344 Z M 144.6875 224.933594 L 244.5 224.933594 L 244.5 239.941406 L 243.558594 239.878906 C 242.859375 239.828125 242.207031 240.148438 241.8125 240.730469 C 241.421875 241.3125 241.371094 242.039062 241.679688 242.667969 L 244.5 248.4375 L 244.5 260.480469 C 244.5 261.757812 243.460938 262.792969 242.1875 262.792969 L 147 262.792969 C 145.726562 262.792969 144.6875 261.757812 144.6875 260.480469 Z M 262.089844 193.582031 L 127.097656 193.582031 C 126.46875 193.582031 125.957031 194.09375 125.957031 194.722656 L 125.957031 279.824219 C 125.957031 280.457031 126.46875 280.964844 127.097656 280.964844 L 262.089844 280.964844 C 262.71875 280.964844 263.230469 280.457031 263.230469 279.824219 L 263.230469 194.722656 C 263.230469 194.09375 262.71875 193.582031 262.089844 193.582031 Z M 260.949219 278.6875 L 128.238281 278.6875 L 128.238281 195.863281 L 260.949219 195.863281 Z M 194.59375 282.429688 C 192.480469 282.429688 190.761719 284.148438 190.761719 286.261719 C 190.761719 288.375 192.480469 290.097656 194.59375 290.097656 C 196.707031 290.097656 198.425781 288.375 198.425781 286.261719 C 198.425781 284.148438 196.707031 282.429688 194.59375 282.429688 Z M 194.59375 287.816406 C 193.738281 287.816406 193.039062 287.121094 193.039062 286.261719 C 193.039062 285.40625 193.738281 284.707031 194.59375 284.707031 C 195.449219 284.707031 196.148438 285.40625 196.148438 286.261719 C 196.148438 287.121094 195.449219 287.816406 194.59375 287.816406 Z M 269.457031 180.777344 L 119.730469 180.777344 C 116.101562 180.777344 113.152344 183.726562 113.152344 187.355469 L 113.152344 287.265625 C 113.152344 290.890625 116.101562 293.839844 119.730469 293.839844 L 173.996094 293.839844 L 170.820312 316.40625 C 170.726562 317.078125 170.53125 317.726562 170.238281 318.339844 L 167.699219 323.644531 C 167.109375 324.871094 167.191406 326.289062 167.917969 327.4375 C 168.640625 328.589844 169.886719 329.277344 171.246094 329.277344 L 217.941406 329.277344 C 219.300781 329.277344 220.546875 328.589844 221.269531 327.4375 C 221.996094 326.289062 222.078125 324.871094 221.488281 323.644531 L 218.949219 318.339844 C 218.65625 317.726562 218.460938 317.074219 218.367188 316.40625 L 215.191406 293.839844 L 269.457031 293.839844 C 273.085938 293.839844 276.035156 290.890625 276.035156 287.265625 L 276.035156 187.355469 C 276.035156 183.726562 273.085938 180.777344 269.457031 180.777344 Z M 216.894531 319.320312 L 219.433594 324.628906 C 219.683594 325.152344 219.652344 325.734375 219.339844 326.222656 C 219.03125 326.714844 218.523438 326.996094 217.941406 326.996094 L 171.246094 326.996094 C 170.664062 326.996094 170.15625 326.714844 169.847656 326.222656 C 169.535156 325.734375 169.503906 325.152344 169.753906 324.628906 L 172.292969 319.320312 C 172.445312 319 172.574219 318.667969 172.6875 318.335938 L 216.5 318.335938 C 216.613281 318.667969 216.742188 319 216.894531 319.320312 Z M 216.015625 316.054688 L 173.171875 316.054688 L 176.296875 293.839844 L 212.890625 293.839844 Z M 273.753906 287.265625 C 273.753906 289.632812 271.828125 291.5625 269.457031 291.5625 L 119.730469 291.5625 C 117.359375 291.5625 115.433594 289.632812 115.433594 287.265625 L 115.433594 187.355469 C 115.433594 184.984375 117.359375 183.058594 119.730469 183.058594 L 269.457031 183.058594 C 271.828125 183.058594 273.753906 184.984375 273.753906 187.355469 Z M 193.152344 188.996094 C 193.152344 188.203125 193.800781 187.558594 194.59375 187.558594 C 195.386719 187.558594 196.035156 188.203125 196.035156 188.996094 C 196.035156 189.792969 195.386719 190.4375 194.59375 190.4375 C 193.800781 190.4375 193.152344 189.792969 193.152344 188.996094 Z M 150.035156 214.492188 C 148.875 214.492188 147.933594 215.4375 147.933594 216.597656 C 147.933594 217.753906 148.875 218.699219 150.035156 218.699219 C 151.195312 218.699219 152.136719 217.753906 152.136719 216.597656 C 152.136719 215.4375 151.195312 214.492188 150.035156 214.492188 Z M 150.035156 216.773438 C 149.9375 216.773438 149.859375 216.695312 149.859375 216.597656 C 149.859375 216.5 149.9375 216.417969 150.035156 216.417969 C 150.132812 216.417969 150.210938 216.5 150.210938 216.597656 C 150.210938 216.695312 150.132812 216.773438 150.035156 216.773438 Z M 163.515625 214.492188 C 162.359375 214.492188 161.414062 215.4375 161.414062 216.597656 C 161.414062 217.753906 162.359375 218.699219 163.515625 218.699219 C 164.675781 218.699219 165.621094 217.753906 165.621094 216.597656 C 165.621094 215.4375 164.675781 214.492188 163.515625 214.492188 Z M 163.515625 216.773438 C 163.417969 216.773438 163.339844 216.695312 163.339844 216.597656 C 163.339844 216.5 163.417969 216.417969 163.515625 216.417969 C 163.613281 216.417969 163.695312 216.5 163.695312 216.597656 C 163.695312 216.695312 163.613281 216.773438 163.515625 216.773438 Z M 156.777344 214.492188 C 155.617188 214.492188 154.671875 215.4375 154.671875 216.597656 C 154.671875 217.753906 155.617188 218.699219 156.777344 218.699219 C 157.933594 218.699219 158.878906 217.753906 158.878906 216.597656 C 158.878906 215.4375 157.933594 214.492188 156.777344 214.492188 Z M 156.777344 216.773438 C 156.679688 216.773438 156.597656 216.695312 156.597656 216.597656 C 156.597656 216.5 156.679688 216.417969 156.777344 216.417969 C 156.875 216.417969 156.953125 216.5 156.953125 216.597656 C 156.953125 216.695312 156.875 216.773438 156.777344 216.773438 Z M 201.558594 243.15625 C 201.558594 242.523438 202.070312 242.015625 202.699219 242.015625 L 236.695312 242.015625 C 237.324219 242.015625 237.832031 242.523438 237.832031 243.15625 C 237.832031 243.785156 237.324219 244.292969 236.695312 244.292969 L 202.699219 244.292969 C 202.070312 244.292969 201.558594 243.785156 201.558594 243.15625 Z M 201.558594 252.339844 C 201.558594 251.710938 202.070312 251.199219 202.699219 251.199219 L 236.695312 251.199219 C 237.324219 251.199219 237.832031 251.710938 237.832031 252.339844 C 237.832031 252.96875 237.324219 253.480469 236.695312 253.480469 L 202.699219 253.480469 C 202.070312 253.480469 201.558594 252.96875 201.558594 252.339844 Z M 201.558594 233.96875 C 201.558594 233.339844 202.070312 232.828125 202.699219 232.828125 L 236.695312 232.828125 C 237.324219 232.828125 237.832031 233.339844 237.832031 233.96875 C 237.832031 234.597656 237.324219 235.109375 236.695312 235.109375 L 202.699219 235.109375 C 202.070312 235.109375 201.558594 234.597656 201.558594 233.96875 Z M 151.355469 252.339844 C 151.355469 251.710938 151.863281 251.199219 152.492188 251.199219 L 186.488281 251.199219 C 187.117188 251.199219 187.628906 251.710938 187.628906 252.339844 C 187.628906 252.96875 187.117188 253.480469 186.488281 253.480469 L 152.492188 253.480469 C 151.863281 253.480469 151.355469 252.96875 151.355469 252.339844 Z M 151.355469 233.96875 C 151.355469 233.339844 151.863281 232.828125 152.492188 232.828125 L 186.488281 232.828125 C 187.117188 232.828125 187.628906 233.339844 187.628906 233.96875 C 187.628906 234.597656 187.117188 235.109375 186.488281 235.109375 L 152.492188 235.109375 C 151.863281 235.109375 151.355469 234.597656 151.355469 233.96875 Z M 151.355469 243.15625 C 151.355469 242.523438 151.863281 242.015625 152.492188 242.015625 L 186.488281 242.015625 C 187.117188 242.015625 187.628906 242.523438 187.628906 243.15625 C 187.628906 243.785156 187.117188 244.292969 186.488281 244.292969 L 152.492188 244.292969 C 151.863281 244.292969 151.355469 243.785156 151.355469 243.15625 Z M 151.355469 243.15625 " fill-opacity="1" fill-rule="nonzero"/></g></svg>