<svg xmlns="http://www.w3.org/2000/svg" xmlns:xlink="http://www.w3.org/1999/xlink" width="500" zoomAndPan="magnify" viewBox="0 0 375 374.999991" height="500" preserveAspectRatio="xMidYMid meet" version="1.0"><defs><g/><clipPath id="4fe4342d20"><path d="M 49.914062 24.855469 L 331.855469 24.855469 L 331.855469 114.144531 L 49.914062 114.144531 Z M 49.914062 24.855469 " clip-rule="nonzero"/></clipPath><clipPath id="33b709e78f"><path d="M 67.914062 24.855469 L 313.855469 24.855469 C 318.628906 24.855469 323.207031 26.75 326.582031 30.125 C 329.960938 33.503906 331.855469 38.082031 331.855469 42.855469 L 331.855469 96.144531 C 331.855469 100.917969 329.960938 105.496094 326.582031 108.875 C 323.207031 112.25 318.628906 114.144531 313.855469 114.144531 L 67.914062 114.144531 C 63.140625 114.144531 58.5625 112.25 55.183594 108.875 C 51.808594 105.496094 49.914062 100.917969 49.914062 96.144531 L 49.914062 42.855469 C 49.914062 38.082031 51.808594 33.503906 55.183594 30.125 C 58.5625 26.75 63.140625 24.855469 67.914062 24.855469 Z M 67.914062 24.855469 " clip-rule="nonzero"/></clipPath><clipPath id="9c3651527c"><path d="M 49.921875 24.855469 L 331.914062 24.855469 L 331.914062 114.105469 L 49.921875 114.105469 Z M 49.921875 24.855469 " clip-rule="nonzero"/></clipPath><clipPath id="01bdfa4ae0"><path d="M 67.921875 24.855469 L 313.847656 24.855469 C 318.621094 24.855469 323.199219 26.75 326.574219 30.125 C 329.949219 33.5 331.847656 38.078125 331.847656 42.851562 L 331.847656 96.140625 C 331.847656 100.914062 329.949219 105.492188 326.574219 108.867188 C 323.199219 112.242188 318.621094 114.140625 313.847656 114.140625 L 67.921875 114.140625 C 63.148438 114.140625 58.570312 112.242188 55.195312 108.867188 C 51.820312 105.492188 49.921875 100.914062 49.921875 96.140625 L 49.921875 42.851562 C 49.921875 38.078125 51.820312 33.5 55.195312 30.125 C 58.570312 26.75 63.148438 24.855469 67.921875 24.855469 Z M 67.921875 24.855469 " clip-rule="nonzero"/></clipPath><clipPath id="dfed1e6199"><path d="M 85 177.667969 L 285 177.667969 L 285 337 L 85 337 Z M 85 177.667969 " clip-rule="nonzero"/></clipPath><clipPath id="6d30661be5"><path d="M 84.78125 177.667969 L 285.78125 177.667969 L 285.78125 337.417969 L 84.78125 337.417969 Z M 84.78125 177.667969 " clip-rule="nonzero"/></clipPath></defs><g clip-path="url(#4fe4342d20)"><g clip-path="url(#33b709e78f)"><path fill="#f93262" d="M 49.914062 24.855469 L 331.855469 24.855469 L 331.855469 114.144531 L 49.914062 114.144531 Z M 49.914062 24.855469 " fill-opacity="1" fill-rule="nonzero"/></g></g><g clip-path="url(#9c3651527c)"><g clip-path="url(#01bdfa4ae0)"><path stroke-linecap="butt" transform="matrix(0.75, 0, 0, 0.75, 49.922084, 24.854654)" fill="none" stroke-linejoin="miter" d="M 23.999724 0.00108606 L 351.900808 0.00108606 C 358.265392 0.00108606 364.36956 2.527128 368.86956 7.027129 C 373.369561 11.527129 375.900811 17.631297 375.900811 23.995881 L 375.900811 95.047973 C 375.900811 101.412558 373.369561 107.516725 368.86956 112.016726 C 364.36956 116.516726 358.265392 119.047976 351.900808 119.047976 L 23.999724 119.047976 C 17.63514 119.047976 11.530972 116.516726 7.030972 112.016726 C 2.530971 107.516725 -0.000279229 101.412558 -0.000279229 95.047973 L -0.000279229 23.995881 C -0.000279229 17.631297 2.530971 11.527129 7.030972 7.027129 C 11.530972 2.527128 17.63514 0.00108606 23.999724 0.00108606 Z M 23.999724 0.00108606 " stroke="#3a3937" stroke-width="4" stroke-opacity="1" stroke-miterlimit="4"/></g></g><g fill="#ffffff" fill-opacity="1"><g transform="translate(102.7561, 86.014649)"><g><path d="M 7.9375 -13.5 C 9.6875 -10.988281 11.507812 -9.035156 13.40625 -7.640625 C 15.300781 -6.253906 17.765625 -5.5625 20.796875 -5.5625 C 22.242188 -5.5625 23.628906 -5.796875 24.953125 -6.265625 C 26.273438 -6.734375 27.363281 -7.414062 28.21875 -8.3125 C 29.070312 -9.207031 29.5 -10.273438 29.5 -11.515625 C 29.5 -13.648438 28.59375 -15.3125 26.78125 -16.5 C 24.96875 -17.695312 22.421875 -18.617188 19.140625 -19.265625 C 14.953125 -20.117188 11.617188 -21.597656 9.140625 -23.703125 C 6.671875 -25.816406 5.4375 -28.878906 5.4375 -32.890625 C 5.4375 -35.453125 6.148438 -37.671875 7.578125 -39.546875 C 9.015625 -41.429688 10.90625 -42.882812 13.25 -43.90625 C 15.59375 -44.925781 18.128906 -45.4375 20.859375 -45.4375 C 24.398438 -45.4375 27.453125 -44.753906 30.015625 -43.390625 C 32.578125 -42.023438 34.582031 -40.082031 36.03125 -37.5625 L 31.171875 -32.765625 C 30.015625 -34.679688 28.5625 -36.238281 26.8125 -37.4375 C 25.0625 -38.632812 23.015625 -39.234375 20.671875 -39.234375 C 18.328125 -39.234375 16.351562 -38.6875 14.75 -37.59375 C 13.15625 -36.507812 12.359375 -35.007812 12.359375 -33.09375 C 12.359375 -30.914062 13.195312 -29.320312 14.875 -28.3125 C 16.5625 -27.3125 18.789062 -26.515625 21.5625 -25.921875 C 24.082031 -25.410156 26.472656 -24.617188 28.734375 -23.546875 C 30.992188 -22.484375 32.835938 -21.109375 34.265625 -19.421875 C 35.703125 -17.734375 36.421875 -15.695312 36.421875 -13.3125 C 36.421875 -9.039062 34.96875 -5.644531 32.0625 -3.125 C 29.164062 -0.613281 25.175781 0.640625 20.09375 0.640625 C 16.632812 0.640625 13.488281 -0.0390625 10.65625 -1.40625 C 7.820312 -2.769531 5.335938 -4.988281 3.203125 -8.0625 Z M 7.9375 -13.5 "/></g></g></g><g fill="#ffffff" fill-opacity="1"><g transform="translate(142.689649, 86.014649)"><g><path d="M 15.359375 0 L 8.765625 0 L 8.765625 -27.203125 L 1.796875 -27.203125 L 1.796875 -33.59375 L 8.765625 -33.59375 L 8.765625 -42.171875 L 15.359375 -42.171875 L 15.359375 -33.59375 L 23.171875 -33.59375 L 23.171875 -27.203125 L 15.359375 -27.203125 Z M 15.359375 0 "/></g></g></g><g fill="#ffffff" fill-opacity="1"><g transform="translate(167.264141, 86.014649)"><g><path d="M 33.46875 -4.421875 L 33.40625 -4.421875 C 32.039062 -3.097656 30.160156 -1.921875 27.765625 -0.890625 C 25.378906 0.128906 22.882812 0.640625 20.28125 0.640625 C 16.789062 0.640625 13.710938 -0.09375 11.046875 -1.5625 C 8.378906 -3.039062 6.296875 -5.066406 4.796875 -7.640625 C 3.304688 -10.222656 2.5625 -13.160156 2.5625 -16.453125 C 2.5625 -20.203125 3.347656 -23.410156 4.921875 -26.078125 C 6.503906 -28.742188 8.597656 -30.789062 11.203125 -32.21875 C 13.804688 -33.65625 16.644531 -34.375 19.71875 -34.375 C 22.53125 -34.375 25.085938 -33.675781 27.390625 -32.28125 C 29.691406 -30.894531 31.523438 -28.984375 32.890625 -26.546875 C 34.253906 -24.117188 34.9375 -21.285156 34.9375 -18.046875 L 34.875 -15.234375 L 9.15625 -15.234375 C 9.539062 -12.203125 10.785156 -9.800781 12.890625 -8.03125 C 15.003906 -6.257812 17.679688 -5.375 20.921875 -5.375 C 23.273438 -5.375 25.175781 -5.8125 26.625 -6.6875 C 28.070312 -7.5625 29.265625 -8.40625 30.203125 -9.21875 Z M 19.71875 -28.28125 C 17.195312 -28.28125 14.992188 -27.691406 13.109375 -26.515625 C 11.234375 -25.347656 10 -23.335938 9.40625 -20.484375 L 28.21875 -20.484375 L 28.21875 -20.921875 C 28.09375 -22.378906 27.613281 -23.660156 26.78125 -24.765625 C 25.945312 -25.878906 24.910156 -26.742188 23.671875 -27.359375 C 22.441406 -27.972656 21.125 -28.28125 19.71875 -28.28125 Z M 19.71875 -28.28125 "/></g></g></g><g fill="#ffffff" fill-opacity="1"><g transform="translate(204.765844, 86.014649)"><g><path d="M 22.140625 -34.171875 C 25.128906 -34.171875 27.804688 -33.4375 30.171875 -31.96875 C 32.546875 -30.5 34.414062 -28.460938 35.78125 -25.859375 C 37.144531 -23.253906 37.828125 -20.242188 37.828125 -16.828125 C 37.828125 -13.460938 37.144531 -10.46875 35.78125 -7.84375 C 34.414062 -5.21875 32.554688 -3.15625 30.203125 -1.65625 C 27.859375 -0.164062 25.238281 0.578125 22.34375 0.578125 C 19.945312 0.578125 17.773438 0.0664062 15.828125 -0.953125 C 13.890625 -1.984375 12.367188 -3.160156 11.265625 -4.484375 L 11.265625 14.078125 L 4.609375 14.078125 L 4.609375 -33.65625 L 11.265625 -33.65625 L 11.265625 -28.734375 C 12.242188 -30.140625 13.710938 -31.394531 15.671875 -32.5 C 17.640625 -33.613281 19.796875 -34.171875 22.140625 -34.171875 Z M 21.25 -28.09375 C 19.238281 -28.09375 17.453125 -27.601562 15.890625 -26.625 C 14.335938 -25.644531 13.125 -24.3125 12.25 -22.625 C 11.375 -20.9375 10.9375 -19.003906 10.9375 -16.828125 C 10.9375 -14.691406 11.375 -12.769531 12.25 -11.0625 C 13.125 -9.363281 14.335938 -8.007812 15.890625 -7 C 17.453125 -6 19.238281 -5.5 21.25 -5.5 C 23.25 -5.5 25.015625 -6 26.546875 -7 C 28.085938 -8.007812 29.296875 -9.363281 30.171875 -11.0625 C 31.046875 -12.769531 31.484375 -14.691406 31.484375 -16.828125 C 31.484375 -19.003906 31.046875 -20.9375 30.171875 -22.625 C 29.296875 -24.3125 28.085938 -25.644531 26.546875 -26.625 C 25.015625 -27.601562 23.25 -28.09375 21.25 -28.09375 Z M 21.25 -28.09375 "/></g></g></g><g fill="#ffffff" fill-opacity="1"><g transform="translate(245.147361, 86.014649)"><g><path d="M 6.65625 -12.21875 C 7.289062 -11.28125 8.066406 -10.273438 8.984375 -9.203125 C 9.910156 -8.140625 11 -7.242188 12.25 -6.515625 C 13.507812 -5.796875 14.953125 -5.4375 16.578125 -5.4375 C 17.859375 -5.4375 19.140625 -5.765625 20.421875 -6.421875 C 21.703125 -7.085938 22.773438 -8.070312 23.640625 -9.375 C 24.515625 -10.675781 24.953125 -12.265625 24.953125 -14.140625 C 24.953125 -16.066406 24.597656 -17.601562 23.890625 -18.75 C 23.191406 -19.90625 22.265625 -20.738281 21.109375 -21.25 C 19.960938 -21.757812 18.707031 -22.015625 17.34375 -22.015625 C 16.019531 -22.015625 14.6875 -21.8125 13.34375 -21.40625 C 12 -21 10.75 -20.5625 9.59375 -20.09375 L 7.6875 -25.15625 L 19.71875 -38.40625 L 3.78125 -38.40625 L 3.78125 -44.796875 L 29.4375 -44.796875 L 30.71875 -42.234375 L 18.171875 -28.359375 C 20.648438 -28.359375 22.898438 -27.75 24.921875 -26.53125 C 26.953125 -25.3125 28.570312 -23.65625 29.78125 -21.5625 C 31 -19.476562 31.609375 -17.132812 31.609375 -14.53125 C 31.609375 -11.457031 30.875 -8.78125 29.40625 -6.5 C 27.9375 -4.21875 26.015625 -2.457031 23.640625 -1.21875 C 21.273438 0.0195312 18.75 0.640625 16.0625 0.640625 C 13.539062 0.640625 11.375 0.222656 9.5625 -0.609375 C 7.75 -1.441406 6.179688 -2.582031 4.859375 -4.03125 C 3.535156 -5.476562 2.34375 -7.078125 1.28125 -8.828125 Z M 6.65625 -12.21875 "/></g></g></g><g clip-path="url(#dfed1e6199)"><path fill="#fff3e1" d="M 107.714844 250.242188 L 116.582031 257.027344 L 107.714844 263.8125 C 106.90625 264.433594 105.769531 264.78125 104.570312 264.78125 L 98.101562 264.78125 C 97.007812 264.78125 95.949219 264.488281 95.15625 263.953125 L 85.441406 257.023438 L 95.15625 250.097656 C 95.949219 249.566406 97.007812 249.269531 98.101562 249.269531 L 104.570312 249.269531 C 105.769531 249.269531 106.90625 249.621094 107.714844 250.242188 Z M 213.035156 177.859375 L 213.035156 177.796875 L 196.949219 177.796875 C 196.316406 177.796875 195.6875 177.804688 195.058594 177.820312 C 194.851562 177.824219 194.640625 177.835938 194.433594 177.84375 C 194.015625 177.859375 193.597656 177.871094 193.183594 177.894531 C 192.933594 177.90625 192.679688 177.925781 192.433594 177.945312 C 192.058594 177.96875 191.691406 177.992188 191.316406 178.019531 C 191.050781 178.039062 190.789062 178.066406 190.519531 178.09375 C 190.167969 178.125 189.8125 178.15625 189.464844 178.191406 C 189.1875 178.21875 188.917969 178.253906 188.648438 178.289062 C 188.304688 178.328125 187.964844 178.367188 187.625 178.417969 C 187.347656 178.453125 187.070312 178.496094 186.796875 178.539062 C 186.464844 178.585938 186.132812 178.632812 185.800781 178.6875 C 185.519531 178.730469 185.242188 178.78125 184.957031 178.832031 C 184.632812 178.886719 184.3125 178.941406 183.984375 179.003906 C 183.703125 179.054688 183.421875 179.113281 183.144531 179.171875 C 182.828125 179.234375 182.503906 179.296875 182.1875 179.367188 C 181.902344 179.425781 181.625 179.492188 181.34375 179.554688 C 181.03125 179.625 180.71875 179.695312 180.40625 179.773438 C 180.128906 179.839844 179.84375 179.917969 179.566406 179.988281 C 179.257812 180.066406 178.949219 180.144531 178.640625 180.226562 C 178.359375 180.300781 178.082031 180.378906 177.804688 180.457031 C 177.496094 180.542969 177.195312 180.632812 176.886719 180.722656 C 176.609375 180.804688 176.335938 180.890625 176.058594 180.976562 C 175.757812 181.070312 175.457031 181.164062 175.15625 181.261719 C 174.882812 181.355469 174.605469 181.445312 174.332031 181.539062 C 174.03125 181.640625 173.738281 181.742188 173.445312 181.84375 C 173.167969 181.941406 172.898438 182.042969 172.621094 182.144531 C 172.328125 182.25 172.039062 182.359375 171.746094 182.472656 C 171.476562 182.578125 171.203125 182.683594 170.933594 182.792969 C 170.648438 182.90625 170.355469 183.023438 170.074219 183.140625 C 169.800781 183.25 169.535156 183.363281 169.265625 183.484375 C 168.980469 183.605469 168.699219 183.726562 168.417969 183.851562 C 168.148438 183.96875 167.882812 184.089844 167.613281 184.214844 C 167.335938 184.34375 167.058594 184.472656 166.777344 184.601562 C 166.515625 184.726562 166.25 184.851562 165.984375 184.984375 C 165.710938 185.117188 165.433594 185.253906 165.160156 185.390625 C 164.898438 185.523438 164.632812 185.660156 164.375 185.792969 C 164.105469 185.933594 163.832031 186.074219 163.566406 186.21875 C 163.304688 186.359375 163.046875 186.5 162.789062 186.640625 C 162.519531 186.789062 162.253906 186.9375 161.992188 187.089844 C 161.734375 187.234375 161.476562 187.378906 161.226562 187.527344 C 160.960938 187.679688 160.703125 187.839844 160.445312 187.996094 C 160.1875 188.148438 159.9375 188.300781 159.683594 188.453125 C 159.425781 188.617188 159.171875 188.777344 158.914062 188.9375 C 158.664062 189.097656 158.414062 189.257812 158.164062 189.417969 C 157.914062 189.582031 157.664062 189.75 157.410156 189.917969 C 157.164062 190.085938 156.917969 190.25 156.667969 190.417969 C 156.421875 190.585938 156.179688 190.765625 155.929688 190.9375 C 155.6875 191.109375 155.441406 191.28125 155.195312 191.460938 C 154.957031 191.636719 154.71875 191.8125 154.476562 191.988281 C 154.234375 192.171875 153.992188 192.347656 153.75 192.53125 C 153.515625 192.710938 153.285156 192.898438 153.046875 193.078125 C 152.808594 193.265625 152.570312 193.449219 152.328125 193.640625 C 152.101562 193.824219 151.875 194.011719 151.644531 194.195312 C 151.410156 194.394531 151.171875 194.585938 150.933594 194.78125 C 150.714844 194.964844 150.496094 195.160156 150.273438 195.347656 C 150.039062 195.550781 149.800781 195.753906 149.5625 195.960938 C 149.359375 196.140625 149.15625 196.328125 148.953125 196.515625 C 148.707031 196.734375 148.460938 196.949219 148.222656 197.171875 C 148.054688 197.328125 147.894531 197.484375 147.730469 197.636719 C 147.054688 198.273438 146.386719 198.921875 145.730469 199.585938 C 145.703125 199.613281 145.675781 199.636719 145.652344 199.664062 C 145.394531 199.925781 145.136719 200.199219 144.878906 200.464844 C 144.71875 200.632812 144.554688 200.800781 144.394531 200.96875 C 144.15625 201.222656 143.921875 201.484375 143.679688 201.742188 C 143.507812 201.929688 143.335938 202.113281 143.167969 202.304688 C 142.933594 202.558594 142.710938 202.820312 142.484375 203.082031 C 142.308594 203.277344 142.136719 203.472656 141.96875 203.667969 C 141.746094 203.929688 141.527344 204.191406 141.308594 204.457031 C 141.140625 204.660156 140.96875 204.859375 140.800781 205.0625 C 140.585938 205.328125 140.378906 205.59375 140.164062 205.863281 C 140 206.070312 139.832031 206.277344 139.667969 206.488281 C 139.457031 206.757812 139.253906 207.027344 139.050781 207.300781 C 138.886719 207.515625 138.722656 207.726562 138.5625 207.945312 C 138.363281 208.21875 138.164062 208.492188 137.964844 208.769531 C 137.808594 208.988281 137.648438 209.207031 137.492188 209.425781 C 137.292969 209.707031 137.101562 209.984375 136.910156 210.265625 C 136.757812 210.488281 136.601562 210.710938 136.449219 210.9375 C 136.261719 211.21875 136.074219 211.503906 135.890625 211.789062 C 135.738281 212.015625 135.589844 212.242188 135.445312 212.472656 C 135.261719 212.757812 135.078125 213.046875 134.898438 213.339844 C 134.757812 213.570312 134.613281 213.800781 134.472656 214.03125 C 134.292969 214.324219 134.117188 214.621094 133.945312 214.914062 C 133.808594 215.148438 133.667969 215.382812 133.53125 215.617188 C 133.359375 215.914062 133.191406 216.214844 133.023438 216.515625 C 132.886719 216.753906 132.757812 216.992188 132.625 217.230469 C 132.460938 217.535156 132.296875 217.839844 132.132812 218.144531 C 132.007812 218.382812 131.878906 218.625 131.753906 218.867188 C 131.59375 219.171875 131.433594 219.480469 131.28125 219.792969 C 131.160156 220.035156 131.039062 220.277344 130.921875 220.523438 C 130.765625 220.835938 130.617188 221.152344 130.46875 221.464844 C 130.351562 221.707031 130.238281 221.957031 130.125 222.203125 C 129.976562 222.523438 129.832031 222.84375 129.6875 223.160156 C 129.578125 223.410156 129.46875 223.65625 129.359375 223.910156 C 129.21875 224.234375 129.082031 224.554688 128.945312 224.886719 C 128.84375 225.132812 128.742188 225.386719 128.636719 225.636719 C 128.503906 225.964844 128.371094 226.300781 128.242188 226.628906 C 128.144531 226.882812 128.050781 227.132812 127.957031 227.378906 C 127.828125 227.71875 127.699219 228.050781 127.578125 228.390625 C 127.488281 228.640625 127.398438 228.890625 127.308594 229.144531 C 127.183594 229.484375 127.066406 229.832031 126.949219 230.175781 C 126.867188 230.429688 126.785156 230.675781 126.703125 230.925781 C 126.589844 231.277344 126.472656 231.628906 126.363281 231.980469 C 126.285156 232.226562 126.210938 232.476562 126.136719 232.730469 C 126.03125 233.085938 125.921875 233.445312 125.820312 233.800781 C 125.746094 234.050781 125.675781 234.300781 125.609375 234.550781 C 125.507812 234.917969 125.410156 235.277344 125.3125 235.648438 C 125.25 235.894531 125.1875 236.140625 125.125 236.390625 C 125.027344 236.761719 124.933594 237.136719 124.84375 237.511719 C 124.785156 237.753906 124.734375 237.996094 124.679688 238.234375 C 124.59375 238.621094 124.503906 239.003906 124.421875 239.390625 C 124.371094 239.621094 124.324219 239.855469 124.277344 240.085938 C 124.195312 240.484375 124.113281 240.882812 124.039062 241.289062 C 124 241.503906 123.960938 241.722656 123.921875 241.941406 C 123.847656 242.359375 123.769531 242.777344 123.699219 243.199219 C 123.667969 243.394531 123.640625 243.589844 123.605469 243.78125 C 123.535156 244.230469 123.464844 244.675781 123.398438 245.128906 C 123.378906 245.265625 123.363281 245.40625 123.34375 245.550781 C 123.015625 247.960938 122.78125 250.40625 122.660156 252.886719 C 122.660156 252.890625 122.660156 252.894531 122.660156 252.898438 C 122.59375 254.285156 122.558594 255.675781 122.558594 257.078125 C 122.558594 257.917969 122.574219 258.746094 122.597656 259.574219 L 122.59375 259.574219 C 122.597656 259.664062 122.601562 259.75 122.605469 259.839844 C 122.625 260.496094 122.65625 261.148438 122.691406 261.796875 C 122.703125 261.980469 122.710938 262.164062 122.722656 262.34375 C 122.757812 262.949219 122.804688 263.550781 122.851562 264.152344 C 122.867188 264.332031 122.878906 264.507812 122.898438 264.683594 C 122.957031 265.359375 123.027344 266.035156 123.101562 266.703125 C 123.109375 266.789062 123.117188 266.871094 123.128906 266.957031 C 123.21875 267.738281 123.320312 268.515625 123.433594 269.292969 C 123.4375 269.324219 123.445312 269.359375 123.449219 269.394531 C 123.550781 270.097656 123.667969 270.796875 123.789062 271.496094 C 123.820312 271.691406 123.859375 271.882812 123.890625 272.074219 C 123.988281 272.621094 124.089844 273.164062 124.199219 273.707031 C 124.242188 273.929688 124.289062 274.148438 124.339844 274.367188 C 124.449219 274.898438 124.566406 275.429688 124.6875 275.960938 C 124.734375 276.160156 124.777344 276.359375 124.824219 276.554688 C 124.980469 277.214844 125.144531 277.871094 125.316406 278.523438 C 125.332031 278.578125 125.34375 278.632812 125.359375 278.6875 C 125.550781 279.410156 125.75 280.128906 125.964844 280.84375 C 126.007812 280.988281 126.050781 281.132812 126.09375 281.273438 C 126.261719 281.835938 126.433594 282.394531 126.617188 282.945312 C 126.679688 283.148438 126.746094 283.34375 126.8125 283.542969 C 126.980469 284.054688 127.15625 284.566406 127.335938 285.070312 C 127.402344 285.261719 127.46875 285.449219 127.535156 285.636719 C 127.742188 286.207031 127.957031 286.773438 128.171875 287.332031 C 128.214844 287.441406 128.253906 287.550781 128.296875 287.65625 C 128.851562 289.0625 129.441406 290.449219 130.0625 291.816406 C 130.078125 291.851562 130.09375 291.882812 130.113281 291.917969 C 130.410156 292.570312 130.71875 293.21875 131.035156 293.855469 C 131.058594 293.902344 131.082031 293.957031 131.105469 294.003906 C 131.636719 295.074219 132.1875 296.132812 132.761719 297.175781 C 132.8125 297.269531 132.867188 297.363281 132.917969 297.457031 C 133.117188 297.8125 133.316406 298.164062 133.515625 298.519531 C 133.59375 298.65625 133.671875 298.789062 133.753906 298.921875 C 134.664062 300.484375 135.625 302.011719 136.632812 303.496094 C 136.679688 303.566406 136.726562 303.632812 136.773438 303.703125 C 137.804688 305.214844 138.886719 306.6875 140.011719 308.113281 C 140.09375 308.21875 140.179688 308.324219 140.265625 308.433594 C 140.824219 309.136719 141.398438 309.835938 141.980469 310.511719 C 141.984375 310.519531 141.988281 310.527344 141.996094 310.53125 C 142.578125 311.207031 143.171875 311.871094 143.769531 312.527344 C 143.847656 312.609375 143.925781 312.695312 144 312.777344 C 144.609375 313.4375 145.226562 314.082031 145.859375 314.714844 C 145.90625 314.761719 145.953125 314.808594 146.007812 314.859375 C 146.625 315.480469 147.257812 316.09375 147.902344 316.695312 C 147.9375 316.730469 147.976562 316.765625 148.011719 316.800781 C 148.671875 317.417969 149.34375 318.019531 150.023438 318.609375 C 150.054688 318.636719 150.085938 318.664062 150.113281 318.691406 C 150.234375 318.796875 150.363281 318.902344 150.488281 319.007812 C 150.710938 319.203125 150.9375 319.394531 151.167969 319.585938 C 151.363281 319.75 151.566406 319.914062 151.761719 320.078125 C 152.226562 320.453125 152.695312 320.828125 153.167969 321.195312 C 153.265625 321.269531 153.359375 321.34375 153.453125 321.417969 C 153.800781 321.683594 154.152344 321.945312 154.503906 322.210938 C 154.503906 322.210938 154.507812 322.210938 154.507812 322.214844 C 154.507812 322.214844 154.511719 322.21875 154.511719 322.21875 C 155.625 323.042969 156.757812 323.835938 157.914062 324.597656 C 157.933594 324.609375 157.949219 324.621094 157.96875 324.632812 C 158.304688 324.851562 158.636719 325.066406 158.96875 325.277344 C 159.085938 325.347656 159.195312 325.417969 159.308594 325.488281 C 159.625 325.691406 159.945312 325.886719 160.265625 326.082031 C 160.375 326.148438 160.488281 326.210938 160.59375 326.277344 C 161.195312 326.636719 161.796875 326.988281 162.410156 327.332031 C 162.539062 327.402344 162.671875 327.476562 162.800781 327.550781 C 163.074219 327.703125 163.355469 327.855469 163.632812 328.003906 C 163.835938 328.113281 164.035156 328.21875 164.242188 328.324219 C 164.503906 328.460938 164.773438 328.601562 165.035156 328.734375 C 165.265625 328.851562 165.503906 328.96875 165.738281 329.082031 C 165.980469 329.203125 166.230469 329.328125 166.476562 329.445312 C 166.917969 329.65625 167.363281 329.863281 167.8125 330.070312 C 168.03125 330.167969 168.25 330.261719 168.46875 330.359375 C 168.753906 330.484375 169.039062 330.609375 169.328125 330.734375 C 169.550781 330.828125 169.777344 330.925781 170.007812 331.015625 C 170.308594 331.140625 170.613281 331.261719 170.914062 331.382812 C 171.117188 331.46875 171.324219 331.550781 171.53125 331.628906 C 172.019531 331.816406 172.503906 332 172.996094 332.179688 C 173.136719 332.230469 173.273438 332.277344 173.414062 332.328125 C 173.800781 332.464844 174.183594 332.597656 174.566406 332.726562 C 174.761719 332.792969 174.960938 332.855469 175.15625 332.921875 C 175.5 333.035156 175.851562 333.144531 176.199219 333.25 C 176.390625 333.308594 176.578125 333.367188 176.765625 333.421875 C 177.222656 333.558594 177.679688 333.695312 178.144531 333.820312 C 178.214844 333.839844 178.289062 333.863281 178.359375 333.882812 C 178.890625 334.027344 179.421875 334.164062 179.953125 334.292969 C 180.125 334.335938 180.296875 334.378906 180.46875 334.421875 C 180.851562 334.511719 181.234375 334.601562 181.621094 334.6875 C 181.804688 334.726562 181.988281 334.769531 182.175781 334.808594 C 182.601562 334.898438 183.035156 334.988281 183.464844 335.074219 C 183.589844 335.097656 183.707031 335.121094 183.828125 335.144531 C 184.378906 335.246094 184.925781 335.34375 185.480469 335.433594 C 185.621094 335.457031 185.769531 335.476562 185.914062 335.5 C 186.332031 335.566406 186.757812 335.628906 187.179688 335.6875 C 187.359375 335.710938 187.542969 335.738281 187.722656 335.761719 C 188.144531 335.820312 188.5625 335.871094 188.984375 335.917969 C 189.136719 335.933594 189.285156 335.953125 189.441406 335.96875 C 190.003906 336.027344 190.570312 336.082031 191.136719 336.128906 C 191.238281 336.136719 191.339844 336.144531 191.445312 336.152344 C 191.917969 336.1875 192.390625 336.21875 192.859375 336.246094 C 193.046875 336.257812 193.226562 336.265625 193.410156 336.273438 C 193.828125 336.292969 194.242188 336.308594 194.660156 336.324219 C 194.832031 336.328125 195.007812 336.335938 195.183594 336.339844 C 195.757812 336.355469 196.339844 336.363281 196.921875 336.363281 L 213.003906 336.363281 L 213.003906 336.300781 C 213.238281 336.289062 213.472656 336.285156 213.703125 336.265625 C 235.332031 335.195312 254.539062 324.277344 267.484375 307.628906 L 267.484375 307.621094 C 278.15625 293.894531 284.566406 276.277344 284.566406 257.066406 C 284.59375 214.308594 252.804688 179.441406 213.035156 177.859375 Z M 213.035156 177.859375 " fill-opacity="1" fill-rule="nonzero"/></g><path fill="#f93262" d="M 196.9375 188.792969 C 161.558594 188.792969 132.878906 219.371094 132.878906 257.09375 C 132.878906 294.820312 161.558594 325.398438 196.9375 325.398438 C 232.316406 325.398438 260.996094 294.820312 260.996094 257.09375 C 260.996094 219.371094 232.316406 188.792969 196.9375 188.792969 Z M 196.9375 310.855469 C 169.878906 310.855469 147.800781 288.121094 146.574219 259.59375 L 159.734375 259.59375 C 160.941406 280.386719 177.136719 296.847656 196.9375 296.847656 C 217.527344 296.847656 234.21875 279.050781 234.21875 257.09375 C 234.21875 235.140625 217.527344 217.34375 196.9375 217.34375 C 177.671875 217.34375 161.820312 232.925781 159.863281 252.917969 L 146.667969 252.917969 C 148.667969 225.179688 170.410156 203.335938 196.9375 203.335938 C 224.785156 203.335938 247.355469 227.402344 247.355469 257.09375 C 247.355469 286.789062 224.785156 310.855469 196.9375 310.855469 Z M 196.9375 270.644531 C 203.957031 270.644531 209.644531 264.578125 209.644531 257.09375 C 209.644531 249.613281 203.953125 243.546875 196.9375 243.546875 C 192.175781 243.546875 188.03125 246.339844 185.855469 250.46875 C 185.664062 250.441406 185.476562 250.425781 185.28125 250.425781 L 173.300781 250.425781 C 176.066406 239.261719 185.597656 231.023438 196.941406 231.023438 C 210.445312 231.023438 221.390625 242.699219 221.390625 257.09375 C 221.390625 271.492188 210.445312 283.167969 196.941406 283.167969 C 185.039062 283.167969 175.128906 274.09375 172.945312 262.082031 L 185.128906 262.082031 C 186.984375 267.09375 191.574219 270.644531 196.9375 270.644531 Z M 196.9375 270.644531 " fill-opacity="1" fill-rule="nonzero"/><path fill="#fdbe11" d="M 105.128906 241.753906 L 95.355469 241.753906 C 92.582031 241.753906 90.109375 243.515625 89.203125 246.140625 L 85.425781 257.09375 L 89.203125 268.050781 C 90.109375 270.671875 92.582031 272.4375 95.355469 272.4375 L 105.125 272.4375 C 107.308594 272.4375 109.34375 271.34375 110.546875 269.527344 L 116.578125 260.433594 L 116.578125 253.757812 L 110.546875 244.664062 C 109.347656 242.847656 107.308594 241.753906 105.128906 241.753906 Z M 107.585938 263.558594 C 106.792969 264.15625 105.675781 264.496094 104.503906 264.496094 L 98.160156 264.496094 C 97.085938 264.496094 96.050781 264.207031 95.273438 263.699219 L 85.746094 257.023438 L 95.273438 250.351562 C 96.050781 249.839844 97.085938 249.554688 98.160156 249.554688 L 104.503906 249.554688 C 105.675781 249.554688 106.792969 249.894531 107.585938 250.488281 L 116.277344 257.023438 Z M 189.777344 255.078125 L 189.777344 258.351562 C 189.777344 260.664062 187.902344 262.542969 185.585938 262.542969 L 162.144531 262.542969 L 162.144531 260.054688 L 116.582031 260.054688 L 116.582031 253.375 L 162.144531 253.375 L 162.144531 250.886719 L 185.585938 250.886719 C 187.902344 250.886719 189.777344 252.761719 189.777344 255.078125 Z M 189.777344 255.078125 " fill-opacity="1" fill-rule="nonzero"/><path fill="#f93262" d="M 171.730469 251.011719 L 180.144531 251.011719 L 180.144531 262.464844 L 171.730469 262.464844 Z M 171.730469 251.011719 " fill-opacity="1" fill-rule="nonzero"/><g clip-path="url(#6d30661be5)"><path fill="#01012c" d="M 285.46875 257.582031 C 285.46875 247.367188 283.664062 237.421875 280.226562 228.171875 L 280.226562 228.144531 L 280.214844 228.144531 C 276.652344 218.5625 271.339844 209.730469 264.449219 202.117188 C 251.050781 187.324219 233.121094 178.699219 213.90625 177.785156 L 213.90625 177.695312 L 197.226562 177.695312 C 197.226562 177.695312 197.222656 177.695312 197.222656 177.695312 C 197.21875 177.695312 197.21875 177.695312 197.214844 177.695312 C 197.105469 177.695312 197 177.699219 196.890625 177.699219 C 196.371094 177.703125 195.851562 177.707031 195.332031 177.71875 C 195.058594 177.726562 194.789062 177.738281 194.519531 177.75 C 194.15625 177.761719 193.800781 177.773438 193.441406 177.792969 C 193.171875 177.808594 192.902344 177.828125 192.632812 177.84375 C 192.273438 177.867188 191.914062 177.886719 191.558594 177.917969 C 191.3125 177.9375 191.074219 177.960938 190.832031 177.984375 C 190.441406 178.019531 190.058594 178.054688 189.667969 178.09375 C 189.464844 178.117188 189.261719 178.140625 189.058594 178.164062 C 188.632812 178.214844 188.207031 178.261719 187.777344 178.320312 C 187.621094 178.339844 187.464844 178.367188 187.308594 178.386719 C 186.832031 178.457031 186.359375 178.527344 185.890625 178.601562 C 185.785156 178.617188 185.679688 178.636719 185.578125 178.65625 C 185.054688 178.742188 184.523438 178.835938 184 178.933594 C 183.953125 178.941406 183.910156 178.953125 183.863281 178.960938 C 154.59375 184.570312 131.109375 208.269531 124.277344 239.078125 C 124.230469 239.28125 124.183594 239.484375 124.140625 239.691406 C 124.09375 239.90625 124.054688 240.121094 124.011719 240.332031 C 123.171875 244.386719 122.621094 248.554688 122.386719 252.8125 L 116.621094 252.8125 L 111.019531 244.363281 C 109.699219 242.375 107.488281 241.1875 105.105469 241.1875 L 95.335938 241.1875 C 92.308594 241.1875 89.613281 243.109375 88.628906 245.972656 L 84.78125 257.121094 L 88.625 268.265625 C 89.609375 271.125 92.308594 273.050781 95.332031 273.050781 L 105.101562 273.050781 C 107.488281 273.050781 109.699219 271.863281 111.015625 269.875 L 117.125 260.667969 L 122.308594 260.667969 C 122.441406 264.335938 122.8125 267.980469 123.410156 271.574219 C 123.425781 271.660156 123.4375 271.746094 123.453125 271.828125 C 124.9375 280.574219 127.769531 289.023438 131.871094 296.761719 C 132.820312 298.5625 133.832031 300.308594 134.867188 301.957031 C 139.046875 308.625 144.144531 314.578125 150.015625 319.65625 C 151.4375 320.890625 152.929688 322.082031 154.445312 323.203125 C 165.953125 331.742188 179.304688 336.601562 193.277344 337.367188 C 193.371094 337.371094 193.464844 337.375 193.558594 337.382812 C 194.054688 337.40625 194.550781 337.429688 195.042969 337.441406 C 195.183594 337.445312 195.320312 337.449219 195.457031 337.453125 C 196.042969 337.46875 196.628906 337.476562 197.214844 337.476562 C 197.214844 337.476562 197.21875 337.476562 197.21875 337.476562 C 197.222656 337.476562 197.222656 337.476562 197.226562 337.476562 L 213.90625 337.476562 L 213.90625 337.386719 C 213.953125 337.382812 214 337.382812 214.042969 337.378906 C 226.804688 336.746094 239.109375 332.601562 249.824219 325.566406 L 249.859375 325.574219 L 250.058594 325.445312 C 255.789062 321.644531 260.984375 317.066406 265.546875 311.804688 C 265.640625 311.699219 265.730469 311.589844 265.824219 311.484375 C 266.144531 311.113281 266.457031 310.742188 266.769531 310.363281 C 266.875 310.234375 266.984375 310.105469 267.089844 309.976562 C 267.484375 309.492188 267.875 309.003906 268.257812 308.515625 L 268.382812 308.347656 C 268.851562 307.746094 269.308594 307.128906 269.757812 306.507812 C 269.875 306.34375 269.996094 306.179688 270.113281 306.015625 C 270.539062 305.421875 270.960938 304.828125 271.367188 304.21875 C 271.480469 304.050781 271.59375 303.871094 271.710938 303.703125 C 272 303.265625 272.285156 302.828125 272.566406 302.382812 C 272.742188 302.105469 272.917969 301.824219 273.09375 301.542969 C 273.339844 301.148438 273.578125 300.746094 273.816406 300.34375 C 274.125 299.828125 274.425781 299.300781 274.726562 298.773438 C 274.820312 298.609375 274.914062 298.441406 275.003906 298.277344 C 276.449219 295.675781 277.769531 292.992188 278.933594 290.226562 L 279.277344 289.410156 L 279.253906 289.410156 C 283.320312 279.421875 285.46875 268.585938 285.46875 257.582031 Z M 115.96875 260.28125 L 110.039062 269.222656 C 108.9375 270.882812 107.09375 271.871094 105.105469 271.871094 L 95.335938 271.871094 C 92.8125 271.871094 90.566406 270.269531 89.742188 267.878906 L 86.355469 258.066406 L 95.214844 264.273438 L 95.230469 264.28125 C 96.105469 264.859375 97.25 265.179688 98.441406 265.179688 L 104.78125 265.179688 C 106.074219 265.179688 107.328125 264.792969 108.21875 264.125 L 115.964844 258.296875 L 115.964844 260.28125 Z M 87.894531 256.53125 L 95.878906 250.9375 C 96.554688 250.492188 97.488281 250.238281 98.445312 250.238281 L 104.785156 250.238281 C 105.832031 250.238281 106.824219 250.535156 107.515625 251.054688 L 114.796875 256.53125 Z M 114.792969 257.707031 L 107.511719 263.183594 C 106.820312 263.703125 105.828125 264 104.78125 264 L 98.441406 264 C 97.488281 264 96.558594 263.746094 95.882812 263.304688 L 87.894531 257.707031 Z M 115.96875 255.941406 L 108.21875 250.117188 C 107.328125 249.445312 106.074219 249.0625 104.78125 249.0625 L 98.441406 249.0625 C 97.246094 249.0625 96.105469 249.382812 95.214844 249.96875 L 86.355469 256.167969 L 89.742188 246.359375 C 90.566406 243.96875 92.8125 242.367188 95.335938 242.367188 L 105.105469 242.367188 C 107.097656 242.367188 108.9375 243.355469 110.039062 245.015625 L 115.96875 253.957031 Z M 282.867188 272.925781 L 270.808594 272.925781 C 271.6875 268.144531 272.160156 263.214844 272.195312 258.171875 L 284.285156 258.171875 C 284.246094 263.152344 283.769531 268.09375 282.867188 272.925781 Z M 284.28125 256.992188 L 272.191406 256.992188 C 272.160156 252.242188 271.730469 247.523438 270.921875 242.894531 L 283.015625 242.894531 C 283.8125 247.464844 284.25 252.179688 284.28125 256.992188 Z M 282.800781 241.714844 L 270.707031 241.714844 C 270.542969 240.839844 270.363281 239.972656 270.171875 239.105469 L 282.257812 239.105469 C 282.457031 239.96875 282.636719 240.839844 282.800781 241.714844 Z M 281.992188 237.925781 L 269.894531 237.925781 C 269.199219 235.007812 268.355469 232.136719 267.355469 229.320312 L 279.4375 229.320312 C 280.441406 232.117188 281.289062 234.988281 281.992188 237.925781 Z M 254.277344 194.101562 C 265.253906 202.699219 273.871094 214.464844 279.003906 228.144531 L 266.933594 228.144531 C 265.417969 224.066406 263.582031 220.109375 261.4375 216.328125 C 260.496094 214.65625 259.476562 212.992188 258.40625 211.390625 C 254.039062 204.835938 248.789062 199.03125 242.800781 194.144531 L 254.285156 194.144531 L 254.285156 194.101562 Z M 212.726562 178.871094 L 212.726562 178.910156 L 213.292969 178.933594 C 228.019531 179.519531 241.566406 184.621094 252.789062 192.964844 L 241.316406 192.964844 C 240.285156 192.167969 239.21875 191.375 238.125 190.617188 C 229.582031 184.679688 220.066406 180.710938 210.097656 178.871094 Z M 122.277344 259.488281 L 117.148438 259.488281 L 117.148438 253.988281 L 161.527344 253.988281 L 161.527344 259.488281 L 123.457031 259.488281 C 123.460938 259.46875 122.277344 259.46875 122.277344 259.488281 Z M 171.21875 263.15625 L 172.742188 263.15625 C 175.1875 275.402344 185.40625 284.238281 197.21875 284.238281 C 211.027344 284.238281 222.257812 272.28125 222.257812 257.578125 C 222.257812 242.878906 211.027344 230.917969 197.21875 230.917969 C 186.003906 230.917969 176.164062 238.875 173.128906 250.320312 L 161.53125 250.320312 L 161.53125 252.8125 L 147.589844 252.8125 C 149.859375 225.617188 171.542969 204.410156 197.21875 204.410156 C 224.699219 204.410156 247.046875 228.261719 247.046875 257.578125 C 247.046875 286.898438 224.699219 310.75 197.21875 310.75 C 170.722656 310.75 148.984375 288.796875 147.480469 260.664062 L 161.535156 260.664062 L 161.535156 263.15625 Z M 162.710938 261.976562 L 162.710938 251.5 L 171.21875 251.5 L 171.21875 261.976562 Z M 179.476562 251.5 L 179.476562 261.976562 L 172.394531 261.976562 L 172.394531 251.5 Z M 189.757812 252.8125 C 189.71875 252.738281 189.675781 252.675781 189.636719 252.609375 C 189.628906 252.597656 189.621094 252.585938 189.617188 252.574219 C 189.585938 252.527344 189.5625 252.476562 189.527344 252.429688 C 189.496094 252.382812 189.457031 252.335938 189.421875 252.289062 C 189.417969 252.285156 189.414062 252.277344 189.410156 252.273438 C 189.117188 251.878906 188.773438 251.539062 188.378906 251.246094 C 188.375 251.242188 188.367188 251.238281 188.363281 251.234375 C 188.269531 251.167969 188.175781 251.101562 188.078125 251.042969 C 188.066406 251.035156 188.050781 251.027344 188.039062 251.019531 C 187.726562 250.832031 187.394531 250.675781 187.039062 250.554688 C 189.261719 246.875 193.101562 244.617188 197.21875 244.617188 C 203.902344 244.617188 209.335938 250.429688 209.335938 257.578125 C 209.335938 264.726562 203.902344 270.539062 197.21875 270.539062 C 192.480469 270.539062 188.253906 267.648438 186.257812 263.105469 C 186.308594 263.097656 186.359375 263.085938 186.410156 263.074219 C 186.476562 263.0625 186.539062 263.050781 186.597656 263.039062 C 186.6875 263.019531 186.773438 262.996094 186.859375 262.972656 C 186.917969 262.957031 186.976562 262.941406 187.03125 262.921875 C 187.121094 262.894531 187.210938 262.855469 187.296875 262.820312 C 187.347656 262.800781 187.398438 262.78125 187.449219 262.761719 C 187.546875 262.71875 187.636719 262.671875 187.730469 262.625 C 187.769531 262.605469 187.808594 262.589844 187.847656 262.566406 C 187.980469 262.496094 188.105469 262.417969 188.226562 262.335938 C 188.238281 262.328125 188.246094 262.320312 188.257812 262.3125 C 188.367188 262.238281 188.472656 262.15625 188.578125 262.070312 C 188.621094 262.039062 188.652344 262.007812 188.691406 261.972656 C 188.765625 261.910156 188.839844 261.84375 188.90625 261.777344 C 188.945312 261.738281 188.984375 261.695312 189.023438 261.652344 C 189.085938 261.585938 189.144531 261.523438 189.203125 261.453125 C 189.242188 261.402344 189.277344 261.355469 189.320312 261.308594 C 189.375 261.242188 189.425781 261.171875 189.476562 261.101562 C 189.511719 261.050781 189.546875 261 189.578125 260.945312 C 189.625 260.875 189.667969 260.800781 189.710938 260.726562 C 189.722656 260.699219 189.738281 260.675781 189.753906 260.652344 L 197.847656 260.652344 L 197.847656 252.800781 L 189.757812 252.800781 Z M 188.644531 253.242188 C 188.648438 253.25 188.652344 253.253906 188.65625 253.261719 C 188.703125 253.34375 188.75 253.425781 188.792969 253.515625 C 188.800781 253.53125 188.808594 253.546875 188.816406 253.5625 C 188.84375 253.621094 188.867188 253.679688 188.894531 253.738281 C 188.917969 253.796875 188.941406 253.855469 188.960938 253.914062 C 188.976562 253.964844 188.996094 254.011719 189.011719 254.0625 C 189.03125 254.125 189.046875 254.191406 189.0625 254.261719 C 189.074219 254.308594 189.085938 254.359375 189.097656 254.40625 C 189.113281 254.480469 189.121094 254.554688 189.132812 254.625 C 189.136719 254.667969 189.144531 254.707031 189.148438 254.75 C 189.160156 254.863281 189.167969 254.984375 189.167969 255.101562 C 189.167969 255.105469 189.167969 255.105469 189.167969 255.109375 L 189.167969 258.382812 C 189.167969 258.507812 189.160156 258.636719 189.148438 258.757812 C 189.148438 258.773438 189.144531 258.789062 189.140625 258.804688 C 189.128906 258.914062 189.113281 259.019531 189.089844 259.125 C 189.085938 259.136719 189.085938 259.144531 189.082031 259.152344 C 189.058594 259.269531 189.027344 259.378906 188.992188 259.488281 C 188.992188 259.496094 188.988281 259.5 188.984375 259.503906 C 188.949219 259.613281 188.90625 259.722656 188.859375 259.832031 C 188.296875 261.097656 187.035156 261.980469 185.566406 261.980469 L 180.664062 261.980469 L 180.664062 251.503906 L 185.570312 251.503906 C 185.683594 251.503906 185.800781 251.511719 185.910156 251.519531 L 186.0625 251.539062 C 187.160156 251.691406 188.09375 252.339844 188.644531 253.242188 Z M 185.011719 263.15625 C 187.109375 268.367188 191.859375 271.71875 197.214844 271.71875 C 204.550781 271.71875 210.511719 265.375 210.511719 257.578125 C 210.511719 249.78125 204.546875 243.441406 197.214844 243.441406 C 192.539062 243.441406 188.207031 246.074219 185.8125 250.332031 C 185.730469 250.328125 185.644531 250.320312 185.5625 250.320312 L 174.34375 250.320312 C 177.332031 239.554688 186.636719 232.097656 197.214844 232.097656 C 210.375 232.097656 221.078125 243.527344 221.078125 257.578125 C 221.078125 271.628906 210.375 283.058594 197.214844 283.058594 C 186.039062 283.058594 176.355469 274.730469 173.933594 263.15625 Z M 232.734375 326.558594 C 232.554688 326.660156 232.378906 326.765625 232.203125 326.867188 C 231.949219 327.011719 231.691406 327.15625 231.4375 327.300781 C 231.097656 327.488281 230.757812 327.679688 230.414062 327.867188 C 230.28125 327.941406 230.144531 328.011719 230.007812 328.082031 C 229.539062 328.328125 229.070312 328.578125 228.59375 328.8125 C 228.558594 328.832031 228.519531 328.847656 228.480469 328.867188 C 220.472656 332.863281 211.796875 335.339844 202.855469 336.0625 C 202.644531 336.078125 202.433594 336.089844 202.222656 336.105469 C 201.796875 336.136719 201.371094 336.167969 200.945312 336.191406 C 199.710938 336.257812 198.472656 336.289062 197.222656 336.289062 C 196.652344 336.289062 196.082031 336.28125 195.511719 336.265625 C 195.355469 336.261719 195.203125 336.257812 195.042969 336.25 C 194.59375 336.234375 194.136719 336.21875 193.6875 336.195312 C 193.558594 336.1875 193.429688 336.183594 193.304688 336.175781 C 192.105469 336.109375 190.914062 336.011719 189.730469 335.886719 C 189.703125 335.882812 189.679688 335.882812 189.65625 335.878906 C 161.832031 332.835938 138.539062 313.234375 128.601562 286.492188 C 128.585938 286.449219 128.570312 286.40625 128.550781 286.363281 C 128.378906 285.894531 128.210938 285.421875 128.046875 284.949219 C 127.957031 284.6875 127.863281 284.417969 127.773438 284.15625 C 127.660156 283.820312 127.550781 283.484375 127.441406 283.148438 C 127.277344 282.628906 127.113281 282.109375 126.957031 281.589844 C 126.921875 281.46875 126.882812 281.347656 126.847656 281.226562 C 125.125 275.371094 124.039062 269.292969 123.632812 263.152344 C 123.621094 263.003906 123.609375 262.847656 123.601562 262.695312 C 123.566406 262.113281 123.535156 261.53125 123.515625 260.949219 C 123.511719 260.855469 123.507812 260.761719 123.503906 260.664062 L 146.300781 260.664062 C 147.023438 274.429688 152.558594 287.246094 161.929688 296.820312 C 171.46875 306.5625 184 311.925781 197.214844 311.925781 C 225.339844 311.925781 248.222656 287.546875 248.222656 257.578125 C 248.222656 227.613281 225.339844 203.230469 197.214844 203.230469 C 184.277344 203.230469 171.933594 208.402344 162.46875 217.789062 C 153.1875 226.996094 147.5 239.414062 146.40625 252.8125 L 123.578125 252.8125 C 123.589844 252.59375 123.601562 252.382812 123.621094 252.167969 C 123.640625 251.851562 123.660156 251.539062 123.683594 251.222656 C 123.714844 250.832031 123.746094 250.441406 123.78125 250.054688 C 123.800781 249.816406 123.824219 249.578125 123.84375 249.34375 C 123.894531 248.835938 123.949219 248.332031 124.003906 247.828125 C 124.015625 247.714844 124.027344 247.597656 124.042969 247.484375 C 128.304688 212.144531 154.625 184.070312 187.753906 179.519531 C 187.792969 179.515625 187.835938 179.507812 187.878906 179.503906 C 188.410156 179.433594 188.945312 179.367188 189.484375 179.308594 C 189.574219 179.296875 189.660156 179.285156 189.75 179.277344 C 190.246094 179.222656 190.738281 179.179688 191.234375 179.136719 C 191.363281 179.121094 191.492188 179.109375 191.621094 179.097656 C 192.082031 179.058594 192.550781 179.03125 193.019531 179.003906 C 193.175781 178.996094 193.332031 178.980469 193.488281 178.972656 C 193.953125 178.949219 194.421875 178.933594 194.886719 178.917969 C 195.042969 178.914062 195.203125 178.902344 195.359375 178.898438 C 195.980469 178.882812 196.601562 178.875 197.222656 178.875 C 211.570312 178.875 225.480469 183.273438 237.4375 191.59375 C 239.039062 192.707031 240.589844 193.875 242.039062 195.0625 C 247.9375 199.875 253.109375 205.589844 257.410156 212.046875 C 258.460938 213.628906 259.46875 215.265625 260.398438 216.914062 C 267.339844 229.148438 271.007812 243.210938 271.007812 257.585938 C 271.011719 287.257812 255.527344 313.152344 232.734375 326.558594 Z M 277.976562 289.398438 L 265.992188 289.398438 C 267.980469 284.535156 269.53125 279.414062 270.582031 274.109375 L 282.632812 274.109375 C 281.574219 279.363281 280.011719 284.488281 277.976562 289.398438 Z M 277.976562 289.398438 " fill-opacity="1" fill-rule="nonzero"/></g></svg>